%TF.GenerationSoftware,KiCad,Pcbnew,5.1.5+dfsg1-2build2*%
%TF.CreationDate,2020-11-04T23:41:29+01:00*%
%TF.ProjectId,HPE_FlexibleLOM_adapter_x4,4850455f-466c-4657-9869-626c654c4f4d,1.0 11.2020*%
%TF.SameCoordinates,Original*%
%TF.FileFunction,Copper,L1,Top*%
%TF.FilePolarity,Positive*%
%FSLAX46Y46*%
G04 Gerber Fmt 4.6, Leading zero omitted, Abs format (unit mm)*
G04 Created by KiCad (PCBNEW 5.1.5+dfsg1-2build2) date 2020-11-04 23:41:29*
%MOMM*%
%LPD*%
G04 APERTURE LIST*
%TA.AperFunction,EtchedComponent*%
%ADD10C,0.100000*%
%TD*%
%TA.AperFunction,ComponentPad*%
%ADD11C,7.000000*%
%TD*%
%TA.AperFunction,ComponentPad*%
%ADD12C,0.800000*%
%TD*%
%TA.AperFunction,SMDPad,CuDef*%
%ADD13R,0.700000X3.600000*%
%TD*%
%TA.AperFunction,SMDPad,CuDef*%
%ADD14R,1.000000X1.500000*%
%TD*%
%TA.AperFunction,ConnectorPad*%
%ADD15R,0.700000X4.300000*%
%TD*%
%TA.AperFunction,ConnectorPad*%
%ADD16R,0.700000X3.200000*%
%TD*%
%TA.AperFunction,ViaPad*%
%ADD17C,0.450000*%
%TD*%
%TA.AperFunction,Conductor*%
%ADD18C,0.090000*%
%TD*%
%TA.AperFunction,Conductor*%
%ADD19C,1.000000*%
%TD*%
%TA.AperFunction,Conductor*%
%ADD20C,0.127000*%
%TD*%
G04 APERTURE END LIST*
D10*
%TO.C,JP2*%
G36*
X98250000Y-107300000D02*
G01*
X97750000Y-107300000D01*
X97750000Y-106700000D01*
X98250000Y-106700000D01*
X98250000Y-107300000D01*
G37*
%TO.C,JP4*%
G36*
X103850000Y-109450000D02*
G01*
X104350000Y-109450000D01*
X104350000Y-110050000D01*
X103850000Y-110050000D01*
X103850000Y-109450000D01*
G37*
%TO.C,JP1*%
G36*
X114750000Y-110050000D02*
G01*
X114250000Y-110050000D01*
X114250000Y-109450000D01*
X114750000Y-109450000D01*
X114750000Y-110050000D01*
G37*
%TD*%
D11*
%TO.P,REF\002A\002A,1*%
%TO.N,N/C*%
X79200000Y-104750000D03*
D12*
X81825000Y-104750000D03*
X81056155Y-106606155D03*
X79200000Y-107375000D03*
X77343845Y-106606155D03*
X76575000Y-104750000D03*
X77343845Y-102893845D03*
X79200000Y-102125000D03*
X81056155Y-102893845D03*
%TD*%
D13*
%TO.P,J2,B1*%
%TO.N,Net-(J2-PadB1)*%
X100000000Y-103200000D03*
%TO.P,J2,B12*%
%TO.N,Net-(J2-PadB12)*%
X113000000Y-103200000D03*
%TO.P,J2,B13*%
%TO.N,GND*%
X114000000Y-103200000D03*
%TO.P,J2,B14*%
%TO.N,Net-(J2-PadB14)*%
X115000000Y-103200000D03*
%TO.P,J2,B15*%
%TO.N,Net-(J2-PadB15)*%
X116000000Y-103200000D03*
%TO.P,J2,B16*%
%TO.N,GND*%
X117000000Y-103200000D03*
%TO.P,J2,B17*%
%TO.N,/RX0+*%
X118000000Y-103200000D03*
%TO.P,J2,B18*%
%TO.N,/RX0-*%
X119000000Y-103200000D03*
%TO.P,J2,B19*%
%TO.N,GND*%
X120000000Y-103200000D03*
%TO.P,J2,B20*%
X121000000Y-103200000D03*
%TO.P,J2,B21*%
%TO.N,/RX1+*%
X122000000Y-103200000D03*
%TO.P,J2,B22*%
%TO.N,/RX1-*%
X123000000Y-103200000D03*
%TO.P,J2,B23*%
%TO.N,GND*%
X124000000Y-103200000D03*
%TO.P,J2,B24*%
X125000000Y-103200000D03*
%TO.P,J2,B25*%
%TO.N,/RX2+*%
X126000000Y-103200000D03*
%TO.P,J2,B26*%
%TO.N,/RX2-*%
X127000000Y-103200000D03*
%TO.P,J2,B27*%
%TO.N,GND*%
X128000000Y-103200000D03*
%TO.P,J2,B28*%
X129000000Y-103200000D03*
%TO.P,J2,B29*%
%TO.N,/RX3+*%
X130000000Y-103200000D03*
%TO.P,J2,B30*%
%TO.N,/RX3-*%
X131000000Y-103200000D03*
%TO.P,J2,B31*%
%TO.N,GND*%
X132000000Y-103200000D03*
%TO.P,J2,B32*%
X133000000Y-103200000D03*
%TO.P,J2,B33*%
%TO.N,/RX4+*%
X134000000Y-103200000D03*
%TO.P,J2,B34*%
%TO.N,/RX4-*%
X135000000Y-103200000D03*
%TO.P,J2,B35*%
%TO.N,GND*%
X136000000Y-103200000D03*
%TO.P,J2,B36*%
X137000000Y-103200000D03*
%TO.P,J2,B37*%
%TO.N,/RX5+*%
X138000000Y-103200000D03*
%TO.P,J2,B38*%
%TO.N,/RX5-*%
X139000000Y-103200000D03*
%TO.P,J2,B39*%
%TO.N,GND*%
X140000000Y-103200000D03*
%TO.P,J2,B40*%
X141000000Y-103200000D03*
%TO.P,J2,B41*%
%TO.N,/RX6+*%
X142000000Y-103200000D03*
%TO.P,J2,B42*%
%TO.N,/RX6-*%
X143000000Y-103200000D03*
%TO.P,J2,B43*%
%TO.N,GND*%
X144000000Y-103200000D03*
%TO.P,J2,B44*%
X145000000Y-103200000D03*
%TO.P,J2,B45*%
%TO.N,/RX7+*%
X146000000Y-103200000D03*
%TO.P,J2,B46*%
%TO.N,/RX7-*%
X147000000Y-103200000D03*
%TO.P,J2,B47*%
%TO.N,GND*%
X148000000Y-103200000D03*
%TO.P,J2,B48*%
X149000000Y-103200000D03*
%TO.P,J2,B49*%
%TO.N,Net-(J2-PadB49)*%
X150000000Y-103200000D03*
%TO.P,J2,B2*%
%TO.N,+12V*%
X101000000Y-103200000D03*
%TO.P,J2,B3*%
X102000000Y-103200000D03*
%TO.P,J2,B4*%
%TO.N,Net-(J2-PadB4)*%
X103000000Y-103200000D03*
%TO.P,J2,B5*%
%TO.N,Net-(J2-PadB5)*%
X104000000Y-103200000D03*
%TO.P,J2,B6*%
%TO.N,GND*%
X105000000Y-103200000D03*
%TO.P,J2,B7*%
%TO.N,Net-(J2-PadB7)*%
X106000000Y-103200000D03*
%TO.P,J2,B8*%
%TO.N,Net-(J2-PadB8)*%
X107000000Y-103200000D03*
%TO.P,J2,B9*%
%TO.N,Net-(J2-PadB9)*%
X108000000Y-103200000D03*
%TO.P,J2,B10*%
%TO.N,Net-(J2-PadB10)*%
X109000000Y-103200000D03*
%TO.P,J2,B11*%
%TO.N,Net-(J2-PadB11)*%
X110000000Y-103200000D03*
%TD*%
D14*
%TO.P,JP2,2*%
%TO.N,Net-(J2-PadB1)*%
X97350000Y-107000000D03*
%TO.P,JP2,1*%
%TO.N,+12V*%
X98650000Y-107000000D03*
%TD*%
%TO.P,JP4,2*%
%TO.N,Net-(J1-PadA1)*%
X104750000Y-109750000D03*
%TO.P,JP4,3*%
%TO.N,/PRSNT_x4*%
X106050000Y-109750000D03*
%TO.P,JP4,1*%
%TO.N,/PRSNT_x8*%
X103450000Y-109750000D03*
%TD*%
%TO.P,JP1,2*%
%TO.N,Net-(J2-PadB10)*%
X113850000Y-109750000D03*
%TO.P,JP1,1*%
%TO.N,+3V3*%
X115150000Y-109750000D03*
%TD*%
D15*
%TO.P,J1,B13*%
%TO.N,GND*%
X134000000Y-122850000D03*
%TO.P,J1,B12*%
%TO.N,Net-(J1-PadB12)*%
X133000000Y-122850000D03*
%TO.P,J1,B18*%
%TO.N,GND*%
X139000000Y-122850000D03*
%TO.P,J1,B17*%
%TO.N,Net-(J1-PadB17)*%
X138000000Y-122850000D03*
%TO.P,J1,B16*%
%TO.N,GND*%
X137000000Y-122850000D03*
%TO.P,J1,B15*%
%TO.N,/TX0-*%
X136000000Y-122850000D03*
%TO.P,J1,B14*%
%TO.N,/TX0+*%
X135000000Y-122850000D03*
%TO.P,J1,B11*%
%TO.N,Net-(J1-PadB11)*%
X130000000Y-122850000D03*
%TO.P,J1,B10*%
%TO.N,+3V3*%
X129000000Y-122850000D03*
%TO.P,J1,B9*%
%TO.N,Net-(J1-PadB9)*%
X128000000Y-122850000D03*
%TO.P,J1,B8*%
%TO.N,Net-(J1-PadB8)*%
X127000000Y-122850000D03*
%TO.P,J1,B7*%
%TO.N,GND*%
X126000000Y-122850000D03*
%TO.P,J1,B6*%
%TO.N,Net-(J1-PadB6)*%
X125000000Y-122850000D03*
%TO.P,J1,B5*%
%TO.N,Net-(J1-PadB5)*%
X124000000Y-122850000D03*
%TO.P,J1,B4*%
%TO.N,GND*%
X123000000Y-122850000D03*
%TO.P,J1,B3*%
%TO.N,+12V*%
X122000000Y-122850000D03*
%TO.P,J1,B2*%
X121000000Y-122850000D03*
%TO.P,J1,B1*%
X120000000Y-122850000D03*
%TO.P,J1,B19*%
%TO.N,/TX1+*%
X140000000Y-122850000D03*
%TO.P,J1,B20*%
%TO.N,/TX1-*%
X141000000Y-122850000D03*
%TO.P,J1,B21*%
%TO.N,GND*%
X142000000Y-122850000D03*
%TO.P,J1,B22*%
X143000000Y-122850000D03*
%TO.P,J1,B23*%
%TO.N,/TX2+*%
X144000000Y-122850000D03*
%TO.P,J1,B24*%
%TO.N,/TX2-*%
X145000000Y-122850000D03*
%TO.P,J1,B25*%
%TO.N,GND*%
X146000000Y-122850000D03*
%TO.P,J1,B26*%
X147000000Y-122850000D03*
%TO.P,J1,B27*%
%TO.N,/TX3+*%
X148000000Y-122850000D03*
%TO.P,J1,B28*%
%TO.N,/TX3-*%
X149000000Y-122850000D03*
%TO.P,J1,B29*%
%TO.N,GND*%
X150000000Y-122850000D03*
%TO.P,J1,B30*%
%TO.N,Net-(J1-PadB30)*%
X151000000Y-122850000D03*
%TO.P,J1,B31*%
%TO.N,/PRSNT_x4*%
X152000000Y-122850000D03*
%TO.P,J1,B32*%
%TO.N,GND*%
X153000000Y-122850000D03*
%TO.P,J1,B33*%
%TO.N,/TX4+*%
X154000000Y-122850000D03*
%TO.P,J1,B34*%
%TO.N,/TX4-*%
X155000000Y-122850000D03*
%TO.P,J1,B35*%
%TO.N,GND*%
X156000000Y-122850000D03*
%TO.P,J1,B36*%
X157000000Y-122850000D03*
%TO.P,J1,B37*%
%TO.N,/TX5+*%
X158000000Y-122850000D03*
%TO.P,J1,B38*%
%TO.N,/TX5-*%
X159000000Y-122850000D03*
%TO.P,J1,B39*%
%TO.N,GND*%
X160000000Y-122850000D03*
%TO.P,J1,B40*%
X161000000Y-122850000D03*
%TO.P,J1,B41*%
%TO.N,/TX6+*%
X162000000Y-122850000D03*
%TO.P,J1,B42*%
%TO.N,/TX6-*%
X163000000Y-122850000D03*
%TO.P,J1,B43*%
%TO.N,GND*%
X164000000Y-122850000D03*
%TO.P,J1,B44*%
X165000000Y-122850000D03*
%TO.P,J1,B45*%
%TO.N,/TX7+*%
X166000000Y-122850000D03*
%TO.P,J1,B46*%
%TO.N,/TX7-*%
X167000000Y-122850000D03*
%TO.P,J1,B47*%
%TO.N,GND*%
X168000000Y-122850000D03*
D16*
%TO.P,J1,B48*%
%TO.N,/PRSNT_x8*%
X169000000Y-122300000D03*
D15*
%TO.P,J1,B49*%
%TO.N,GND*%
X170000000Y-122850000D03*
%TD*%
D17*
%TO.N,/TX7-*%
X164297237Y-117402763D03*
%TO.N,/TX7+*%
X163752763Y-117947237D03*
%TO.N,/TX6-*%
X160197237Y-117402763D03*
%TO.N,/TX0-*%
X135885000Y-118900000D03*
%TO.N,/TX0+*%
X135115000Y-118900000D03*
%TO.N,+3V3*%
X114000000Y-108000000D03*
%TO.N,+12V*%
X121999999Y-118400000D03*
X120500000Y-118400000D03*
X121250000Y-118400000D03*
X120500000Y-120000000D03*
X122000000Y-120000000D03*
X122000000Y-119200000D03*
X121250000Y-117600000D03*
X122000000Y-117600000D03*
X121249999Y-120000000D03*
X121250000Y-119200000D03*
X120500000Y-117600000D03*
X120500000Y-119200000D03*
X100300000Y-105650000D03*
X100300001Y-107150000D03*
X100300000Y-106399999D03*
X102700000Y-107150000D03*
X102700000Y-105650000D03*
X102700000Y-106400000D03*
X101900000Y-105650000D03*
X101900000Y-106400000D03*
X101900000Y-107150000D03*
X101100000Y-107150000D03*
X101100000Y-106400000D03*
X101100000Y-105650000D03*
%TO.N,/RX0-*%
X137272237Y-117627763D03*
%TO.N,/RX0+*%
X136727763Y-118172237D03*
%TO.N,/RX1+*%
X140602763Y-117947237D03*
%TO.N,/RX1-*%
X141147237Y-117402763D03*
%TO.N,/RX2+*%
X144727763Y-117972237D03*
%TO.N,/RX2-*%
X145272237Y-117427763D03*
%TO.N,/RX3+*%
X148802763Y-117947237D03*
%TO.N,/RX3-*%
X149347237Y-117402763D03*
%TO.N,/TX1+*%
X138552763Y-117947237D03*
%TO.N,/TX1-*%
X139097237Y-117402763D03*
%TO.N,/TX2+*%
X142677763Y-117947237D03*
%TO.N,/TX2-*%
X143222237Y-117402763D03*
%TO.N,/TX3+*%
X146752763Y-117947237D03*
%TO.N,/TX3-*%
X147297237Y-117402763D03*
%TO.N,/RX4+*%
X153502763Y-117947237D03*
%TO.N,/RX4-*%
X154047237Y-117402763D03*
%TO.N,/RX5+*%
X157577763Y-117947237D03*
%TO.N,/RX5-*%
X158122237Y-117402763D03*
%TO.N,/RX6+*%
X161702763Y-117947237D03*
%TO.N,/RX6-*%
X162247237Y-117402763D03*
%TO.N,/RX7+*%
X165802763Y-117947237D03*
%TO.N,/RX7-*%
X166347237Y-117402763D03*
%TO.N,/TX4+*%
X151452763Y-117947237D03*
%TO.N,/TX4-*%
X151997237Y-117402763D03*
%TO.N,/TX5+*%
X155552763Y-117947237D03*
%TO.N,/TX5-*%
X156097237Y-117402763D03*
%TO.N,/TX6+*%
X159652763Y-117947237D03*
%TO.N,Net-(J1-PadA1)*%
X104750000Y-111250000D03*
%TO.N,GND*%
X124050000Y-113700000D03*
X155300000Y-120200000D03*
X157300000Y-120200000D03*
X161300000Y-120200000D03*
X133300000Y-119800000D03*
X136600000Y-119800000D03*
X139400000Y-119800000D03*
X138500000Y-119800000D03*
X141600000Y-119800000D03*
X143400000Y-119800000D03*
X145600000Y-119800000D03*
X147400000Y-119800000D03*
X149600000Y-119800000D03*
X152300000Y-119800000D03*
X169700000Y-119800000D03*
X167400000Y-120100000D03*
X165300000Y-120200000D03*
X159300000Y-120200000D03*
X123000000Y-120000000D03*
X126000000Y-120000000D03*
X125000000Y-120000000D03*
X124000000Y-120000000D03*
X134000000Y-101000000D03*
X135000000Y-101000000D03*
X131000000Y-101000000D03*
X130000000Y-101000000D03*
X126000000Y-101000000D03*
X127000000Y-101000000D03*
X123000000Y-101000000D03*
X122000000Y-101000000D03*
X119000000Y-101000000D03*
X116000000Y-101000000D03*
X114000000Y-101000000D03*
X138000000Y-101000000D03*
X139000000Y-101000000D03*
X142000000Y-101000000D03*
X143000000Y-101000000D03*
X146000000Y-101000000D03*
X147000000Y-101000000D03*
X150000000Y-101000000D03*
X107000000Y-100750000D03*
X104000000Y-100750000D03*
X106000000Y-100750000D03*
X105000000Y-100750000D03*
X121000000Y-101000000D03*
X120000000Y-101000000D03*
X117000000Y-101000000D03*
X124000000Y-101000000D03*
X125000000Y-101000000D03*
X128000000Y-101000000D03*
X129000000Y-101000000D03*
X132000000Y-101000000D03*
X133000000Y-101000000D03*
X136000000Y-101000000D03*
X137000000Y-101000000D03*
X140000000Y-101000000D03*
X141000000Y-101000000D03*
X144000000Y-101000000D03*
X145000000Y-101000000D03*
X148000000Y-101000000D03*
X149000000Y-101000000D03*
X110000000Y-100500000D03*
X113000000Y-100500000D03*
X92500000Y-100500000D03*
X92000000Y-101000000D03*
X99250000Y-113000000D03*
X94500000Y-113000000D03*
X119500000Y-105500000D03*
X121500000Y-105500000D03*
X123500000Y-105500000D03*
X125500000Y-105500000D03*
X127500000Y-105500000D03*
X129500000Y-105500000D03*
X131500000Y-105500000D03*
X133500000Y-105500000D03*
X135500000Y-105500000D03*
X137500000Y-105500000D03*
X139500000Y-105500000D03*
X141500000Y-105500000D03*
X143500000Y-105500000D03*
X145500000Y-105500000D03*
X147500000Y-105500000D03*
X157500000Y-100500000D03*
X167500000Y-111250000D03*
X170000000Y-113750000D03*
X133500000Y-108500000D03*
X135500000Y-108500000D03*
X153750000Y-108500000D03*
X119000000Y-108500000D03*
X139750000Y-108500000D03*
X129500000Y-108500000D03*
X158000000Y-107500000D03*
X161750000Y-111250000D03*
X144100000Y-113700000D03*
X137900000Y-113700000D03*
X132850000Y-113700000D03*
X113000000Y-106250000D03*
X110000000Y-106250000D03*
X117750000Y-107250000D03*
X158000000Y-101000000D03*
X88050000Y-112100000D03*
X86000000Y-106150000D03*
X83250000Y-101450000D03*
X75300000Y-101050000D03*
X75300000Y-107100000D03*
X80500000Y-109350000D03*
X84900000Y-108500000D03*
X78400000Y-111650000D03*
X89100000Y-101150000D03*
X91500000Y-107000000D03*
%TO.N,/PRSNT_x4*%
X151500000Y-119000000D03*
X106050000Y-111250000D03*
%TO.N,/PRSNT_x8*%
X162750000Y-112000000D03*
X107150000Y-106150000D03*
%TD*%
D18*
%TO.N,/TX7-*%
X166705000Y-120065086D02*
X164297237Y-117657323D01*
X164297237Y-117657323D02*
X164297237Y-117402763D01*
X166705000Y-120755000D02*
X166705000Y-120065086D01*
X167000000Y-122850000D02*
X167000000Y-121050000D01*
X167000000Y-121050000D02*
X166705000Y-120755000D01*
%TO.N,/TX7+*%
X164007323Y-117947237D02*
X163752763Y-117947237D01*
X166295000Y-120234914D02*
X164007323Y-117947237D01*
X166295000Y-120755000D02*
X166295000Y-120234914D01*
X166000000Y-121050000D02*
X166295000Y-120755000D01*
X166000000Y-122850000D02*
X166000000Y-121050000D01*
%TO.N,/TX6-*%
X160197237Y-117657323D02*
X160197237Y-117402763D01*
X162705000Y-120165086D02*
X160197237Y-117657323D01*
X162705000Y-120755000D02*
X162705000Y-120165086D01*
X163000000Y-122850000D02*
X163000000Y-121050000D01*
X163000000Y-121050000D02*
X162705000Y-120755000D01*
%TO.N,/TX0-*%
X136000000Y-122850000D02*
X136000000Y-121050000D01*
X136000000Y-121050000D02*
X135705000Y-120755000D01*
X135705000Y-119080000D02*
X135885000Y-118900000D01*
X135705000Y-120755000D02*
X135705000Y-119080000D01*
%TO.N,/TX0+*%
X135000000Y-121050000D02*
X135295000Y-120755000D01*
X135000000Y-122850000D02*
X135000000Y-121050000D01*
X135295000Y-119080000D02*
X135115000Y-118900000D01*
X135295000Y-120755000D02*
X135295000Y-119080000D01*
D19*
%TO.N,+3V3*%
X129000000Y-120221398D02*
X118528602Y-109750000D01*
X129000000Y-122850000D02*
X129000000Y-120221398D01*
X118528602Y-109750000D02*
X115250000Y-109750000D01*
D20*
X115150000Y-108650000D02*
X114500000Y-108000000D01*
X114500000Y-108000000D02*
X114000000Y-108000000D01*
X115150000Y-109750000D02*
X115150000Y-108650000D01*
D19*
%TO.N,+12V*%
X98650000Y-107000000D02*
X100300000Y-107000000D01*
D18*
%TO.N,/RX0-*%
X119000000Y-103200000D02*
X119000000Y-104650000D01*
X119000000Y-104650000D02*
X118705000Y-104945000D01*
X137017677Y-117627763D02*
X137272237Y-117627763D01*
X118705000Y-106890086D02*
X128934914Y-117120000D01*
X136509914Y-117120000D02*
X137017677Y-117627763D01*
X128934914Y-117120000D02*
X136509914Y-117120000D01*
X118705000Y-104945000D02*
X118705000Y-106890086D01*
%TO.N,/RX0+*%
X136727763Y-117917677D02*
X136727763Y-118172237D01*
X136340086Y-117530000D02*
X136727763Y-117917677D01*
X118295000Y-104945000D02*
X118295000Y-107059914D01*
X118000000Y-103200000D02*
X118000000Y-104650000D01*
X128765086Y-117530000D02*
X136340086Y-117530000D01*
X118000000Y-104650000D02*
X118295000Y-104945000D01*
X118295000Y-107059914D02*
X128765086Y-117530000D01*
%TO.N,/RX1+*%
X122295000Y-104945000D02*
X122295000Y-109034914D01*
X122000000Y-103200000D02*
X122000000Y-104650000D01*
X129340086Y-116080000D02*
X138990086Y-116080000D01*
X122000000Y-104650000D02*
X122295000Y-104945000D01*
X122295000Y-109034914D02*
X129340086Y-116080000D01*
X138990086Y-116080000D02*
X140602763Y-117692677D01*
X140602763Y-117692677D02*
X140602763Y-117947237D01*
%TO.N,/RX1-*%
X140892677Y-117402763D02*
X141147237Y-117402763D01*
X129509914Y-115670000D02*
X139159914Y-115670000D01*
X123000000Y-103200000D02*
X123000000Y-104650000D01*
X139159914Y-115670000D02*
X140892677Y-117402763D01*
X123000000Y-104650000D02*
X122705000Y-104945000D01*
X122705000Y-104945000D02*
X122705000Y-108865086D01*
X122705000Y-108865086D02*
X129509914Y-115670000D01*
%TO.N,/RX2+*%
X126000000Y-104650000D02*
X126295000Y-104945000D01*
X126000000Y-103200000D02*
X126000000Y-104650000D01*
X126295000Y-104945000D02*
X126295000Y-110934914D01*
X126295000Y-110934914D02*
X129990086Y-114630000D01*
X144727763Y-117717677D02*
X144727763Y-117972237D01*
X141640086Y-114630000D02*
X144727763Y-117717677D01*
X129990086Y-114630000D02*
X141640086Y-114630000D01*
%TO.N,/RX2-*%
X127000000Y-104650000D02*
X126705000Y-104945000D01*
X127000000Y-103200000D02*
X127000000Y-104650000D01*
X126705000Y-104945000D02*
X126705000Y-110765086D01*
X126705000Y-110765086D02*
X130159914Y-114220000D01*
X141809914Y-114220000D02*
X145017677Y-117427763D01*
X130159914Y-114220000D02*
X141809914Y-114220000D01*
X145017677Y-117427763D02*
X145272237Y-117427763D01*
%TO.N,/RX3+*%
X130000000Y-104650000D02*
X130295000Y-104945000D01*
X130000000Y-103200000D02*
X130000000Y-104650000D01*
X130295000Y-104945000D02*
X130295000Y-110909914D01*
X130295000Y-110909914D02*
X132565086Y-113180000D01*
X148802763Y-117692677D02*
X148802763Y-117947237D01*
X144290086Y-113180000D02*
X148802763Y-117692677D01*
X132565086Y-113180000D02*
X144290086Y-113180000D01*
%TO.N,/RX3-*%
X131000000Y-104650000D02*
X130705000Y-104945000D01*
X131000000Y-103200000D02*
X131000000Y-104650000D01*
X130705000Y-104945000D02*
X130705000Y-110740086D01*
X130705000Y-110740086D02*
X132734914Y-112770000D01*
X149092677Y-117402763D02*
X149347237Y-117402763D01*
X144459914Y-112770000D02*
X149092677Y-117402763D01*
X132734914Y-112770000D02*
X144459914Y-112770000D01*
%TO.N,/TX1+*%
X138807323Y-117947237D02*
X138552763Y-117947237D01*
X140295000Y-119434914D02*
X138807323Y-117947237D01*
X140295000Y-120755000D02*
X140295000Y-119434914D01*
X140000000Y-121050000D02*
X140295000Y-120755000D01*
X140000000Y-122850000D02*
X140000000Y-121050000D01*
%TO.N,/TX1-*%
X140705000Y-119265086D02*
X139097237Y-117657323D01*
X140705000Y-120755000D02*
X140705000Y-119265086D01*
X141000000Y-122850000D02*
X141000000Y-121050000D01*
X141000000Y-121050000D02*
X140705000Y-120755000D01*
X139097237Y-117657323D02*
X139097237Y-117402763D01*
%TO.N,/TX2+*%
X144000000Y-121050000D02*
X144000000Y-122850000D01*
X144295000Y-120755000D02*
X144000000Y-121050000D01*
X144295000Y-119309914D02*
X144295000Y-120755000D01*
X142677763Y-117947237D02*
X142932323Y-117947237D01*
X142932323Y-117947237D02*
X144295000Y-119309914D01*
%TO.N,/TX2-*%
X145000000Y-121050000D02*
X145000000Y-122850000D01*
X144705000Y-120755000D02*
X145000000Y-121050000D01*
X143222237Y-117657323D02*
X144705000Y-119140086D01*
X144705000Y-119140086D02*
X144705000Y-120755000D01*
X143222237Y-117402763D02*
X143222237Y-117657323D01*
%TO.N,/TX3+*%
X148000000Y-121050000D02*
X148295000Y-120755000D01*
X148000000Y-122850000D02*
X148000000Y-121050000D01*
X147007323Y-117947237D02*
X146752763Y-117947237D01*
X148295000Y-119234914D02*
X147007323Y-117947237D01*
X148295000Y-120755000D02*
X148295000Y-119234914D01*
%TO.N,/TX3-*%
X149000000Y-121050000D02*
X148705000Y-120755000D01*
X149000000Y-122850000D02*
X149000000Y-121050000D01*
X147297237Y-117657323D02*
X147297237Y-117402763D01*
X148705000Y-119065086D02*
X147297237Y-117657323D01*
X148705000Y-120755000D02*
X148705000Y-119065086D01*
%TO.N,/RX4+*%
X153502763Y-117692677D02*
X153502763Y-117947237D01*
X134000000Y-104650000D02*
X134295000Y-104945000D01*
X134295000Y-104945000D02*
X134295000Y-110734914D01*
X134295000Y-110734914D02*
X135290086Y-111730000D01*
X135290086Y-111730000D02*
X147540086Y-111730000D01*
X134000000Y-103200000D02*
X134000000Y-104650000D01*
X147540086Y-111730000D02*
X153502763Y-117692677D01*
%TO.N,/RX4-*%
X147709914Y-111320000D02*
X153792677Y-117402763D01*
X135459914Y-111320000D02*
X147709914Y-111320000D01*
X135000000Y-104650000D02*
X134705000Y-104945000D01*
X134705000Y-104945000D02*
X134705000Y-110565086D01*
X135000000Y-103200000D02*
X135000000Y-104650000D01*
X153792677Y-117402763D02*
X154047237Y-117402763D01*
X134705000Y-110565086D02*
X135459914Y-111320000D01*
%TO.N,/RX5+*%
X139965086Y-110280000D02*
X150165086Y-110280000D01*
X138000000Y-103200000D02*
X138000000Y-104650000D01*
X138000000Y-104650000D02*
X138295000Y-104945000D01*
X138295000Y-104945000D02*
X138295000Y-108609914D01*
X138295000Y-108609914D02*
X139965086Y-110280000D01*
X157577763Y-117692677D02*
X157577763Y-117947237D01*
X150165086Y-110280000D02*
X157577763Y-117692677D01*
%TO.N,/RX5-*%
X150334914Y-109870000D02*
X157867677Y-117402763D01*
X157867677Y-117402763D02*
X158122237Y-117402763D01*
X140134914Y-109870000D02*
X150334914Y-109870000D01*
X139000000Y-103200000D02*
X139000000Y-104650000D01*
X139000000Y-104650000D02*
X138705000Y-104945000D01*
X138705000Y-104945000D02*
X138705000Y-108440086D01*
X138705000Y-108440086D02*
X140134914Y-109870000D01*
%TO.N,/RX6+*%
X142000000Y-104650000D02*
X142295000Y-104945000D01*
X142000000Y-103200000D02*
X142000000Y-104650000D01*
X142295000Y-104945000D02*
X142295000Y-107909914D01*
X142295000Y-107909914D02*
X143215086Y-108830000D01*
X161702763Y-117692677D02*
X161702763Y-117947237D01*
X152840086Y-108830000D02*
X161702763Y-117692677D01*
X143215086Y-108830000D02*
X152840086Y-108830000D01*
%TO.N,/RX6-*%
X143000000Y-104650000D02*
X142705000Y-104945000D01*
X143000000Y-103200000D02*
X143000000Y-104650000D01*
X142705000Y-104945000D02*
X142705000Y-107740086D01*
X142705000Y-107740086D02*
X143384914Y-108420000D01*
X143384914Y-108420000D02*
X153009914Y-108420000D01*
X153009914Y-108420000D02*
X161992677Y-117402763D01*
X161992677Y-117402763D02*
X162247237Y-117402763D01*
%TO.N,/RX7+*%
X146000000Y-104650000D02*
X146295000Y-104945000D01*
X146000000Y-103200000D02*
X146000000Y-104650000D01*
X146295000Y-104945000D02*
X146295000Y-106509914D01*
X146295000Y-106509914D02*
X147165086Y-107380000D01*
X165802763Y-117692677D02*
X165802763Y-117947237D01*
X155490086Y-107380000D02*
X165802763Y-117692677D01*
X147165086Y-107380000D02*
X155490086Y-107380000D01*
%TO.N,/RX7-*%
X147000000Y-104650000D02*
X146705000Y-104945000D01*
X147000000Y-103200000D02*
X147000000Y-104650000D01*
X146705000Y-104945000D02*
X146705000Y-106340086D01*
X146705000Y-106340086D02*
X147334914Y-106970000D01*
X166092677Y-117402763D02*
X166347237Y-117402763D01*
X155659914Y-106970000D02*
X166092677Y-117402763D01*
X147334914Y-106970000D02*
X155659914Y-106970000D01*
%TO.N,/TX4+*%
X151707323Y-117947237D02*
X151452763Y-117947237D01*
X154295000Y-120534914D02*
X151707323Y-117947237D01*
X154295000Y-120755000D02*
X154295000Y-120534914D01*
X154000000Y-121050000D02*
X154295000Y-120755000D01*
X154000000Y-122850000D02*
X154000000Y-121050000D01*
%TO.N,/TX4-*%
X151997237Y-117657323D02*
X151997237Y-117402763D01*
X154705000Y-120755000D02*
X154705000Y-120365086D01*
X154705000Y-120365086D02*
X151997237Y-117657323D01*
X155000000Y-121050000D02*
X154705000Y-120755000D01*
X155000000Y-122850000D02*
X155000000Y-121050000D01*
%TO.N,/TX5+*%
X155807323Y-117947237D02*
X155552763Y-117947237D01*
X158295000Y-120434914D02*
X155807323Y-117947237D01*
X158295000Y-120755000D02*
X158295000Y-120434914D01*
X158000000Y-121050000D02*
X158295000Y-120755000D01*
X158000000Y-122850000D02*
X158000000Y-121050000D01*
%TO.N,/TX5-*%
X156097237Y-117657323D02*
X156097237Y-117402763D01*
X159000000Y-121050000D02*
X158705000Y-120755000D01*
X159000000Y-122850000D02*
X159000000Y-121050000D01*
X158705000Y-120265086D02*
X156097237Y-117657323D01*
X158705000Y-120755000D02*
X158705000Y-120265086D01*
%TO.N,/TX6+*%
X159907323Y-117947237D02*
X159652763Y-117947237D01*
X162295000Y-120334914D02*
X159907323Y-117947237D01*
X162295000Y-120755000D02*
X162295000Y-120334914D01*
X162000000Y-121050000D02*
X162295000Y-120755000D01*
X162000000Y-122850000D02*
X162000000Y-121050000D01*
D19*
%TO.N,Net-(J2-PadB10)*%
X109000000Y-103200000D02*
X109000000Y-107500000D01*
X111250000Y-109750000D02*
X113750000Y-109750000D01*
X109000000Y-107500000D02*
X111250000Y-109750000D01*
D20*
%TO.N,Net-(J1-PadA1)*%
X104750000Y-111250000D02*
X104750000Y-109750000D01*
D19*
%TO.N,Net-(J2-PadB1)*%
X97350000Y-106500000D02*
X97350000Y-104650000D01*
X97350000Y-104650000D02*
X98750000Y-103250000D01*
X98750000Y-103250000D02*
X99750000Y-103250000D01*
D20*
%TO.N,/PRSNT_x4*%
X106050000Y-109750000D02*
X106050000Y-111250000D01*
X152000000Y-122850000D02*
X152000000Y-120573000D01*
X152000000Y-120573000D02*
X151500000Y-120073000D01*
X151500000Y-120073000D02*
X151500000Y-119000000D01*
%TO.N,/PRSNT_x8*%
X169000000Y-118250000D02*
X162750000Y-112000000D01*
X169000000Y-122300000D02*
X169000000Y-118250000D01*
X103450000Y-109750000D02*
X103450000Y-107850000D01*
X105150000Y-106150000D02*
X107150000Y-106150000D01*
X103450000Y-107850000D02*
X105150000Y-106150000D01*
%TD*%
%TO.N,GND*%
G36*
X134932500Y-120380964D02*
G01*
X134650000Y-120380964D01*
X134587759Y-120387094D01*
X134527910Y-120405249D01*
X134472753Y-120434731D01*
X134424407Y-120474407D01*
X134384731Y-120522753D01*
X134355249Y-120577910D01*
X134337094Y-120637759D01*
X134330964Y-120700000D01*
X134330964Y-122936500D01*
X133669036Y-122936500D01*
X133669036Y-120700000D01*
X133662906Y-120637759D01*
X133644751Y-120577910D01*
X133615269Y-120522753D01*
X133575593Y-120474407D01*
X133527247Y-120434731D01*
X133472090Y-120405249D01*
X133412241Y-120387094D01*
X133350000Y-120380964D01*
X133063500Y-120380964D01*
X133063500Y-119563500D01*
X134932501Y-119563500D01*
X134932500Y-120380964D01*
G37*
X134932500Y-120380964D02*
X134650000Y-120380964D01*
X134587759Y-120387094D01*
X134527910Y-120405249D01*
X134472753Y-120434731D01*
X134424407Y-120474407D01*
X134384731Y-120522753D01*
X134355249Y-120577910D01*
X134337094Y-120637759D01*
X134330964Y-120700000D01*
X134330964Y-122936500D01*
X133669036Y-122936500D01*
X133669036Y-120700000D01*
X133662906Y-120637759D01*
X133644751Y-120577910D01*
X133615269Y-120522753D01*
X133575593Y-120474407D01*
X133527247Y-120434731D01*
X133472090Y-120405249D01*
X133412241Y-120387094D01*
X133350000Y-120380964D01*
X133063500Y-120380964D01*
X133063500Y-119563500D01*
X134932501Y-119563500D01*
X134932500Y-120380964D01*
G36*
X139932501Y-119585068D02*
G01*
X139932500Y-120380964D01*
X139650000Y-120380964D01*
X139587759Y-120387094D01*
X139527910Y-120405249D01*
X139472753Y-120434731D01*
X139424407Y-120474407D01*
X139384731Y-120522753D01*
X139355249Y-120577910D01*
X139337094Y-120637759D01*
X139330964Y-120700000D01*
X139330964Y-122936500D01*
X138669036Y-122936500D01*
X138669036Y-120700000D01*
X138662906Y-120637759D01*
X138644751Y-120577910D01*
X138615269Y-120522753D01*
X138575593Y-120474407D01*
X138527247Y-120434731D01*
X138472090Y-120405249D01*
X138412241Y-120387094D01*
X138350000Y-120380964D01*
X137650000Y-120380964D01*
X137587759Y-120387094D01*
X137527910Y-120405249D01*
X137472753Y-120434731D01*
X137424407Y-120474407D01*
X137384731Y-120522753D01*
X137355249Y-120577910D01*
X137337094Y-120637759D01*
X137330964Y-120700000D01*
X137330964Y-122936500D01*
X136669036Y-122936500D01*
X136669036Y-120700000D01*
X136662906Y-120637759D01*
X136644751Y-120577910D01*
X136615269Y-120522753D01*
X136575593Y-120474407D01*
X136527247Y-120434731D01*
X136472090Y-120405249D01*
X136412241Y-120387094D01*
X136350000Y-120380964D01*
X136067500Y-120380964D01*
X136067500Y-119563500D01*
X139910933Y-119563500D01*
X139932501Y-119585068D01*
G37*
X139932501Y-119585068D02*
X139932500Y-120380964D01*
X139650000Y-120380964D01*
X139587759Y-120387094D01*
X139527910Y-120405249D01*
X139472753Y-120434731D01*
X139424407Y-120474407D01*
X139384731Y-120522753D01*
X139355249Y-120577910D01*
X139337094Y-120637759D01*
X139330964Y-120700000D01*
X139330964Y-122936500D01*
X138669036Y-122936500D01*
X138669036Y-120700000D01*
X138662906Y-120637759D01*
X138644751Y-120577910D01*
X138615269Y-120522753D01*
X138575593Y-120474407D01*
X138527247Y-120434731D01*
X138472090Y-120405249D01*
X138412241Y-120387094D01*
X138350000Y-120380964D01*
X137650000Y-120380964D01*
X137587759Y-120387094D01*
X137527910Y-120405249D01*
X137472753Y-120434731D01*
X137424407Y-120474407D01*
X137384731Y-120522753D01*
X137355249Y-120577910D01*
X137337094Y-120637759D01*
X137330964Y-120700000D01*
X137330964Y-122936500D01*
X136669036Y-122936500D01*
X136669036Y-120700000D01*
X136662906Y-120637759D01*
X136644751Y-120577910D01*
X136615269Y-120522753D01*
X136575593Y-120474407D01*
X136527247Y-120434731D01*
X136472090Y-120405249D01*
X136412241Y-120387094D01*
X136350000Y-120380964D01*
X136067500Y-120380964D01*
X136067500Y-119563500D01*
X139910933Y-119563500D01*
X139932501Y-119585068D01*
G36*
X143932501Y-120380964D02*
G01*
X143650000Y-120380964D01*
X143587759Y-120387094D01*
X143527910Y-120405249D01*
X143472753Y-120434731D01*
X143424407Y-120474407D01*
X143384731Y-120522753D01*
X143355249Y-120577910D01*
X143337094Y-120637759D01*
X143330964Y-120700000D01*
X143330964Y-122936500D01*
X141669036Y-122936500D01*
X141669036Y-120700000D01*
X141662906Y-120637759D01*
X141644751Y-120577910D01*
X141615269Y-120522753D01*
X141575593Y-120474407D01*
X141527247Y-120434731D01*
X141472090Y-120405249D01*
X141412241Y-120387094D01*
X141350000Y-120380964D01*
X141067500Y-120380964D01*
X141067500Y-119563500D01*
X143932500Y-119563500D01*
X143932501Y-120380964D01*
G37*
X143932501Y-120380964D02*
X143650000Y-120380964D01*
X143587759Y-120387094D01*
X143527910Y-120405249D01*
X143472753Y-120434731D01*
X143424407Y-120474407D01*
X143384731Y-120522753D01*
X143355249Y-120577910D01*
X143337094Y-120637759D01*
X143330964Y-120700000D01*
X143330964Y-122936500D01*
X141669036Y-122936500D01*
X141669036Y-120700000D01*
X141662906Y-120637759D01*
X141644751Y-120577910D01*
X141615269Y-120522753D01*
X141575593Y-120474407D01*
X141527247Y-120434731D01*
X141472090Y-120405249D01*
X141412241Y-120387094D01*
X141350000Y-120380964D01*
X141067500Y-120380964D01*
X141067500Y-119563500D01*
X143932500Y-119563500D01*
X143932501Y-120380964D01*
G36*
X147932500Y-120380964D02*
G01*
X147650000Y-120380964D01*
X147587759Y-120387094D01*
X147527910Y-120405249D01*
X147472753Y-120434731D01*
X147424407Y-120474407D01*
X147384731Y-120522753D01*
X147355249Y-120577910D01*
X147337094Y-120637759D01*
X147330964Y-120700000D01*
X147330964Y-122936500D01*
X145669036Y-122936500D01*
X145669036Y-120700000D01*
X145662906Y-120637759D01*
X145644751Y-120577910D01*
X145615269Y-120522753D01*
X145575593Y-120474407D01*
X145527247Y-120434731D01*
X145472090Y-120405249D01*
X145412241Y-120387094D01*
X145350000Y-120380964D01*
X145067500Y-120380964D01*
X145067500Y-119563500D01*
X147932501Y-119563500D01*
X147932500Y-120380964D01*
G37*
X147932500Y-120380964D02*
X147650000Y-120380964D01*
X147587759Y-120387094D01*
X147527910Y-120405249D01*
X147472753Y-120434731D01*
X147424407Y-120474407D01*
X147384731Y-120522753D01*
X147355249Y-120577910D01*
X147337094Y-120637759D01*
X147330964Y-120700000D01*
X147330964Y-122936500D01*
X145669036Y-122936500D01*
X145669036Y-120700000D01*
X145662906Y-120637759D01*
X145644751Y-120577910D01*
X145615269Y-120522753D01*
X145575593Y-120474407D01*
X145527247Y-120434731D01*
X145472090Y-120405249D01*
X145412241Y-120387094D01*
X145350000Y-120380964D01*
X145067500Y-120380964D01*
X145067500Y-119563500D01*
X147932501Y-119563500D01*
X147932500Y-120380964D01*
G36*
X151119000Y-120054290D02*
G01*
X151117157Y-120073000D01*
X151119000Y-120091710D01*
X151119000Y-120091712D01*
X151124513Y-120147688D01*
X151145574Y-120217116D01*
X151146299Y-120219507D01*
X151181678Y-120285696D01*
X151188512Y-120294023D01*
X151229289Y-120343711D01*
X151243832Y-120355646D01*
X151269150Y-120380964D01*
X150650000Y-120380964D01*
X150587759Y-120387094D01*
X150527910Y-120405249D01*
X150472753Y-120434731D01*
X150424407Y-120474407D01*
X150384731Y-120522753D01*
X150355249Y-120577910D01*
X150337094Y-120637759D01*
X150330964Y-120700000D01*
X150330964Y-122936500D01*
X149669036Y-122936500D01*
X149669036Y-120700000D01*
X149662906Y-120637759D01*
X149644751Y-120577910D01*
X149615269Y-120522753D01*
X149575593Y-120474407D01*
X149527247Y-120434731D01*
X149472090Y-120405249D01*
X149412241Y-120387094D01*
X149350000Y-120380964D01*
X149067500Y-120380964D01*
X149067500Y-119563500D01*
X151119001Y-119563500D01*
X151119000Y-120054290D01*
G37*
X151119000Y-120054290D02*
X151117157Y-120073000D01*
X151119000Y-120091710D01*
X151119000Y-120091712D01*
X151124513Y-120147688D01*
X151145574Y-120217116D01*
X151146299Y-120219507D01*
X151181678Y-120285696D01*
X151188512Y-120294023D01*
X151229289Y-120343711D01*
X151243832Y-120355646D01*
X151269150Y-120380964D01*
X150650000Y-120380964D01*
X150587759Y-120387094D01*
X150527910Y-120405249D01*
X150472753Y-120434731D01*
X150424407Y-120474407D01*
X150384731Y-120522753D01*
X150355249Y-120577910D01*
X150337094Y-120637759D01*
X150330964Y-120700000D01*
X150330964Y-122936500D01*
X149669036Y-122936500D01*
X149669036Y-120700000D01*
X149662906Y-120637759D01*
X149644751Y-120577910D01*
X149615269Y-120522753D01*
X149575593Y-120474407D01*
X149527247Y-120434731D01*
X149472090Y-120405249D01*
X149412241Y-120387094D01*
X149350000Y-120380964D01*
X149067500Y-120380964D01*
X149067500Y-119563500D01*
X151119001Y-119563500D01*
X151119000Y-120054290D01*
G36*
X153630334Y-120382901D02*
G01*
X153587759Y-120387094D01*
X153527910Y-120405249D01*
X153472753Y-120434731D01*
X153424407Y-120474407D01*
X153384731Y-120522753D01*
X153355249Y-120577910D01*
X153337094Y-120637759D01*
X153330964Y-120700000D01*
X153330964Y-122936500D01*
X152669036Y-122936500D01*
X152669036Y-120700000D01*
X152662906Y-120637759D01*
X152644751Y-120577910D01*
X152615269Y-120522753D01*
X152575593Y-120474407D01*
X152527247Y-120434731D01*
X152472090Y-120405249D01*
X152412241Y-120387094D01*
X152350000Y-120380964D01*
X152329366Y-120380964D01*
X152318322Y-120360303D01*
X152282639Y-120316824D01*
X152270711Y-120302289D01*
X152256174Y-120290359D01*
X151881000Y-119915186D01*
X151881000Y-119563500D01*
X152810933Y-119563500D01*
X153630334Y-120382901D01*
G37*
X153630334Y-120382901D02*
X153587759Y-120387094D01*
X153527910Y-120405249D01*
X153472753Y-120434731D01*
X153424407Y-120474407D01*
X153384731Y-120522753D01*
X153355249Y-120577910D01*
X153337094Y-120637759D01*
X153330964Y-120700000D01*
X153330964Y-122936500D01*
X152669036Y-122936500D01*
X152669036Y-120700000D01*
X152662906Y-120637759D01*
X152644751Y-120577910D01*
X152615269Y-120522753D01*
X152575593Y-120474407D01*
X152527247Y-120434731D01*
X152472090Y-120405249D01*
X152412241Y-120387094D01*
X152350000Y-120380964D01*
X152329366Y-120380964D01*
X152318322Y-120360303D01*
X152282639Y-120316824D01*
X152270711Y-120302289D01*
X152256174Y-120290359D01*
X151881000Y-119915186D01*
X151881000Y-119563500D01*
X152810933Y-119563500D01*
X153630334Y-120382901D01*
G36*
X157728398Y-120380964D02*
G01*
X157650000Y-120380964D01*
X157587759Y-120387094D01*
X157527910Y-120405249D01*
X157472753Y-120434731D01*
X157424407Y-120474407D01*
X157384731Y-120522753D01*
X157355249Y-120577910D01*
X157337094Y-120637759D01*
X157330964Y-120700000D01*
X157330964Y-122936500D01*
X155669036Y-122936500D01*
X155669036Y-120700000D01*
X155662906Y-120637759D01*
X155644751Y-120577910D01*
X155615269Y-120522753D01*
X155575593Y-120474407D01*
X155527247Y-120434731D01*
X155472090Y-120405249D01*
X155412241Y-120387094D01*
X155350000Y-120380964D01*
X155067689Y-120380964D01*
X155069253Y-120365085D01*
X155064528Y-120317116D01*
X155062254Y-120294024D01*
X155041526Y-120225692D01*
X155030187Y-120204479D01*
X155007865Y-120162717D01*
X154973911Y-120121344D01*
X154973910Y-120121343D01*
X154962566Y-120107520D01*
X154948743Y-120096176D01*
X154416067Y-119563500D01*
X156910934Y-119563500D01*
X157728398Y-120380964D01*
G37*
X157728398Y-120380964D02*
X157650000Y-120380964D01*
X157587759Y-120387094D01*
X157527910Y-120405249D01*
X157472753Y-120434731D01*
X157424407Y-120474407D01*
X157384731Y-120522753D01*
X157355249Y-120577910D01*
X157337094Y-120637759D01*
X157330964Y-120700000D01*
X157330964Y-122936500D01*
X155669036Y-122936500D01*
X155669036Y-120700000D01*
X155662906Y-120637759D01*
X155644751Y-120577910D01*
X155615269Y-120522753D01*
X155575593Y-120474407D01*
X155527247Y-120434731D01*
X155472090Y-120405249D01*
X155412241Y-120387094D01*
X155350000Y-120380964D01*
X155067689Y-120380964D01*
X155069253Y-120365085D01*
X155064528Y-120317116D01*
X155062254Y-120294024D01*
X155041526Y-120225692D01*
X155030187Y-120204479D01*
X155007865Y-120162717D01*
X154973911Y-120121344D01*
X154973910Y-120121343D01*
X154962566Y-120107520D01*
X154948743Y-120096176D01*
X154416067Y-119563500D01*
X156910934Y-119563500D01*
X157728398Y-120380964D01*
G36*
X161828397Y-120380964D02*
G01*
X161650000Y-120380964D01*
X161587759Y-120387094D01*
X161527910Y-120405249D01*
X161472753Y-120434731D01*
X161424407Y-120474407D01*
X161384731Y-120522753D01*
X161355249Y-120577910D01*
X161337094Y-120637759D01*
X161330964Y-120700000D01*
X161330964Y-122936500D01*
X159669036Y-122936500D01*
X159669036Y-120700000D01*
X159662906Y-120637759D01*
X159644751Y-120577910D01*
X159615269Y-120522753D01*
X159575593Y-120474407D01*
X159527247Y-120434731D01*
X159472090Y-120405249D01*
X159412241Y-120387094D01*
X159350000Y-120380964D01*
X159067500Y-120380964D01*
X159067500Y-120282882D01*
X159069253Y-120265086D01*
X159067500Y-120247288D01*
X159062254Y-120194024D01*
X159041526Y-120125692D01*
X159031813Y-120107520D01*
X159007865Y-120062717D01*
X158982696Y-120032049D01*
X158962566Y-120007520D01*
X158948737Y-119996171D01*
X158516066Y-119563500D01*
X161010933Y-119563500D01*
X161828397Y-120380964D01*
G37*
X161828397Y-120380964D02*
X161650000Y-120380964D01*
X161587759Y-120387094D01*
X161527910Y-120405249D01*
X161472753Y-120434731D01*
X161424407Y-120474407D01*
X161384731Y-120522753D01*
X161355249Y-120577910D01*
X161337094Y-120637759D01*
X161330964Y-120700000D01*
X161330964Y-122936500D01*
X159669036Y-122936500D01*
X159669036Y-120700000D01*
X159662906Y-120637759D01*
X159644751Y-120577910D01*
X159615269Y-120522753D01*
X159575593Y-120474407D01*
X159527247Y-120434731D01*
X159472090Y-120405249D01*
X159412241Y-120387094D01*
X159350000Y-120380964D01*
X159067500Y-120380964D01*
X159067500Y-120282882D01*
X159069253Y-120265086D01*
X159067500Y-120247288D01*
X159062254Y-120194024D01*
X159041526Y-120125692D01*
X159031813Y-120107520D01*
X159007865Y-120062717D01*
X158982696Y-120032049D01*
X158962566Y-120007520D01*
X158948737Y-119996171D01*
X158516066Y-119563500D01*
X161010933Y-119563500D01*
X161828397Y-120380964D01*
G36*
X165928397Y-120380964D02*
G01*
X165650000Y-120380964D01*
X165587759Y-120387094D01*
X165527910Y-120405249D01*
X165472753Y-120434731D01*
X165424407Y-120474407D01*
X165384731Y-120522753D01*
X165355249Y-120577910D01*
X165337094Y-120637759D01*
X165330964Y-120700000D01*
X165330964Y-122936500D01*
X163669036Y-122936500D01*
X163669036Y-120700000D01*
X163662906Y-120637759D01*
X163644751Y-120577910D01*
X163615269Y-120522753D01*
X163575593Y-120474407D01*
X163527247Y-120434731D01*
X163472090Y-120405249D01*
X163412241Y-120387094D01*
X163350000Y-120380964D01*
X163067500Y-120380964D01*
X163067500Y-120182881D01*
X163069253Y-120165085D01*
X163065373Y-120125692D01*
X163062254Y-120094024D01*
X163041526Y-120025692D01*
X163007865Y-119962718D01*
X162962566Y-119907520D01*
X162948737Y-119896171D01*
X162616066Y-119563500D01*
X165110933Y-119563500D01*
X165928397Y-120380964D01*
G37*
X165928397Y-120380964D02*
X165650000Y-120380964D01*
X165587759Y-120387094D01*
X165527910Y-120405249D01*
X165472753Y-120434731D01*
X165424407Y-120474407D01*
X165384731Y-120522753D01*
X165355249Y-120577910D01*
X165337094Y-120637759D01*
X165330964Y-120700000D01*
X165330964Y-122936500D01*
X163669036Y-122936500D01*
X163669036Y-120700000D01*
X163662906Y-120637759D01*
X163644751Y-120577910D01*
X163615269Y-120522753D01*
X163575593Y-120474407D01*
X163527247Y-120434731D01*
X163472090Y-120405249D01*
X163412241Y-120387094D01*
X163350000Y-120380964D01*
X163067500Y-120380964D01*
X163067500Y-120182881D01*
X163069253Y-120165085D01*
X163065373Y-120125692D01*
X163062254Y-120094024D01*
X163041526Y-120025692D01*
X163007865Y-119962718D01*
X162962566Y-119907520D01*
X162948737Y-119896171D01*
X162616066Y-119563500D01*
X165110933Y-119563500D01*
X165928397Y-120380964D01*
G36*
X168619000Y-120384017D02*
G01*
X168587759Y-120387094D01*
X168527910Y-120405249D01*
X168472753Y-120434731D01*
X168424407Y-120474407D01*
X168384731Y-120522753D01*
X168355249Y-120577910D01*
X168337094Y-120637759D01*
X168330964Y-120700000D01*
X168330964Y-122936500D01*
X167669036Y-122936500D01*
X167669036Y-120700000D01*
X167662906Y-120637759D01*
X167644751Y-120577910D01*
X167615269Y-120522753D01*
X167575593Y-120474407D01*
X167527247Y-120434731D01*
X167472090Y-120405249D01*
X167412241Y-120387094D01*
X167350000Y-120380964D01*
X167067500Y-120380964D01*
X167067500Y-120082881D01*
X167069253Y-120065085D01*
X167065373Y-120025692D01*
X167062254Y-119994024D01*
X167041526Y-119925692D01*
X167039202Y-119921344D01*
X167007865Y-119862717D01*
X166973911Y-119821344D01*
X166973910Y-119821343D01*
X166962566Y-119807520D01*
X166948743Y-119796176D01*
X166716067Y-119563500D01*
X168619000Y-119563500D01*
X168619000Y-120384017D01*
G37*
X168619000Y-120384017D02*
X168587759Y-120387094D01*
X168527910Y-120405249D01*
X168472753Y-120434731D01*
X168424407Y-120474407D01*
X168384731Y-120522753D01*
X168355249Y-120577910D01*
X168337094Y-120637759D01*
X168330964Y-120700000D01*
X168330964Y-122936500D01*
X167669036Y-122936500D01*
X167669036Y-120700000D01*
X167662906Y-120637759D01*
X167644751Y-120577910D01*
X167615269Y-120522753D01*
X167575593Y-120474407D01*
X167527247Y-120434731D01*
X167472090Y-120405249D01*
X167412241Y-120387094D01*
X167350000Y-120380964D01*
X167067500Y-120380964D01*
X167067500Y-120082881D01*
X167069253Y-120065085D01*
X167065373Y-120025692D01*
X167062254Y-119994024D01*
X167041526Y-119925692D01*
X167039202Y-119921344D01*
X167007865Y-119862717D01*
X166973911Y-119821344D01*
X166973910Y-119821343D01*
X166962566Y-119807520D01*
X166948743Y-119796176D01*
X166716067Y-119563500D01*
X168619000Y-119563500D01*
X168619000Y-120384017D01*
G36*
X170186500Y-122936500D02*
G01*
X169669036Y-122936500D01*
X169669036Y-120700000D01*
X169662906Y-120637759D01*
X169644751Y-120577910D01*
X169615269Y-120522753D01*
X169575593Y-120474407D01*
X169527247Y-120434731D01*
X169472090Y-120405249D01*
X169412241Y-120387094D01*
X169381000Y-120384017D01*
X169381000Y-119563500D01*
X170186500Y-119563500D01*
X170186500Y-122936500D01*
G37*
X170186500Y-122936500D02*
X169669036Y-122936500D01*
X169669036Y-120700000D01*
X169662906Y-120637759D01*
X169644751Y-120577910D01*
X169615269Y-120522753D01*
X169575593Y-120474407D01*
X169527247Y-120434731D01*
X169472090Y-120405249D01*
X169412241Y-120387094D01*
X169381000Y-120384017D01*
X169381000Y-119563500D01*
X170186500Y-119563500D01*
X170186500Y-122936500D01*
G36*
X126336500Y-120643790D02*
G01*
X126330964Y-120700000D01*
X126330964Y-122936500D01*
X125669036Y-122936500D01*
X125669036Y-120700000D01*
X125662906Y-120637759D01*
X125644751Y-120577910D01*
X125615269Y-120522753D01*
X125575593Y-120474407D01*
X125527247Y-120434731D01*
X125472090Y-120405249D01*
X125412241Y-120387094D01*
X125350000Y-120380964D01*
X124650000Y-120380964D01*
X124587759Y-120387094D01*
X124527910Y-120405249D01*
X124500000Y-120420167D01*
X124472090Y-120405249D01*
X124412241Y-120387094D01*
X124350000Y-120380964D01*
X123650000Y-120380964D01*
X123587759Y-120387094D01*
X123527910Y-120405249D01*
X123472753Y-120434731D01*
X123424407Y-120474407D01*
X123384731Y-120522753D01*
X123355249Y-120577910D01*
X123337094Y-120637759D01*
X123330964Y-120700000D01*
X123330964Y-122936500D01*
X122717500Y-122936500D01*
X122717500Y-119563500D01*
X126336500Y-119563500D01*
X126336500Y-120643790D01*
G37*
X126336500Y-120643790D02*
X126330964Y-120700000D01*
X126330964Y-122936500D01*
X125669036Y-122936500D01*
X125669036Y-120700000D01*
X125662906Y-120637759D01*
X125644751Y-120577910D01*
X125615269Y-120522753D01*
X125575593Y-120474407D01*
X125527247Y-120434731D01*
X125472090Y-120405249D01*
X125412241Y-120387094D01*
X125350000Y-120380964D01*
X124650000Y-120380964D01*
X124587759Y-120387094D01*
X124527910Y-120405249D01*
X124500000Y-120420167D01*
X124472090Y-120405249D01*
X124412241Y-120387094D01*
X124350000Y-120380964D01*
X123650000Y-120380964D01*
X123587759Y-120387094D01*
X123527910Y-120405249D01*
X123472753Y-120434731D01*
X123424407Y-120474407D01*
X123384731Y-120522753D01*
X123355249Y-120577910D01*
X123337094Y-120637759D01*
X123330964Y-120700000D01*
X123330964Y-122936500D01*
X122717500Y-122936500D01*
X122717500Y-119563500D01*
X126336500Y-119563500D01*
X126336500Y-120643790D01*
G36*
X150436500Y-100834254D02*
G01*
X150350000Y-100825735D01*
X149650000Y-100825735D01*
X149537966Y-100836769D01*
X149430238Y-100869448D01*
X149330955Y-100922516D01*
X149243933Y-100993933D01*
X149172516Y-101080955D01*
X149119448Y-101180238D01*
X149086769Y-101287966D01*
X149075735Y-101400000D01*
X149075735Y-103436500D01*
X147924265Y-103436500D01*
X147924265Y-101400000D01*
X147913231Y-101287966D01*
X147880552Y-101180238D01*
X147827484Y-101080955D01*
X147756067Y-100993933D01*
X147669045Y-100922516D01*
X147569762Y-100869448D01*
X147462034Y-100836769D01*
X147350000Y-100825735D01*
X146650000Y-100825735D01*
X146537966Y-100836769D01*
X146500000Y-100848286D01*
X146462034Y-100836769D01*
X146350000Y-100825735D01*
X145650000Y-100825735D01*
X145537966Y-100836769D01*
X145430238Y-100869448D01*
X145330955Y-100922516D01*
X145243933Y-100993933D01*
X145172516Y-101080955D01*
X145119448Y-101180238D01*
X145086769Y-101287966D01*
X145075735Y-101400000D01*
X145075735Y-103436500D01*
X143924265Y-103436500D01*
X143924265Y-101400000D01*
X143913231Y-101287966D01*
X143880552Y-101180238D01*
X143827484Y-101080955D01*
X143756067Y-100993933D01*
X143669045Y-100922516D01*
X143569762Y-100869448D01*
X143462034Y-100836769D01*
X143350000Y-100825735D01*
X142650000Y-100825735D01*
X142537966Y-100836769D01*
X142500000Y-100848286D01*
X142462034Y-100836769D01*
X142350000Y-100825735D01*
X141650000Y-100825735D01*
X141537966Y-100836769D01*
X141430238Y-100869448D01*
X141330955Y-100922516D01*
X141243933Y-100993933D01*
X141172516Y-101080955D01*
X141119448Y-101180238D01*
X141086769Y-101287966D01*
X141075735Y-101400000D01*
X141075735Y-103436500D01*
X139924265Y-103436500D01*
X139924265Y-101400000D01*
X139913231Y-101287966D01*
X139880552Y-101180238D01*
X139827484Y-101080955D01*
X139756067Y-100993933D01*
X139669045Y-100922516D01*
X139569762Y-100869448D01*
X139462034Y-100836769D01*
X139350000Y-100825735D01*
X138650000Y-100825735D01*
X138537966Y-100836769D01*
X138500000Y-100848286D01*
X138462034Y-100836769D01*
X138350000Y-100825735D01*
X137650000Y-100825735D01*
X137537966Y-100836769D01*
X137430238Y-100869448D01*
X137330955Y-100922516D01*
X137243933Y-100993933D01*
X137172516Y-101080955D01*
X137119448Y-101180238D01*
X137086769Y-101287966D01*
X137075735Y-101400000D01*
X137075735Y-103436500D01*
X135924265Y-103436500D01*
X135924265Y-101400000D01*
X135913231Y-101287966D01*
X135880552Y-101180238D01*
X135827484Y-101080955D01*
X135756067Y-100993933D01*
X135669045Y-100922516D01*
X135569762Y-100869448D01*
X135462034Y-100836769D01*
X135350000Y-100825735D01*
X134650000Y-100825735D01*
X134537966Y-100836769D01*
X134500000Y-100848286D01*
X134462034Y-100836769D01*
X134350000Y-100825735D01*
X133650000Y-100825735D01*
X133537966Y-100836769D01*
X133430238Y-100869448D01*
X133330955Y-100922516D01*
X133243933Y-100993933D01*
X133172516Y-101080955D01*
X133119448Y-101180238D01*
X133086769Y-101287966D01*
X133075735Y-101400000D01*
X133075735Y-103436500D01*
X131924265Y-103436500D01*
X131924265Y-101400000D01*
X131913231Y-101287966D01*
X131880552Y-101180238D01*
X131827484Y-101080955D01*
X131756067Y-100993933D01*
X131669045Y-100922516D01*
X131569762Y-100869448D01*
X131462034Y-100836769D01*
X131350000Y-100825735D01*
X130650000Y-100825735D01*
X130537966Y-100836769D01*
X130500000Y-100848286D01*
X130462034Y-100836769D01*
X130350000Y-100825735D01*
X129650000Y-100825735D01*
X129537966Y-100836769D01*
X129430238Y-100869448D01*
X129330955Y-100922516D01*
X129243933Y-100993933D01*
X129172516Y-101080955D01*
X129119448Y-101180238D01*
X129086769Y-101287966D01*
X129075735Y-101400000D01*
X129075735Y-103436500D01*
X127924265Y-103436500D01*
X127924265Y-101400000D01*
X127913231Y-101287966D01*
X127880552Y-101180238D01*
X127827484Y-101080955D01*
X127756067Y-100993933D01*
X127669045Y-100922516D01*
X127569762Y-100869448D01*
X127462034Y-100836769D01*
X127350000Y-100825735D01*
X126650000Y-100825735D01*
X126537966Y-100836769D01*
X126500000Y-100848286D01*
X126462034Y-100836769D01*
X126350000Y-100825735D01*
X125650000Y-100825735D01*
X125537966Y-100836769D01*
X125430238Y-100869448D01*
X125330955Y-100922516D01*
X125243933Y-100993933D01*
X125172516Y-101080955D01*
X125119448Y-101180238D01*
X125086769Y-101287966D01*
X125075735Y-101400000D01*
X125075735Y-103436500D01*
X123924265Y-103436500D01*
X123924265Y-101400000D01*
X123913231Y-101287966D01*
X123880552Y-101180238D01*
X123827484Y-101080955D01*
X123756067Y-100993933D01*
X123669045Y-100922516D01*
X123569762Y-100869448D01*
X123462034Y-100836769D01*
X123350000Y-100825735D01*
X122650000Y-100825735D01*
X122537966Y-100836769D01*
X122500000Y-100848286D01*
X122462034Y-100836769D01*
X122350000Y-100825735D01*
X121650000Y-100825735D01*
X121537966Y-100836769D01*
X121430238Y-100869448D01*
X121330955Y-100922516D01*
X121243933Y-100993933D01*
X121172516Y-101080955D01*
X121119448Y-101180238D01*
X121086769Y-101287966D01*
X121075735Y-101400000D01*
X121075735Y-103436500D01*
X119924265Y-103436500D01*
X119924265Y-101400000D01*
X119913231Y-101287966D01*
X119880552Y-101180238D01*
X119827484Y-101080955D01*
X119756067Y-100993933D01*
X119669045Y-100922516D01*
X119569762Y-100869448D01*
X119462034Y-100836769D01*
X119350000Y-100825735D01*
X118650000Y-100825735D01*
X118537966Y-100836769D01*
X118500000Y-100848286D01*
X118462034Y-100836769D01*
X118350000Y-100825735D01*
X117650000Y-100825735D01*
X117537966Y-100836769D01*
X117430238Y-100869448D01*
X117330955Y-100922516D01*
X117243933Y-100993933D01*
X117172516Y-101080955D01*
X117119448Y-101180238D01*
X117086769Y-101287966D01*
X117075735Y-101400000D01*
X117075735Y-103436500D01*
X116924265Y-103436500D01*
X116924265Y-101400000D01*
X116913231Y-101287966D01*
X116880552Y-101180238D01*
X116827484Y-101080955D01*
X116756067Y-100993933D01*
X116669045Y-100922516D01*
X116569762Y-100869448D01*
X116462034Y-100836769D01*
X116350000Y-100825735D01*
X115650000Y-100825735D01*
X115537966Y-100836769D01*
X115500000Y-100848286D01*
X115462034Y-100836769D01*
X115350000Y-100825735D01*
X114650000Y-100825735D01*
X114537966Y-100836769D01*
X114430238Y-100869448D01*
X114330955Y-100922516D01*
X114243933Y-100993933D01*
X114172516Y-101080955D01*
X114119448Y-101180238D01*
X114086769Y-101287966D01*
X114075735Y-101400000D01*
X114075735Y-103436500D01*
X113924265Y-103436500D01*
X113924265Y-101400000D01*
X113913231Y-101287966D01*
X113880552Y-101180238D01*
X113827484Y-101080955D01*
X113756067Y-100993933D01*
X113669045Y-100922516D01*
X113569762Y-100869448D01*
X113563500Y-100867548D01*
X113563500Y-100631500D01*
X150436500Y-100631500D01*
X150436500Y-100834254D01*
G37*
X150436500Y-100834254D02*
X150350000Y-100825735D01*
X149650000Y-100825735D01*
X149537966Y-100836769D01*
X149430238Y-100869448D01*
X149330955Y-100922516D01*
X149243933Y-100993933D01*
X149172516Y-101080955D01*
X149119448Y-101180238D01*
X149086769Y-101287966D01*
X149075735Y-101400000D01*
X149075735Y-103436500D01*
X147924265Y-103436500D01*
X147924265Y-101400000D01*
X147913231Y-101287966D01*
X147880552Y-101180238D01*
X147827484Y-101080955D01*
X147756067Y-100993933D01*
X147669045Y-100922516D01*
X147569762Y-100869448D01*
X147462034Y-100836769D01*
X147350000Y-100825735D01*
X146650000Y-100825735D01*
X146537966Y-100836769D01*
X146500000Y-100848286D01*
X146462034Y-100836769D01*
X146350000Y-100825735D01*
X145650000Y-100825735D01*
X145537966Y-100836769D01*
X145430238Y-100869448D01*
X145330955Y-100922516D01*
X145243933Y-100993933D01*
X145172516Y-101080955D01*
X145119448Y-101180238D01*
X145086769Y-101287966D01*
X145075735Y-101400000D01*
X145075735Y-103436500D01*
X143924265Y-103436500D01*
X143924265Y-101400000D01*
X143913231Y-101287966D01*
X143880552Y-101180238D01*
X143827484Y-101080955D01*
X143756067Y-100993933D01*
X143669045Y-100922516D01*
X143569762Y-100869448D01*
X143462034Y-100836769D01*
X143350000Y-100825735D01*
X142650000Y-100825735D01*
X142537966Y-100836769D01*
X142500000Y-100848286D01*
X142462034Y-100836769D01*
X142350000Y-100825735D01*
X141650000Y-100825735D01*
X141537966Y-100836769D01*
X141430238Y-100869448D01*
X141330955Y-100922516D01*
X141243933Y-100993933D01*
X141172516Y-101080955D01*
X141119448Y-101180238D01*
X141086769Y-101287966D01*
X141075735Y-101400000D01*
X141075735Y-103436500D01*
X139924265Y-103436500D01*
X139924265Y-101400000D01*
X139913231Y-101287966D01*
X139880552Y-101180238D01*
X139827484Y-101080955D01*
X139756067Y-100993933D01*
X139669045Y-100922516D01*
X139569762Y-100869448D01*
X139462034Y-100836769D01*
X139350000Y-100825735D01*
X138650000Y-100825735D01*
X138537966Y-100836769D01*
X138500000Y-100848286D01*
X138462034Y-100836769D01*
X138350000Y-100825735D01*
X137650000Y-100825735D01*
X137537966Y-100836769D01*
X137430238Y-100869448D01*
X137330955Y-100922516D01*
X137243933Y-100993933D01*
X137172516Y-101080955D01*
X137119448Y-101180238D01*
X137086769Y-101287966D01*
X137075735Y-101400000D01*
X137075735Y-103436500D01*
X135924265Y-103436500D01*
X135924265Y-101400000D01*
X135913231Y-101287966D01*
X135880552Y-101180238D01*
X135827484Y-101080955D01*
X135756067Y-100993933D01*
X135669045Y-100922516D01*
X135569762Y-100869448D01*
X135462034Y-100836769D01*
X135350000Y-100825735D01*
X134650000Y-100825735D01*
X134537966Y-100836769D01*
X134500000Y-100848286D01*
X134462034Y-100836769D01*
X134350000Y-100825735D01*
X133650000Y-100825735D01*
X133537966Y-100836769D01*
X133430238Y-100869448D01*
X133330955Y-100922516D01*
X133243933Y-100993933D01*
X133172516Y-101080955D01*
X133119448Y-101180238D01*
X133086769Y-101287966D01*
X133075735Y-101400000D01*
X133075735Y-103436500D01*
X131924265Y-103436500D01*
X131924265Y-101400000D01*
X131913231Y-101287966D01*
X131880552Y-101180238D01*
X131827484Y-101080955D01*
X131756067Y-100993933D01*
X131669045Y-100922516D01*
X131569762Y-100869448D01*
X131462034Y-100836769D01*
X131350000Y-100825735D01*
X130650000Y-100825735D01*
X130537966Y-100836769D01*
X130500000Y-100848286D01*
X130462034Y-100836769D01*
X130350000Y-100825735D01*
X129650000Y-100825735D01*
X129537966Y-100836769D01*
X129430238Y-100869448D01*
X129330955Y-100922516D01*
X129243933Y-100993933D01*
X129172516Y-101080955D01*
X129119448Y-101180238D01*
X129086769Y-101287966D01*
X129075735Y-101400000D01*
X129075735Y-103436500D01*
X127924265Y-103436500D01*
X127924265Y-101400000D01*
X127913231Y-101287966D01*
X127880552Y-101180238D01*
X127827484Y-101080955D01*
X127756067Y-100993933D01*
X127669045Y-100922516D01*
X127569762Y-100869448D01*
X127462034Y-100836769D01*
X127350000Y-100825735D01*
X126650000Y-100825735D01*
X126537966Y-100836769D01*
X126500000Y-100848286D01*
X126462034Y-100836769D01*
X126350000Y-100825735D01*
X125650000Y-100825735D01*
X125537966Y-100836769D01*
X125430238Y-100869448D01*
X125330955Y-100922516D01*
X125243933Y-100993933D01*
X125172516Y-101080955D01*
X125119448Y-101180238D01*
X125086769Y-101287966D01*
X125075735Y-101400000D01*
X125075735Y-103436500D01*
X123924265Y-103436500D01*
X123924265Y-101400000D01*
X123913231Y-101287966D01*
X123880552Y-101180238D01*
X123827484Y-101080955D01*
X123756067Y-100993933D01*
X123669045Y-100922516D01*
X123569762Y-100869448D01*
X123462034Y-100836769D01*
X123350000Y-100825735D01*
X122650000Y-100825735D01*
X122537966Y-100836769D01*
X122500000Y-100848286D01*
X122462034Y-100836769D01*
X122350000Y-100825735D01*
X121650000Y-100825735D01*
X121537966Y-100836769D01*
X121430238Y-100869448D01*
X121330955Y-100922516D01*
X121243933Y-100993933D01*
X121172516Y-101080955D01*
X121119448Y-101180238D01*
X121086769Y-101287966D01*
X121075735Y-101400000D01*
X121075735Y-103436500D01*
X119924265Y-103436500D01*
X119924265Y-101400000D01*
X119913231Y-101287966D01*
X119880552Y-101180238D01*
X119827484Y-101080955D01*
X119756067Y-100993933D01*
X119669045Y-100922516D01*
X119569762Y-100869448D01*
X119462034Y-100836769D01*
X119350000Y-100825735D01*
X118650000Y-100825735D01*
X118537966Y-100836769D01*
X118500000Y-100848286D01*
X118462034Y-100836769D01*
X118350000Y-100825735D01*
X117650000Y-100825735D01*
X117537966Y-100836769D01*
X117430238Y-100869448D01*
X117330955Y-100922516D01*
X117243933Y-100993933D01*
X117172516Y-101080955D01*
X117119448Y-101180238D01*
X117086769Y-101287966D01*
X117075735Y-101400000D01*
X117075735Y-103436500D01*
X116924265Y-103436500D01*
X116924265Y-101400000D01*
X116913231Y-101287966D01*
X116880552Y-101180238D01*
X116827484Y-101080955D01*
X116756067Y-100993933D01*
X116669045Y-100922516D01*
X116569762Y-100869448D01*
X116462034Y-100836769D01*
X116350000Y-100825735D01*
X115650000Y-100825735D01*
X115537966Y-100836769D01*
X115500000Y-100848286D01*
X115462034Y-100836769D01*
X115350000Y-100825735D01*
X114650000Y-100825735D01*
X114537966Y-100836769D01*
X114430238Y-100869448D01*
X114330955Y-100922516D01*
X114243933Y-100993933D01*
X114172516Y-101080955D01*
X114119448Y-101180238D01*
X114086769Y-101287966D01*
X114075735Y-101400000D01*
X114075735Y-103436500D01*
X113924265Y-103436500D01*
X113924265Y-101400000D01*
X113913231Y-101287966D01*
X113880552Y-101180238D01*
X113827484Y-101080955D01*
X113756067Y-100993933D01*
X113669045Y-100922516D01*
X113569762Y-100869448D01*
X113563500Y-100867548D01*
X113563500Y-100631500D01*
X150436500Y-100631500D01*
X150436500Y-100834254D01*
%TO.N,+12V*%
G36*
X102186500Y-105300000D02*
G01*
X102187720Y-105312388D01*
X102191334Y-105324300D01*
X102197202Y-105335279D01*
X102205099Y-105344901D01*
X102214721Y-105352798D01*
X102225700Y-105358666D01*
X102237612Y-105362280D01*
X102250000Y-105363500D01*
X102986500Y-105363500D01*
X102986500Y-107436500D01*
X100013500Y-107436500D01*
X100013500Y-105363500D01*
X100750000Y-105363500D01*
X100762388Y-105362280D01*
X100774300Y-105358666D01*
X100785279Y-105352798D01*
X100794901Y-105344901D01*
X100802798Y-105335279D01*
X100808666Y-105324300D01*
X100812280Y-105312388D01*
X100813500Y-105300000D01*
X100813500Y-101563500D01*
X102186500Y-101563500D01*
X102186500Y-105300000D01*
G37*
X102186500Y-105300000D02*
X102187720Y-105312388D01*
X102191334Y-105324300D01*
X102197202Y-105335279D01*
X102205099Y-105344901D01*
X102214721Y-105352798D01*
X102225700Y-105358666D01*
X102237612Y-105362280D01*
X102250000Y-105363500D01*
X102986500Y-105363500D01*
X102986500Y-107436500D01*
X100013500Y-107436500D01*
X100013500Y-105363500D01*
X100750000Y-105363500D01*
X100762388Y-105362280D01*
X100774300Y-105358666D01*
X100785279Y-105352798D01*
X100794901Y-105344901D01*
X100802798Y-105335279D01*
X100808666Y-105324300D01*
X100812280Y-105312388D01*
X100813500Y-105300000D01*
X100813500Y-101563500D01*
X102186500Y-101563500D01*
X102186500Y-105300000D01*
G36*
X122336500Y-120643790D02*
G01*
X122330964Y-120700000D01*
X122330964Y-122936500D01*
X119717500Y-122936500D01*
X119717500Y-117881949D01*
X119712182Y-117827957D01*
X119692500Y-117763074D01*
X119692500Y-117213500D01*
X122336500Y-117213500D01*
X122336500Y-120643790D01*
G37*
X122336500Y-120643790D02*
X122330964Y-120700000D01*
X122330964Y-122936500D01*
X119717500Y-122936500D01*
X119717500Y-117881949D01*
X119712182Y-117827957D01*
X119692500Y-117763074D01*
X119692500Y-117213500D01*
X122336500Y-117213500D01*
X122336500Y-120643790D01*
%TO.N,GND*%
G36*
X107436500Y-101094453D02*
G01*
X107412241Y-101087094D01*
X107350000Y-101080964D01*
X106650000Y-101080964D01*
X106587759Y-101087094D01*
X106527910Y-101105249D01*
X106500000Y-101120167D01*
X106472090Y-101105249D01*
X106412241Y-101087094D01*
X106350000Y-101080964D01*
X105650000Y-101080964D01*
X105587759Y-101087094D01*
X105527910Y-101105249D01*
X105472753Y-101134731D01*
X105424407Y-101174407D01*
X105384731Y-101222753D01*
X105355249Y-101277910D01*
X105337094Y-101337759D01*
X105330964Y-101400000D01*
X105330964Y-103379251D01*
X104669036Y-103399937D01*
X104669036Y-101400000D01*
X104662906Y-101337759D01*
X104644751Y-101277910D01*
X104615269Y-101222753D01*
X104575593Y-101174407D01*
X104527247Y-101134731D01*
X104472090Y-101105249D01*
X104412241Y-101087094D01*
X104350000Y-101080964D01*
X103650000Y-101080964D01*
X103587759Y-101087094D01*
X103563500Y-101094453D01*
X103563500Y-100377500D01*
X107436500Y-100377500D01*
X107436500Y-101094453D01*
G37*
X107436500Y-101094453D02*
X107412241Y-101087094D01*
X107350000Y-101080964D01*
X106650000Y-101080964D01*
X106587759Y-101087094D01*
X106527910Y-101105249D01*
X106500000Y-101120167D01*
X106472090Y-101105249D01*
X106412241Y-101087094D01*
X106350000Y-101080964D01*
X105650000Y-101080964D01*
X105587759Y-101087094D01*
X105527910Y-101105249D01*
X105472753Y-101134731D01*
X105424407Y-101174407D01*
X105384731Y-101222753D01*
X105355249Y-101277910D01*
X105337094Y-101337759D01*
X105330964Y-101400000D01*
X105330964Y-103379251D01*
X104669036Y-103399937D01*
X104669036Y-101400000D01*
X104662906Y-101337759D01*
X104644751Y-101277910D01*
X104615269Y-101222753D01*
X104575593Y-101174407D01*
X104527247Y-101134731D01*
X104472090Y-101105249D01*
X104412241Y-101087094D01*
X104350000Y-101080964D01*
X103650000Y-101080964D01*
X103587759Y-101087094D01*
X103563500Y-101094453D01*
X103563500Y-100377500D01*
X107436500Y-100377500D01*
X107436500Y-101094453D01*
%TD*%
M02*
