%TF.GenerationSoftware,KiCad,Pcbnew,5.1.5+dfsg1-2build2*%
%TF.CreationDate,2020-11-04T23:41:29+01:00*%
%TF.ProjectId,HPE_FlexibleLOM_adapter_x4,4850455f-466c-4657-9869-626c654c4f4d,1.0 11.2020*%
%TF.SameCoordinates,Original*%
%TF.FileFunction,Copper,L2,Inr*%
%TF.FilePolarity,Positive*%
%FSLAX46Y46*%
G04 Gerber Fmt 4.6, Leading zero omitted, Abs format (unit mm)*
G04 Created by KiCad (PCBNEW 5.1.5+dfsg1-2build2) date 2020-11-04 23:41:29*
%MOMM*%
%LPD*%
G04 APERTURE LIST*
%TA.AperFunction,ViaPad*%
%ADD10C,7.000000*%
%TD*%
%TA.AperFunction,ViaPad*%
%ADD11C,0.800000*%
%TD*%
%TA.AperFunction,ViaPad*%
%ADD12C,0.450000*%
%TD*%
%TA.AperFunction,Conductor*%
%ADD13C,0.127000*%
%TD*%
G04 APERTURE END LIST*
D10*
%TO.N,N/C*%
%TO.C,REF\002A\002A*%
X79200000Y-104750000D03*
D11*
X81825000Y-104750000D03*
X81056155Y-106606155D03*
X79200000Y-107375000D03*
X77343845Y-106606155D03*
X76575000Y-104750000D03*
X77343845Y-102893845D03*
X79200000Y-102125000D03*
X81056155Y-102893845D03*
%TD*%
D12*
%TO.N,/TX7-*%
X164297237Y-117402763D03*
%TO.N,/TX7+*%
X163752763Y-117947237D03*
%TO.N,/TX6-*%
X160197237Y-117402763D03*
%TO.N,/TX0-*%
X135885000Y-118900000D03*
%TO.N,/TX0+*%
X135115000Y-118900000D03*
%TO.N,+3V3*%
X114000000Y-108000000D03*
%TO.N,+12V*%
X121999999Y-118400000D03*
X120500000Y-118400000D03*
X121250000Y-118400000D03*
X120500000Y-120000000D03*
X122000000Y-120000000D03*
X122000000Y-119200000D03*
X121250000Y-117600000D03*
X122000000Y-117600000D03*
X121249999Y-120000000D03*
X121250000Y-119200000D03*
X120500000Y-117600000D03*
X120500000Y-119200000D03*
X100300000Y-105650000D03*
X100300001Y-107150000D03*
X100300000Y-106399999D03*
X102700000Y-107150000D03*
X102700000Y-105650000D03*
X102700000Y-106400000D03*
X101900000Y-105650000D03*
X101900000Y-106400000D03*
X101900000Y-107150000D03*
X101100000Y-107150000D03*
X101100000Y-106400000D03*
X101100000Y-105650000D03*
%TO.N,/RX0-*%
X137272237Y-117627763D03*
%TO.N,/RX0+*%
X136727763Y-118172237D03*
%TO.N,/RX1+*%
X140602763Y-117947237D03*
%TO.N,/RX1-*%
X141147237Y-117402763D03*
%TO.N,/RX2+*%
X144727763Y-117972237D03*
%TO.N,/RX2-*%
X145272237Y-117427763D03*
%TO.N,/RX3+*%
X148802763Y-117947237D03*
%TO.N,/RX3-*%
X149347237Y-117402763D03*
%TO.N,/TX1+*%
X138552763Y-117947237D03*
%TO.N,/TX1-*%
X139097237Y-117402763D03*
%TO.N,/TX2+*%
X142677763Y-117947237D03*
%TO.N,/TX2-*%
X143222237Y-117402763D03*
%TO.N,/TX3+*%
X146752763Y-117947237D03*
%TO.N,/TX3-*%
X147297237Y-117402763D03*
%TO.N,/RX4+*%
X153502763Y-117947237D03*
%TO.N,/RX4-*%
X154047237Y-117402763D03*
%TO.N,/RX5+*%
X157577763Y-117947237D03*
%TO.N,/RX5-*%
X158122237Y-117402763D03*
%TO.N,/RX6+*%
X161702763Y-117947237D03*
%TO.N,/RX6-*%
X162247237Y-117402763D03*
%TO.N,/RX7+*%
X165802763Y-117947237D03*
%TO.N,/RX7-*%
X166347237Y-117402763D03*
%TO.N,/TX4+*%
X151452763Y-117947237D03*
%TO.N,/TX4-*%
X151997237Y-117402763D03*
%TO.N,/TX5+*%
X155552763Y-117947237D03*
%TO.N,/TX5-*%
X156097237Y-117402763D03*
%TO.N,/TX6+*%
X159652763Y-117947237D03*
%TO.N,Net-(J1-PadA1)*%
X104750000Y-111250000D03*
%TO.N,GND*%
X124050000Y-113700000D03*
X155300000Y-120200000D03*
X157300000Y-120200000D03*
X161300000Y-120200000D03*
X133300000Y-119800000D03*
X136600000Y-119800000D03*
X139400000Y-119800000D03*
X138500000Y-119800000D03*
X141600000Y-119800000D03*
X143400000Y-119800000D03*
X145600000Y-119800000D03*
X147400000Y-119800000D03*
X149600000Y-119800000D03*
X152300000Y-119800000D03*
X169700000Y-119800000D03*
X167400000Y-120100000D03*
X165300000Y-120200000D03*
X159300000Y-120200000D03*
X123000000Y-120000000D03*
X126000000Y-120000000D03*
X125000000Y-120000000D03*
X124000000Y-120000000D03*
X134000000Y-101000000D03*
X135000000Y-101000000D03*
X131000000Y-101000000D03*
X130000000Y-101000000D03*
X126000000Y-101000000D03*
X127000000Y-101000000D03*
X123000000Y-101000000D03*
X122000000Y-101000000D03*
X119000000Y-101000000D03*
X116000000Y-101000000D03*
X114000000Y-101000000D03*
X138000000Y-101000000D03*
X139000000Y-101000000D03*
X142000000Y-101000000D03*
X143000000Y-101000000D03*
X146000000Y-101000000D03*
X147000000Y-101000000D03*
X150000000Y-101000000D03*
X107000000Y-100750000D03*
X104000000Y-100750000D03*
X106000000Y-100750000D03*
X105000000Y-100750000D03*
X121000000Y-101000000D03*
X120000000Y-101000000D03*
X117000000Y-101000000D03*
X124000000Y-101000000D03*
X125000000Y-101000000D03*
X128000000Y-101000000D03*
X129000000Y-101000000D03*
X132000000Y-101000000D03*
X133000000Y-101000000D03*
X136000000Y-101000000D03*
X137000000Y-101000000D03*
X140000000Y-101000000D03*
X141000000Y-101000000D03*
X144000000Y-101000000D03*
X145000000Y-101000000D03*
X148000000Y-101000000D03*
X149000000Y-101000000D03*
X110000000Y-100500000D03*
X113000000Y-100500000D03*
X92500000Y-100500000D03*
X92000000Y-101000000D03*
X99250000Y-113000000D03*
X94500000Y-113000000D03*
X119500000Y-105500000D03*
X121500000Y-105500000D03*
X123500000Y-105500000D03*
X125500000Y-105500000D03*
X127500000Y-105500000D03*
X129500000Y-105500000D03*
X131500000Y-105500000D03*
X133500000Y-105500000D03*
X135500000Y-105500000D03*
X137500000Y-105500000D03*
X139500000Y-105500000D03*
X141500000Y-105500000D03*
X143500000Y-105500000D03*
X145500000Y-105500000D03*
X147500000Y-105500000D03*
X157500000Y-100500000D03*
X167500000Y-111250000D03*
X170000000Y-113750000D03*
X133500000Y-108500000D03*
X135500000Y-108500000D03*
X153750000Y-108500000D03*
X119000000Y-108500000D03*
X139750000Y-108500000D03*
X129500000Y-108500000D03*
X158000000Y-107500000D03*
X161750000Y-111250000D03*
X144100000Y-113700000D03*
X137900000Y-113700000D03*
X132850000Y-113700000D03*
X113000000Y-106250000D03*
X110000000Y-106250000D03*
X117750000Y-107250000D03*
X158000000Y-101000000D03*
X88050000Y-112100000D03*
X86000000Y-106150000D03*
X83250000Y-101450000D03*
X75300000Y-101050000D03*
X75300000Y-107100000D03*
X80500000Y-109350000D03*
X84900000Y-108500000D03*
X78400000Y-111650000D03*
X89100000Y-101150000D03*
X91500000Y-107000000D03*
%TO.N,/PRSNT_x4*%
X151500000Y-119000000D03*
X106050000Y-111250000D03*
%TO.N,/PRSNT_x8*%
X162750000Y-112000000D03*
X107150000Y-106150000D03*
%TD*%
D13*
%TO.N,/PRSNT_x8*%
X162750000Y-112000000D02*
X159400000Y-112000000D01*
X108000000Y-107000000D02*
X107150000Y-106150000D01*
X112700000Y-107000000D02*
X108000000Y-107000000D01*
X159400000Y-112000000D02*
X155350000Y-107950000D01*
X155350000Y-107950000D02*
X155300000Y-107900000D01*
X155300000Y-107900000D02*
X115700000Y-107900000D01*
X114800000Y-107000000D02*
X112700000Y-107000000D01*
X115700000Y-107900000D02*
X114800000Y-107000000D01*
%TD*%
%TO.N,GND*%
G36*
X157652176Y-100231454D02*
G01*
X157798555Y-100275648D01*
X157933563Y-100347433D01*
X158052059Y-100444077D01*
X158149525Y-100561893D01*
X158222248Y-100696392D01*
X158267465Y-100842466D01*
X158284500Y-101004537D01*
X158284501Y-107710579D01*
X158284537Y-107710940D01*
X158284574Y-107721695D01*
X158285526Y-107731064D01*
X158285460Y-107740475D01*
X158285754Y-107743470D01*
X158346954Y-108325759D01*
X158350888Y-108344923D01*
X158354542Y-108364079D01*
X158355409Y-108366949D01*
X158355411Y-108366959D01*
X158355415Y-108366968D01*
X158528549Y-108926273D01*
X158536122Y-108944290D01*
X158543434Y-108962387D01*
X158544845Y-108965040D01*
X158544847Y-108965045D01*
X158544850Y-108965049D01*
X158823323Y-109480076D01*
X158834256Y-109496285D01*
X158844940Y-109512612D01*
X158846841Y-109514944D01*
X159220051Y-109966077D01*
X159233920Y-109979849D01*
X159247576Y-109993794D01*
X159249889Y-109995707D01*
X159249895Y-109995713D01*
X159249902Y-109995717D01*
X159703623Y-110365765D01*
X159719901Y-110376580D01*
X159736007Y-110387608D01*
X159738646Y-110389035D01*
X159738654Y-110389040D01*
X159738662Y-110389043D01*
X160255618Y-110663913D01*
X160273654Y-110671347D01*
X160291628Y-110679051D01*
X160294497Y-110679938D01*
X160294504Y-110679941D01*
X160294511Y-110679942D01*
X160855011Y-110849167D01*
X160874151Y-110852957D01*
X160893275Y-110857022D01*
X160896257Y-110857335D01*
X160896268Y-110857337D01*
X160896278Y-110857337D01*
X161478970Y-110914471D01*
X161478974Y-110914471D01*
X161489421Y-110915500D01*
X167639465Y-110915500D01*
X168190645Y-110969544D01*
X168710696Y-111126556D01*
X169190349Y-111381592D01*
X169611325Y-111724933D01*
X169957600Y-112143508D01*
X170215976Y-112621364D01*
X170376616Y-113140307D01*
X170434466Y-113690725D01*
X170434501Y-113700750D01*
X170434500Y-117792989D01*
X170426733Y-117807521D01*
X170412980Y-117852855D01*
X170409500Y-117888192D01*
X170409501Y-125700381D01*
X170050383Y-126059500D01*
X133049618Y-126059500D01*
X132690500Y-125700383D01*
X132690500Y-118859077D01*
X134699500Y-118859077D01*
X134699500Y-118940923D01*
X134715468Y-119021197D01*
X134746789Y-119096813D01*
X134792260Y-119164866D01*
X134850134Y-119222740D01*
X134918187Y-119268211D01*
X134993803Y-119299532D01*
X135074077Y-119315500D01*
X135155923Y-119315500D01*
X135236197Y-119299532D01*
X135311813Y-119268211D01*
X135379866Y-119222740D01*
X135437740Y-119164866D01*
X135483211Y-119096813D01*
X135500000Y-119056281D01*
X135516789Y-119096813D01*
X135562260Y-119164866D01*
X135620134Y-119222740D01*
X135688187Y-119268211D01*
X135763803Y-119299532D01*
X135844077Y-119315500D01*
X135925923Y-119315500D01*
X136006197Y-119299532D01*
X136081813Y-119268211D01*
X136149866Y-119222740D01*
X136207740Y-119164866D01*
X136253211Y-119096813D01*
X136284532Y-119021197D01*
X136296888Y-118959077D01*
X151084500Y-118959077D01*
X151084500Y-119040923D01*
X151100468Y-119121197D01*
X151131789Y-119196813D01*
X151177260Y-119264866D01*
X151235134Y-119322740D01*
X151303187Y-119368211D01*
X151378803Y-119399532D01*
X151459077Y-119415500D01*
X151540923Y-119415500D01*
X151621197Y-119399532D01*
X151696813Y-119368211D01*
X151764866Y-119322740D01*
X151822740Y-119264866D01*
X151868211Y-119196813D01*
X151899532Y-119121197D01*
X151915500Y-119040923D01*
X151915500Y-118959077D01*
X151899532Y-118878803D01*
X151868211Y-118803187D01*
X151822740Y-118735134D01*
X151764866Y-118677260D01*
X151696813Y-118631789D01*
X151621197Y-118600468D01*
X151540923Y-118584500D01*
X151459077Y-118584500D01*
X151378803Y-118600468D01*
X151303187Y-118631789D01*
X151235134Y-118677260D01*
X151177260Y-118735134D01*
X151131789Y-118803187D01*
X151100468Y-118878803D01*
X151084500Y-118959077D01*
X136296888Y-118959077D01*
X136300500Y-118940923D01*
X136300500Y-118859077D01*
X136284532Y-118778803D01*
X136253211Y-118703187D01*
X136207740Y-118635134D01*
X136149866Y-118577260D01*
X136081813Y-118531789D01*
X136006197Y-118500468D01*
X135925923Y-118484500D01*
X135844077Y-118484500D01*
X135763803Y-118500468D01*
X135688187Y-118531789D01*
X135620134Y-118577260D01*
X135562260Y-118635134D01*
X135516789Y-118703187D01*
X135500000Y-118743719D01*
X135483211Y-118703187D01*
X135437740Y-118635134D01*
X135379866Y-118577260D01*
X135311813Y-118531789D01*
X135236197Y-118500468D01*
X135155923Y-118484500D01*
X135074077Y-118484500D01*
X134993803Y-118500468D01*
X134918187Y-118531789D01*
X134850134Y-118577260D01*
X134792260Y-118635134D01*
X134746789Y-118703187D01*
X134715468Y-118778803D01*
X134699500Y-118859077D01*
X132690500Y-118859077D01*
X132690500Y-118838191D01*
X132690417Y-118837349D01*
X132690401Y-118835050D01*
X132689260Y-118824194D01*
X132689260Y-118813267D01*
X132688908Y-118809927D01*
X132668241Y-118625676D01*
X132663708Y-118604349D01*
X132659476Y-118582973D01*
X132658483Y-118579765D01*
X132602422Y-118403036D01*
X132593818Y-118382960D01*
X132585528Y-118362847D01*
X132583931Y-118359893D01*
X132494610Y-118197419D01*
X132482283Y-118179416D01*
X132470232Y-118161277D01*
X132468091Y-118158690D01*
X132445120Y-118131314D01*
X136312263Y-118131314D01*
X136312263Y-118213160D01*
X136328231Y-118293434D01*
X136359552Y-118369050D01*
X136405023Y-118437103D01*
X136462897Y-118494977D01*
X136530950Y-118540448D01*
X136606566Y-118571769D01*
X136686840Y-118587737D01*
X136768686Y-118587737D01*
X136848960Y-118571769D01*
X136924576Y-118540448D01*
X136992629Y-118494977D01*
X137050503Y-118437103D01*
X137095974Y-118369050D01*
X137127295Y-118293434D01*
X137143263Y-118213160D01*
X137143263Y-118131314D01*
X137127295Y-118051040D01*
X137110505Y-118010505D01*
X137151040Y-118027295D01*
X137231314Y-118043263D01*
X137313160Y-118043263D01*
X137393434Y-118027295D01*
X137469050Y-117995974D01*
X137537103Y-117950503D01*
X137581292Y-117906314D01*
X138137263Y-117906314D01*
X138137263Y-117988160D01*
X138153231Y-118068434D01*
X138184552Y-118144050D01*
X138230023Y-118212103D01*
X138287897Y-118269977D01*
X138355950Y-118315448D01*
X138431566Y-118346769D01*
X138511840Y-118362737D01*
X138593686Y-118362737D01*
X138673960Y-118346769D01*
X138749576Y-118315448D01*
X138817629Y-118269977D01*
X138875503Y-118212103D01*
X138920974Y-118144050D01*
X138952295Y-118068434D01*
X138968263Y-117988160D01*
X138968263Y-117906314D01*
X140187263Y-117906314D01*
X140187263Y-117988160D01*
X140203231Y-118068434D01*
X140234552Y-118144050D01*
X140280023Y-118212103D01*
X140337897Y-118269977D01*
X140405950Y-118315448D01*
X140481566Y-118346769D01*
X140561840Y-118362737D01*
X140643686Y-118362737D01*
X140723960Y-118346769D01*
X140799576Y-118315448D01*
X140867629Y-118269977D01*
X140925503Y-118212103D01*
X140970974Y-118144050D01*
X141002295Y-118068434D01*
X141018263Y-117988160D01*
X141018263Y-117906314D01*
X142262263Y-117906314D01*
X142262263Y-117988160D01*
X142278231Y-118068434D01*
X142309552Y-118144050D01*
X142355023Y-118212103D01*
X142412897Y-118269977D01*
X142480950Y-118315448D01*
X142556566Y-118346769D01*
X142636840Y-118362737D01*
X142718686Y-118362737D01*
X142798960Y-118346769D01*
X142874576Y-118315448D01*
X142942629Y-118269977D01*
X143000503Y-118212103D01*
X143045974Y-118144050D01*
X143077295Y-118068434D01*
X143093263Y-117988160D01*
X143093263Y-117931314D01*
X144312263Y-117931314D01*
X144312263Y-118013160D01*
X144328231Y-118093434D01*
X144359552Y-118169050D01*
X144405023Y-118237103D01*
X144462897Y-118294977D01*
X144530950Y-118340448D01*
X144606566Y-118371769D01*
X144686840Y-118387737D01*
X144768686Y-118387737D01*
X144848960Y-118371769D01*
X144924576Y-118340448D01*
X144992629Y-118294977D01*
X145050503Y-118237103D01*
X145095974Y-118169050D01*
X145127295Y-118093434D01*
X145143263Y-118013160D01*
X145143263Y-117931314D01*
X145138291Y-117906314D01*
X146337263Y-117906314D01*
X146337263Y-117988160D01*
X146353231Y-118068434D01*
X146384552Y-118144050D01*
X146430023Y-118212103D01*
X146487897Y-118269977D01*
X146555950Y-118315448D01*
X146631566Y-118346769D01*
X146711840Y-118362737D01*
X146793686Y-118362737D01*
X146873960Y-118346769D01*
X146949576Y-118315448D01*
X147017629Y-118269977D01*
X147075503Y-118212103D01*
X147120974Y-118144050D01*
X147152295Y-118068434D01*
X147168263Y-117988160D01*
X147168263Y-117906314D01*
X148387263Y-117906314D01*
X148387263Y-117988160D01*
X148403231Y-118068434D01*
X148434552Y-118144050D01*
X148480023Y-118212103D01*
X148537897Y-118269977D01*
X148605950Y-118315448D01*
X148681566Y-118346769D01*
X148761840Y-118362737D01*
X148843686Y-118362737D01*
X148923960Y-118346769D01*
X148999576Y-118315448D01*
X149067629Y-118269977D01*
X149125503Y-118212103D01*
X149170974Y-118144050D01*
X149202295Y-118068434D01*
X149218263Y-117988160D01*
X149218263Y-117906314D01*
X151037263Y-117906314D01*
X151037263Y-117988160D01*
X151053231Y-118068434D01*
X151084552Y-118144050D01*
X151130023Y-118212103D01*
X151187897Y-118269977D01*
X151255950Y-118315448D01*
X151331566Y-118346769D01*
X151411840Y-118362737D01*
X151493686Y-118362737D01*
X151573960Y-118346769D01*
X151649576Y-118315448D01*
X151717629Y-118269977D01*
X151775503Y-118212103D01*
X151820974Y-118144050D01*
X151852295Y-118068434D01*
X151868263Y-117988160D01*
X151868263Y-117906314D01*
X153087263Y-117906314D01*
X153087263Y-117988160D01*
X153103231Y-118068434D01*
X153134552Y-118144050D01*
X153180023Y-118212103D01*
X153237897Y-118269977D01*
X153305950Y-118315448D01*
X153381566Y-118346769D01*
X153461840Y-118362737D01*
X153543686Y-118362737D01*
X153623960Y-118346769D01*
X153699576Y-118315448D01*
X153767629Y-118269977D01*
X153825503Y-118212103D01*
X153870974Y-118144050D01*
X153902295Y-118068434D01*
X153918263Y-117988160D01*
X153918263Y-117906314D01*
X155137263Y-117906314D01*
X155137263Y-117988160D01*
X155153231Y-118068434D01*
X155184552Y-118144050D01*
X155230023Y-118212103D01*
X155287897Y-118269977D01*
X155355950Y-118315448D01*
X155431566Y-118346769D01*
X155511840Y-118362737D01*
X155593686Y-118362737D01*
X155673960Y-118346769D01*
X155749576Y-118315448D01*
X155817629Y-118269977D01*
X155875503Y-118212103D01*
X155920974Y-118144050D01*
X155952295Y-118068434D01*
X155968263Y-117988160D01*
X155968263Y-117906314D01*
X157162263Y-117906314D01*
X157162263Y-117988160D01*
X157178231Y-118068434D01*
X157209552Y-118144050D01*
X157255023Y-118212103D01*
X157312897Y-118269977D01*
X157380950Y-118315448D01*
X157456566Y-118346769D01*
X157536840Y-118362737D01*
X157618686Y-118362737D01*
X157698960Y-118346769D01*
X157774576Y-118315448D01*
X157842629Y-118269977D01*
X157900503Y-118212103D01*
X157945974Y-118144050D01*
X157977295Y-118068434D01*
X157993263Y-117988160D01*
X157993263Y-117906314D01*
X159237263Y-117906314D01*
X159237263Y-117988160D01*
X159253231Y-118068434D01*
X159284552Y-118144050D01*
X159330023Y-118212103D01*
X159387897Y-118269977D01*
X159455950Y-118315448D01*
X159531566Y-118346769D01*
X159611840Y-118362737D01*
X159693686Y-118362737D01*
X159773960Y-118346769D01*
X159849576Y-118315448D01*
X159917629Y-118269977D01*
X159975503Y-118212103D01*
X160020974Y-118144050D01*
X160052295Y-118068434D01*
X160068263Y-117988160D01*
X160068263Y-117906314D01*
X161287263Y-117906314D01*
X161287263Y-117988160D01*
X161303231Y-118068434D01*
X161334552Y-118144050D01*
X161380023Y-118212103D01*
X161437897Y-118269977D01*
X161505950Y-118315448D01*
X161581566Y-118346769D01*
X161661840Y-118362737D01*
X161743686Y-118362737D01*
X161823960Y-118346769D01*
X161899576Y-118315448D01*
X161967629Y-118269977D01*
X162025503Y-118212103D01*
X162070974Y-118144050D01*
X162102295Y-118068434D01*
X162118263Y-117988160D01*
X162118263Y-117906314D01*
X163337263Y-117906314D01*
X163337263Y-117988160D01*
X163353231Y-118068434D01*
X163384552Y-118144050D01*
X163430023Y-118212103D01*
X163487897Y-118269977D01*
X163555950Y-118315448D01*
X163631566Y-118346769D01*
X163711840Y-118362737D01*
X163793686Y-118362737D01*
X163873960Y-118346769D01*
X163949576Y-118315448D01*
X164017629Y-118269977D01*
X164075503Y-118212103D01*
X164120974Y-118144050D01*
X164152295Y-118068434D01*
X164168263Y-117988160D01*
X164168263Y-117906314D01*
X165387263Y-117906314D01*
X165387263Y-117988160D01*
X165403231Y-118068434D01*
X165434552Y-118144050D01*
X165480023Y-118212103D01*
X165537897Y-118269977D01*
X165605950Y-118315448D01*
X165681566Y-118346769D01*
X165761840Y-118362737D01*
X165843686Y-118362737D01*
X165923960Y-118346769D01*
X165999576Y-118315448D01*
X166067629Y-118269977D01*
X166125503Y-118212103D01*
X166170974Y-118144050D01*
X166202295Y-118068434D01*
X166218263Y-117988160D01*
X166218263Y-117906314D01*
X166202295Y-117826040D01*
X166185505Y-117785505D01*
X166226040Y-117802295D01*
X166306314Y-117818263D01*
X166388160Y-117818263D01*
X166468434Y-117802295D01*
X166544050Y-117770974D01*
X166612103Y-117725503D01*
X166669977Y-117667629D01*
X166715448Y-117599576D01*
X166746769Y-117523960D01*
X166762737Y-117443686D01*
X166762737Y-117361840D01*
X166746769Y-117281566D01*
X166715448Y-117205950D01*
X166669977Y-117137897D01*
X166612103Y-117080023D01*
X166544050Y-117034552D01*
X166468434Y-117003231D01*
X166388160Y-116987263D01*
X166306314Y-116987263D01*
X166226040Y-117003231D01*
X166150424Y-117034552D01*
X166082371Y-117080023D01*
X166024497Y-117137897D01*
X165979026Y-117205950D01*
X165947705Y-117281566D01*
X165931737Y-117361840D01*
X165931737Y-117443686D01*
X165947705Y-117523960D01*
X165964495Y-117564495D01*
X165923960Y-117547705D01*
X165843686Y-117531737D01*
X165761840Y-117531737D01*
X165681566Y-117547705D01*
X165605950Y-117579026D01*
X165537897Y-117624497D01*
X165480023Y-117682371D01*
X165434552Y-117750424D01*
X165403231Y-117826040D01*
X165387263Y-117906314D01*
X164168263Y-117906314D01*
X164152295Y-117826040D01*
X164135505Y-117785505D01*
X164176040Y-117802295D01*
X164256314Y-117818263D01*
X164338160Y-117818263D01*
X164418434Y-117802295D01*
X164494050Y-117770974D01*
X164562103Y-117725503D01*
X164619977Y-117667629D01*
X164665448Y-117599576D01*
X164696769Y-117523960D01*
X164712737Y-117443686D01*
X164712737Y-117361840D01*
X164696769Y-117281566D01*
X164665448Y-117205950D01*
X164619977Y-117137897D01*
X164562103Y-117080023D01*
X164494050Y-117034552D01*
X164418434Y-117003231D01*
X164338160Y-116987263D01*
X164256314Y-116987263D01*
X164176040Y-117003231D01*
X164100424Y-117034552D01*
X164032371Y-117080023D01*
X163974497Y-117137897D01*
X163929026Y-117205950D01*
X163897705Y-117281566D01*
X163881737Y-117361840D01*
X163881737Y-117443686D01*
X163897705Y-117523960D01*
X163914495Y-117564495D01*
X163873960Y-117547705D01*
X163793686Y-117531737D01*
X163711840Y-117531737D01*
X163631566Y-117547705D01*
X163555950Y-117579026D01*
X163487897Y-117624497D01*
X163430023Y-117682371D01*
X163384552Y-117750424D01*
X163353231Y-117826040D01*
X163337263Y-117906314D01*
X162118263Y-117906314D01*
X162102295Y-117826040D01*
X162085505Y-117785505D01*
X162126040Y-117802295D01*
X162206314Y-117818263D01*
X162288160Y-117818263D01*
X162368434Y-117802295D01*
X162444050Y-117770974D01*
X162512103Y-117725503D01*
X162569977Y-117667629D01*
X162615448Y-117599576D01*
X162646769Y-117523960D01*
X162662737Y-117443686D01*
X162662737Y-117361840D01*
X162646769Y-117281566D01*
X162615448Y-117205950D01*
X162569977Y-117137897D01*
X162512103Y-117080023D01*
X162444050Y-117034552D01*
X162368434Y-117003231D01*
X162288160Y-116987263D01*
X162206314Y-116987263D01*
X162126040Y-117003231D01*
X162050424Y-117034552D01*
X161982371Y-117080023D01*
X161924497Y-117137897D01*
X161879026Y-117205950D01*
X161847705Y-117281566D01*
X161831737Y-117361840D01*
X161831737Y-117443686D01*
X161847705Y-117523960D01*
X161864495Y-117564495D01*
X161823960Y-117547705D01*
X161743686Y-117531737D01*
X161661840Y-117531737D01*
X161581566Y-117547705D01*
X161505950Y-117579026D01*
X161437897Y-117624497D01*
X161380023Y-117682371D01*
X161334552Y-117750424D01*
X161303231Y-117826040D01*
X161287263Y-117906314D01*
X160068263Y-117906314D01*
X160052295Y-117826040D01*
X160035505Y-117785505D01*
X160076040Y-117802295D01*
X160156314Y-117818263D01*
X160238160Y-117818263D01*
X160318434Y-117802295D01*
X160394050Y-117770974D01*
X160462103Y-117725503D01*
X160519977Y-117667629D01*
X160565448Y-117599576D01*
X160596769Y-117523960D01*
X160612737Y-117443686D01*
X160612737Y-117361840D01*
X160596769Y-117281566D01*
X160565448Y-117205950D01*
X160519977Y-117137897D01*
X160462103Y-117080023D01*
X160394050Y-117034552D01*
X160318434Y-117003231D01*
X160238160Y-116987263D01*
X160156314Y-116987263D01*
X160076040Y-117003231D01*
X160000424Y-117034552D01*
X159932371Y-117080023D01*
X159874497Y-117137897D01*
X159829026Y-117205950D01*
X159797705Y-117281566D01*
X159781737Y-117361840D01*
X159781737Y-117443686D01*
X159797705Y-117523960D01*
X159814495Y-117564495D01*
X159773960Y-117547705D01*
X159693686Y-117531737D01*
X159611840Y-117531737D01*
X159531566Y-117547705D01*
X159455950Y-117579026D01*
X159387897Y-117624497D01*
X159330023Y-117682371D01*
X159284552Y-117750424D01*
X159253231Y-117826040D01*
X159237263Y-117906314D01*
X157993263Y-117906314D01*
X157977295Y-117826040D01*
X157960505Y-117785505D01*
X158001040Y-117802295D01*
X158081314Y-117818263D01*
X158163160Y-117818263D01*
X158243434Y-117802295D01*
X158319050Y-117770974D01*
X158387103Y-117725503D01*
X158444977Y-117667629D01*
X158490448Y-117599576D01*
X158521769Y-117523960D01*
X158537737Y-117443686D01*
X158537737Y-117361840D01*
X158521769Y-117281566D01*
X158490448Y-117205950D01*
X158444977Y-117137897D01*
X158387103Y-117080023D01*
X158319050Y-117034552D01*
X158243434Y-117003231D01*
X158163160Y-116987263D01*
X158081314Y-116987263D01*
X158001040Y-117003231D01*
X157925424Y-117034552D01*
X157857371Y-117080023D01*
X157799497Y-117137897D01*
X157754026Y-117205950D01*
X157722705Y-117281566D01*
X157706737Y-117361840D01*
X157706737Y-117443686D01*
X157722705Y-117523960D01*
X157739495Y-117564495D01*
X157698960Y-117547705D01*
X157618686Y-117531737D01*
X157536840Y-117531737D01*
X157456566Y-117547705D01*
X157380950Y-117579026D01*
X157312897Y-117624497D01*
X157255023Y-117682371D01*
X157209552Y-117750424D01*
X157178231Y-117826040D01*
X157162263Y-117906314D01*
X155968263Y-117906314D01*
X155952295Y-117826040D01*
X155935505Y-117785505D01*
X155976040Y-117802295D01*
X156056314Y-117818263D01*
X156138160Y-117818263D01*
X156218434Y-117802295D01*
X156294050Y-117770974D01*
X156362103Y-117725503D01*
X156419977Y-117667629D01*
X156465448Y-117599576D01*
X156496769Y-117523960D01*
X156512737Y-117443686D01*
X156512737Y-117361840D01*
X156496769Y-117281566D01*
X156465448Y-117205950D01*
X156419977Y-117137897D01*
X156362103Y-117080023D01*
X156294050Y-117034552D01*
X156218434Y-117003231D01*
X156138160Y-116987263D01*
X156056314Y-116987263D01*
X155976040Y-117003231D01*
X155900424Y-117034552D01*
X155832371Y-117080023D01*
X155774497Y-117137897D01*
X155729026Y-117205950D01*
X155697705Y-117281566D01*
X155681737Y-117361840D01*
X155681737Y-117443686D01*
X155697705Y-117523960D01*
X155714495Y-117564495D01*
X155673960Y-117547705D01*
X155593686Y-117531737D01*
X155511840Y-117531737D01*
X155431566Y-117547705D01*
X155355950Y-117579026D01*
X155287897Y-117624497D01*
X155230023Y-117682371D01*
X155184552Y-117750424D01*
X155153231Y-117826040D01*
X155137263Y-117906314D01*
X153918263Y-117906314D01*
X153902295Y-117826040D01*
X153885505Y-117785505D01*
X153926040Y-117802295D01*
X154006314Y-117818263D01*
X154088160Y-117818263D01*
X154168434Y-117802295D01*
X154244050Y-117770974D01*
X154312103Y-117725503D01*
X154369977Y-117667629D01*
X154415448Y-117599576D01*
X154446769Y-117523960D01*
X154462737Y-117443686D01*
X154462737Y-117361840D01*
X154446769Y-117281566D01*
X154415448Y-117205950D01*
X154369977Y-117137897D01*
X154312103Y-117080023D01*
X154244050Y-117034552D01*
X154168434Y-117003231D01*
X154088160Y-116987263D01*
X154006314Y-116987263D01*
X153926040Y-117003231D01*
X153850424Y-117034552D01*
X153782371Y-117080023D01*
X153724497Y-117137897D01*
X153679026Y-117205950D01*
X153647705Y-117281566D01*
X153631737Y-117361840D01*
X153631737Y-117443686D01*
X153647705Y-117523960D01*
X153664495Y-117564495D01*
X153623960Y-117547705D01*
X153543686Y-117531737D01*
X153461840Y-117531737D01*
X153381566Y-117547705D01*
X153305950Y-117579026D01*
X153237897Y-117624497D01*
X153180023Y-117682371D01*
X153134552Y-117750424D01*
X153103231Y-117826040D01*
X153087263Y-117906314D01*
X151868263Y-117906314D01*
X151852295Y-117826040D01*
X151835505Y-117785505D01*
X151876040Y-117802295D01*
X151956314Y-117818263D01*
X152038160Y-117818263D01*
X152118434Y-117802295D01*
X152194050Y-117770974D01*
X152262103Y-117725503D01*
X152319977Y-117667629D01*
X152365448Y-117599576D01*
X152396769Y-117523960D01*
X152412737Y-117443686D01*
X152412737Y-117361840D01*
X152396769Y-117281566D01*
X152365448Y-117205950D01*
X152319977Y-117137897D01*
X152262103Y-117080023D01*
X152194050Y-117034552D01*
X152118434Y-117003231D01*
X152038160Y-116987263D01*
X151956314Y-116987263D01*
X151876040Y-117003231D01*
X151800424Y-117034552D01*
X151732371Y-117080023D01*
X151674497Y-117137897D01*
X151629026Y-117205950D01*
X151597705Y-117281566D01*
X151581737Y-117361840D01*
X151581737Y-117443686D01*
X151597705Y-117523960D01*
X151614495Y-117564495D01*
X151573960Y-117547705D01*
X151493686Y-117531737D01*
X151411840Y-117531737D01*
X151331566Y-117547705D01*
X151255950Y-117579026D01*
X151187897Y-117624497D01*
X151130023Y-117682371D01*
X151084552Y-117750424D01*
X151053231Y-117826040D01*
X151037263Y-117906314D01*
X149218263Y-117906314D01*
X149202295Y-117826040D01*
X149185505Y-117785505D01*
X149226040Y-117802295D01*
X149306314Y-117818263D01*
X149388160Y-117818263D01*
X149468434Y-117802295D01*
X149544050Y-117770974D01*
X149612103Y-117725503D01*
X149669977Y-117667629D01*
X149715448Y-117599576D01*
X149746769Y-117523960D01*
X149762737Y-117443686D01*
X149762737Y-117361840D01*
X149746769Y-117281566D01*
X149715448Y-117205950D01*
X149669977Y-117137897D01*
X149612103Y-117080023D01*
X149544050Y-117034552D01*
X149468434Y-117003231D01*
X149388160Y-116987263D01*
X149306314Y-116987263D01*
X149226040Y-117003231D01*
X149150424Y-117034552D01*
X149082371Y-117080023D01*
X149024497Y-117137897D01*
X148979026Y-117205950D01*
X148947705Y-117281566D01*
X148931737Y-117361840D01*
X148931737Y-117443686D01*
X148947705Y-117523960D01*
X148964495Y-117564495D01*
X148923960Y-117547705D01*
X148843686Y-117531737D01*
X148761840Y-117531737D01*
X148681566Y-117547705D01*
X148605950Y-117579026D01*
X148537897Y-117624497D01*
X148480023Y-117682371D01*
X148434552Y-117750424D01*
X148403231Y-117826040D01*
X148387263Y-117906314D01*
X147168263Y-117906314D01*
X147152295Y-117826040D01*
X147135505Y-117785505D01*
X147176040Y-117802295D01*
X147256314Y-117818263D01*
X147338160Y-117818263D01*
X147418434Y-117802295D01*
X147494050Y-117770974D01*
X147562103Y-117725503D01*
X147619977Y-117667629D01*
X147665448Y-117599576D01*
X147696769Y-117523960D01*
X147712737Y-117443686D01*
X147712737Y-117361840D01*
X147696769Y-117281566D01*
X147665448Y-117205950D01*
X147619977Y-117137897D01*
X147562103Y-117080023D01*
X147494050Y-117034552D01*
X147418434Y-117003231D01*
X147338160Y-116987263D01*
X147256314Y-116987263D01*
X147176040Y-117003231D01*
X147100424Y-117034552D01*
X147032371Y-117080023D01*
X146974497Y-117137897D01*
X146929026Y-117205950D01*
X146897705Y-117281566D01*
X146881737Y-117361840D01*
X146881737Y-117443686D01*
X146897705Y-117523960D01*
X146914495Y-117564495D01*
X146873960Y-117547705D01*
X146793686Y-117531737D01*
X146711840Y-117531737D01*
X146631566Y-117547705D01*
X146555950Y-117579026D01*
X146487897Y-117624497D01*
X146430023Y-117682371D01*
X146384552Y-117750424D01*
X146353231Y-117826040D01*
X146337263Y-117906314D01*
X145138291Y-117906314D01*
X145127295Y-117851040D01*
X145110505Y-117810505D01*
X145151040Y-117827295D01*
X145231314Y-117843263D01*
X145313160Y-117843263D01*
X145393434Y-117827295D01*
X145469050Y-117795974D01*
X145537103Y-117750503D01*
X145594977Y-117692629D01*
X145640448Y-117624576D01*
X145671769Y-117548960D01*
X145687737Y-117468686D01*
X145687737Y-117386840D01*
X145671769Y-117306566D01*
X145640448Y-117230950D01*
X145594977Y-117162897D01*
X145537103Y-117105023D01*
X145469050Y-117059552D01*
X145393434Y-117028231D01*
X145313160Y-117012263D01*
X145231314Y-117012263D01*
X145151040Y-117028231D01*
X145075424Y-117059552D01*
X145007371Y-117105023D01*
X144949497Y-117162897D01*
X144904026Y-117230950D01*
X144872705Y-117306566D01*
X144856737Y-117386840D01*
X144856737Y-117468686D01*
X144872705Y-117548960D01*
X144889495Y-117589495D01*
X144848960Y-117572705D01*
X144768686Y-117556737D01*
X144686840Y-117556737D01*
X144606566Y-117572705D01*
X144530950Y-117604026D01*
X144462897Y-117649497D01*
X144405023Y-117707371D01*
X144359552Y-117775424D01*
X144328231Y-117851040D01*
X144312263Y-117931314D01*
X143093263Y-117931314D01*
X143093263Y-117906314D01*
X143077295Y-117826040D01*
X143060505Y-117785505D01*
X143101040Y-117802295D01*
X143181314Y-117818263D01*
X143263160Y-117818263D01*
X143343434Y-117802295D01*
X143419050Y-117770974D01*
X143487103Y-117725503D01*
X143544977Y-117667629D01*
X143590448Y-117599576D01*
X143621769Y-117523960D01*
X143637737Y-117443686D01*
X143637737Y-117361840D01*
X143621769Y-117281566D01*
X143590448Y-117205950D01*
X143544977Y-117137897D01*
X143487103Y-117080023D01*
X143419050Y-117034552D01*
X143343434Y-117003231D01*
X143263160Y-116987263D01*
X143181314Y-116987263D01*
X143101040Y-117003231D01*
X143025424Y-117034552D01*
X142957371Y-117080023D01*
X142899497Y-117137897D01*
X142854026Y-117205950D01*
X142822705Y-117281566D01*
X142806737Y-117361840D01*
X142806737Y-117443686D01*
X142822705Y-117523960D01*
X142839495Y-117564495D01*
X142798960Y-117547705D01*
X142718686Y-117531737D01*
X142636840Y-117531737D01*
X142556566Y-117547705D01*
X142480950Y-117579026D01*
X142412897Y-117624497D01*
X142355023Y-117682371D01*
X142309552Y-117750424D01*
X142278231Y-117826040D01*
X142262263Y-117906314D01*
X141018263Y-117906314D01*
X141002295Y-117826040D01*
X140985505Y-117785505D01*
X141026040Y-117802295D01*
X141106314Y-117818263D01*
X141188160Y-117818263D01*
X141268434Y-117802295D01*
X141344050Y-117770974D01*
X141412103Y-117725503D01*
X141469977Y-117667629D01*
X141515448Y-117599576D01*
X141546769Y-117523960D01*
X141562737Y-117443686D01*
X141562737Y-117361840D01*
X141546769Y-117281566D01*
X141515448Y-117205950D01*
X141469977Y-117137897D01*
X141412103Y-117080023D01*
X141344050Y-117034552D01*
X141268434Y-117003231D01*
X141188160Y-116987263D01*
X141106314Y-116987263D01*
X141026040Y-117003231D01*
X140950424Y-117034552D01*
X140882371Y-117080023D01*
X140824497Y-117137897D01*
X140779026Y-117205950D01*
X140747705Y-117281566D01*
X140731737Y-117361840D01*
X140731737Y-117443686D01*
X140747705Y-117523960D01*
X140764495Y-117564495D01*
X140723960Y-117547705D01*
X140643686Y-117531737D01*
X140561840Y-117531737D01*
X140481566Y-117547705D01*
X140405950Y-117579026D01*
X140337897Y-117624497D01*
X140280023Y-117682371D01*
X140234552Y-117750424D01*
X140203231Y-117826040D01*
X140187263Y-117906314D01*
X138968263Y-117906314D01*
X138952295Y-117826040D01*
X138935505Y-117785505D01*
X138976040Y-117802295D01*
X139056314Y-117818263D01*
X139138160Y-117818263D01*
X139218434Y-117802295D01*
X139294050Y-117770974D01*
X139362103Y-117725503D01*
X139419977Y-117667629D01*
X139465448Y-117599576D01*
X139496769Y-117523960D01*
X139512737Y-117443686D01*
X139512737Y-117361840D01*
X139496769Y-117281566D01*
X139465448Y-117205950D01*
X139419977Y-117137897D01*
X139362103Y-117080023D01*
X139294050Y-117034552D01*
X139218434Y-117003231D01*
X139138160Y-116987263D01*
X139056314Y-116987263D01*
X138976040Y-117003231D01*
X138900424Y-117034552D01*
X138832371Y-117080023D01*
X138774497Y-117137897D01*
X138729026Y-117205950D01*
X138697705Y-117281566D01*
X138681737Y-117361840D01*
X138681737Y-117443686D01*
X138697705Y-117523960D01*
X138714495Y-117564495D01*
X138673960Y-117547705D01*
X138593686Y-117531737D01*
X138511840Y-117531737D01*
X138431566Y-117547705D01*
X138355950Y-117579026D01*
X138287897Y-117624497D01*
X138230023Y-117682371D01*
X138184552Y-117750424D01*
X138153231Y-117826040D01*
X138137263Y-117906314D01*
X137581292Y-117906314D01*
X137594977Y-117892629D01*
X137640448Y-117824576D01*
X137671769Y-117748960D01*
X137687737Y-117668686D01*
X137687737Y-117586840D01*
X137671769Y-117506566D01*
X137640448Y-117430950D01*
X137594977Y-117362897D01*
X137537103Y-117305023D01*
X137469050Y-117259552D01*
X137393434Y-117228231D01*
X137313160Y-117212263D01*
X137231314Y-117212263D01*
X137151040Y-117228231D01*
X137075424Y-117259552D01*
X137007371Y-117305023D01*
X136949497Y-117362897D01*
X136904026Y-117430950D01*
X136872705Y-117506566D01*
X136856737Y-117586840D01*
X136856737Y-117668686D01*
X136872705Y-117748960D01*
X136889495Y-117789495D01*
X136848960Y-117772705D01*
X136768686Y-117756737D01*
X136686840Y-117756737D01*
X136606566Y-117772705D01*
X136530950Y-117804026D01*
X136462897Y-117849497D01*
X136405023Y-117907371D01*
X136359552Y-117975424D01*
X136328231Y-118051040D01*
X136312263Y-118131314D01*
X132445120Y-118131314D01*
X132348913Y-118016660D01*
X132333359Y-118001429D01*
X132317981Y-117985942D01*
X132315378Y-117983820D01*
X132170883Y-117867643D01*
X132152655Y-117855715D01*
X132134573Y-117843518D01*
X132131608Y-117841942D01*
X131967299Y-117756043D01*
X131947059Y-117747866D01*
X131926993Y-117739430D01*
X131923786Y-117738462D01*
X131923780Y-117738460D01*
X131923774Y-117738459D01*
X131745915Y-117686112D01*
X131724516Y-117682030D01*
X131703151Y-117677644D01*
X131699809Y-117677317D01*
X131515165Y-117660513D01*
X131493373Y-117660665D01*
X131471570Y-117660512D01*
X131468239Y-117660840D01*
X131468229Y-117660840D01*
X131468220Y-117660842D01*
X131283836Y-117680222D01*
X131262493Y-117684603D01*
X131241074Y-117688688D01*
X131237861Y-117689658D01*
X131237855Y-117689660D01*
X131060743Y-117744485D01*
X131040637Y-117752937D01*
X131020437Y-117761098D01*
X131017472Y-117762674D01*
X130854379Y-117850858D01*
X130836284Y-117863064D01*
X130818068Y-117874983D01*
X130815466Y-117877106D01*
X130672607Y-117995290D01*
X130657234Y-118010771D01*
X130641674Y-118026007D01*
X130639539Y-118028589D01*
X130639533Y-118028595D01*
X130639529Y-118028602D01*
X130522351Y-118172275D01*
X130510293Y-118190423D01*
X130497973Y-118208415D01*
X130496381Y-118211361D01*
X130496376Y-118211369D01*
X130496376Y-118211370D01*
X130409332Y-118375075D01*
X130401026Y-118395228D01*
X130392438Y-118415264D01*
X130391445Y-118418472D01*
X130337857Y-118595966D01*
X130333629Y-118617322D01*
X130329091Y-118638668D01*
X130328741Y-118642008D01*
X130310648Y-118826531D01*
X130309500Y-118838192D01*
X130309501Y-125700381D01*
X129950383Y-126059500D01*
X119949618Y-126059500D01*
X119590500Y-125700383D01*
X119590500Y-120611639D01*
X119650000Y-120617500D01*
X122400000Y-120617500D01*
X122461941Y-120611399D01*
X122521502Y-120593332D01*
X122576394Y-120563992D01*
X122624506Y-120524506D01*
X122663992Y-120476394D01*
X122693332Y-120421502D01*
X122711399Y-120361941D01*
X122717500Y-120300000D01*
X122717500Y-112800000D01*
X122711399Y-112738059D01*
X122693332Y-112678498D01*
X122663992Y-112623606D01*
X122624506Y-112575494D01*
X118203012Y-108154000D01*
X155194790Y-108154000D01*
X159211586Y-112170797D01*
X159219527Y-112180473D01*
X159229203Y-112188414D01*
X159229211Y-112188422D01*
X159258203Y-112212214D01*
X159302328Y-112235800D01*
X159350207Y-112250324D01*
X159387531Y-112254000D01*
X159387542Y-112254000D01*
X159400000Y-112255227D01*
X159412458Y-112254000D01*
X162420000Y-112254000D01*
X162427260Y-112264866D01*
X162485134Y-112322740D01*
X162553187Y-112368211D01*
X162628803Y-112399532D01*
X162709077Y-112415500D01*
X162790923Y-112415500D01*
X162871197Y-112399532D01*
X162946813Y-112368211D01*
X163014866Y-112322740D01*
X163072740Y-112264866D01*
X163118211Y-112196813D01*
X163149532Y-112121197D01*
X163165500Y-112040923D01*
X163165500Y-111959077D01*
X163149532Y-111878803D01*
X163118211Y-111803187D01*
X163072740Y-111735134D01*
X163014866Y-111677260D01*
X162946813Y-111631789D01*
X162871197Y-111600468D01*
X162790923Y-111584500D01*
X162709077Y-111584500D01*
X162628803Y-111600468D01*
X162553187Y-111631789D01*
X162485134Y-111677260D01*
X162427260Y-111735134D01*
X162420000Y-111746000D01*
X159505211Y-111746000D01*
X155520788Y-107761578D01*
X155520784Y-107761575D01*
X155488420Y-107729210D01*
X155480473Y-107719527D01*
X155470791Y-107711581D01*
X155470788Y-107711578D01*
X155456286Y-107699677D01*
X155441797Y-107687786D01*
X155397672Y-107664200D01*
X155349793Y-107649676D01*
X155312469Y-107646000D01*
X155312458Y-107646000D01*
X155300000Y-107644773D01*
X155287542Y-107646000D01*
X117695012Y-107646000D01*
X116724506Y-106675494D01*
X116676394Y-106636008D01*
X116621502Y-106606668D01*
X116561941Y-106588601D01*
X116500000Y-106582500D01*
X112117100Y-106582500D01*
X112178336Y-106549390D01*
X112197130Y-106536714D01*
X112216158Y-106524262D01*
X112218868Y-106522051D01*
X112369246Y-106397647D01*
X112385235Y-106381546D01*
X112401465Y-106365653D01*
X112403695Y-106362957D01*
X112527045Y-106211715D01*
X112539593Y-106192828D01*
X112552436Y-106174072D01*
X112554099Y-106170994D01*
X112645725Y-105998672D01*
X112654367Y-105977704D01*
X112663321Y-105956814D01*
X112664355Y-105953472D01*
X112720764Y-105766636D01*
X112725171Y-105744376D01*
X112729894Y-105722158D01*
X112730259Y-105718679D01*
X112749304Y-105524445D01*
X112750500Y-105512305D01*
X112750500Y-102372897D01*
X153509500Y-102372897D01*
X153509500Y-102627103D01*
X153559093Y-102876425D01*
X153656374Y-103111281D01*
X153797603Y-103322646D01*
X153977354Y-103502397D01*
X154188719Y-103643626D01*
X154423575Y-103740907D01*
X154672897Y-103790500D01*
X154927103Y-103790500D01*
X155176425Y-103740907D01*
X155411281Y-103643626D01*
X155622646Y-103502397D01*
X155802397Y-103322646D01*
X155943626Y-103111281D01*
X156040907Y-102876425D01*
X156090500Y-102627103D01*
X156090500Y-102372897D01*
X156040907Y-102123575D01*
X155943626Y-101888719D01*
X155802397Y-101677354D01*
X155622646Y-101497603D01*
X155411281Y-101356374D01*
X155176425Y-101259093D01*
X154927103Y-101209500D01*
X154672897Y-101209500D01*
X154423575Y-101259093D01*
X154188719Y-101356374D01*
X153977354Y-101497603D01*
X153797603Y-101677354D01*
X153656374Y-101888719D01*
X153559093Y-102123575D01*
X153509500Y-102372897D01*
X112750500Y-102372897D01*
X112750500Y-100250500D01*
X156512305Y-100250500D01*
X156549107Y-100246875D01*
X156596326Y-100232552D01*
X156628228Y-100215500D01*
X157489465Y-100215500D01*
X157652176Y-100231454D01*
G37*
X157652176Y-100231454D02*
X157798555Y-100275648D01*
X157933563Y-100347433D01*
X158052059Y-100444077D01*
X158149525Y-100561893D01*
X158222248Y-100696392D01*
X158267465Y-100842466D01*
X158284500Y-101004537D01*
X158284501Y-107710579D01*
X158284537Y-107710940D01*
X158284574Y-107721695D01*
X158285526Y-107731064D01*
X158285460Y-107740475D01*
X158285754Y-107743470D01*
X158346954Y-108325759D01*
X158350888Y-108344923D01*
X158354542Y-108364079D01*
X158355409Y-108366949D01*
X158355411Y-108366959D01*
X158355415Y-108366968D01*
X158528549Y-108926273D01*
X158536122Y-108944290D01*
X158543434Y-108962387D01*
X158544845Y-108965040D01*
X158544847Y-108965045D01*
X158544850Y-108965049D01*
X158823323Y-109480076D01*
X158834256Y-109496285D01*
X158844940Y-109512612D01*
X158846841Y-109514944D01*
X159220051Y-109966077D01*
X159233920Y-109979849D01*
X159247576Y-109993794D01*
X159249889Y-109995707D01*
X159249895Y-109995713D01*
X159249902Y-109995717D01*
X159703623Y-110365765D01*
X159719901Y-110376580D01*
X159736007Y-110387608D01*
X159738646Y-110389035D01*
X159738654Y-110389040D01*
X159738662Y-110389043D01*
X160255618Y-110663913D01*
X160273654Y-110671347D01*
X160291628Y-110679051D01*
X160294497Y-110679938D01*
X160294504Y-110679941D01*
X160294511Y-110679942D01*
X160855011Y-110849167D01*
X160874151Y-110852957D01*
X160893275Y-110857022D01*
X160896257Y-110857335D01*
X160896268Y-110857337D01*
X160896278Y-110857337D01*
X161478970Y-110914471D01*
X161478974Y-110914471D01*
X161489421Y-110915500D01*
X167639465Y-110915500D01*
X168190645Y-110969544D01*
X168710696Y-111126556D01*
X169190349Y-111381592D01*
X169611325Y-111724933D01*
X169957600Y-112143508D01*
X170215976Y-112621364D01*
X170376616Y-113140307D01*
X170434466Y-113690725D01*
X170434501Y-113700750D01*
X170434500Y-117792989D01*
X170426733Y-117807521D01*
X170412980Y-117852855D01*
X170409500Y-117888192D01*
X170409501Y-125700381D01*
X170050383Y-126059500D01*
X133049618Y-126059500D01*
X132690500Y-125700383D01*
X132690500Y-118859077D01*
X134699500Y-118859077D01*
X134699500Y-118940923D01*
X134715468Y-119021197D01*
X134746789Y-119096813D01*
X134792260Y-119164866D01*
X134850134Y-119222740D01*
X134918187Y-119268211D01*
X134993803Y-119299532D01*
X135074077Y-119315500D01*
X135155923Y-119315500D01*
X135236197Y-119299532D01*
X135311813Y-119268211D01*
X135379866Y-119222740D01*
X135437740Y-119164866D01*
X135483211Y-119096813D01*
X135500000Y-119056281D01*
X135516789Y-119096813D01*
X135562260Y-119164866D01*
X135620134Y-119222740D01*
X135688187Y-119268211D01*
X135763803Y-119299532D01*
X135844077Y-119315500D01*
X135925923Y-119315500D01*
X136006197Y-119299532D01*
X136081813Y-119268211D01*
X136149866Y-119222740D01*
X136207740Y-119164866D01*
X136253211Y-119096813D01*
X136284532Y-119021197D01*
X136296888Y-118959077D01*
X151084500Y-118959077D01*
X151084500Y-119040923D01*
X151100468Y-119121197D01*
X151131789Y-119196813D01*
X151177260Y-119264866D01*
X151235134Y-119322740D01*
X151303187Y-119368211D01*
X151378803Y-119399532D01*
X151459077Y-119415500D01*
X151540923Y-119415500D01*
X151621197Y-119399532D01*
X151696813Y-119368211D01*
X151764866Y-119322740D01*
X151822740Y-119264866D01*
X151868211Y-119196813D01*
X151899532Y-119121197D01*
X151915500Y-119040923D01*
X151915500Y-118959077D01*
X151899532Y-118878803D01*
X151868211Y-118803187D01*
X151822740Y-118735134D01*
X151764866Y-118677260D01*
X151696813Y-118631789D01*
X151621197Y-118600468D01*
X151540923Y-118584500D01*
X151459077Y-118584500D01*
X151378803Y-118600468D01*
X151303187Y-118631789D01*
X151235134Y-118677260D01*
X151177260Y-118735134D01*
X151131789Y-118803187D01*
X151100468Y-118878803D01*
X151084500Y-118959077D01*
X136296888Y-118959077D01*
X136300500Y-118940923D01*
X136300500Y-118859077D01*
X136284532Y-118778803D01*
X136253211Y-118703187D01*
X136207740Y-118635134D01*
X136149866Y-118577260D01*
X136081813Y-118531789D01*
X136006197Y-118500468D01*
X135925923Y-118484500D01*
X135844077Y-118484500D01*
X135763803Y-118500468D01*
X135688187Y-118531789D01*
X135620134Y-118577260D01*
X135562260Y-118635134D01*
X135516789Y-118703187D01*
X135500000Y-118743719D01*
X135483211Y-118703187D01*
X135437740Y-118635134D01*
X135379866Y-118577260D01*
X135311813Y-118531789D01*
X135236197Y-118500468D01*
X135155923Y-118484500D01*
X135074077Y-118484500D01*
X134993803Y-118500468D01*
X134918187Y-118531789D01*
X134850134Y-118577260D01*
X134792260Y-118635134D01*
X134746789Y-118703187D01*
X134715468Y-118778803D01*
X134699500Y-118859077D01*
X132690500Y-118859077D01*
X132690500Y-118838191D01*
X132690417Y-118837349D01*
X132690401Y-118835050D01*
X132689260Y-118824194D01*
X132689260Y-118813267D01*
X132688908Y-118809927D01*
X132668241Y-118625676D01*
X132663708Y-118604349D01*
X132659476Y-118582973D01*
X132658483Y-118579765D01*
X132602422Y-118403036D01*
X132593818Y-118382960D01*
X132585528Y-118362847D01*
X132583931Y-118359893D01*
X132494610Y-118197419D01*
X132482283Y-118179416D01*
X132470232Y-118161277D01*
X132468091Y-118158690D01*
X132445120Y-118131314D01*
X136312263Y-118131314D01*
X136312263Y-118213160D01*
X136328231Y-118293434D01*
X136359552Y-118369050D01*
X136405023Y-118437103D01*
X136462897Y-118494977D01*
X136530950Y-118540448D01*
X136606566Y-118571769D01*
X136686840Y-118587737D01*
X136768686Y-118587737D01*
X136848960Y-118571769D01*
X136924576Y-118540448D01*
X136992629Y-118494977D01*
X137050503Y-118437103D01*
X137095974Y-118369050D01*
X137127295Y-118293434D01*
X137143263Y-118213160D01*
X137143263Y-118131314D01*
X137127295Y-118051040D01*
X137110505Y-118010505D01*
X137151040Y-118027295D01*
X137231314Y-118043263D01*
X137313160Y-118043263D01*
X137393434Y-118027295D01*
X137469050Y-117995974D01*
X137537103Y-117950503D01*
X137581292Y-117906314D01*
X138137263Y-117906314D01*
X138137263Y-117988160D01*
X138153231Y-118068434D01*
X138184552Y-118144050D01*
X138230023Y-118212103D01*
X138287897Y-118269977D01*
X138355950Y-118315448D01*
X138431566Y-118346769D01*
X138511840Y-118362737D01*
X138593686Y-118362737D01*
X138673960Y-118346769D01*
X138749576Y-118315448D01*
X138817629Y-118269977D01*
X138875503Y-118212103D01*
X138920974Y-118144050D01*
X138952295Y-118068434D01*
X138968263Y-117988160D01*
X138968263Y-117906314D01*
X140187263Y-117906314D01*
X140187263Y-117988160D01*
X140203231Y-118068434D01*
X140234552Y-118144050D01*
X140280023Y-118212103D01*
X140337897Y-118269977D01*
X140405950Y-118315448D01*
X140481566Y-118346769D01*
X140561840Y-118362737D01*
X140643686Y-118362737D01*
X140723960Y-118346769D01*
X140799576Y-118315448D01*
X140867629Y-118269977D01*
X140925503Y-118212103D01*
X140970974Y-118144050D01*
X141002295Y-118068434D01*
X141018263Y-117988160D01*
X141018263Y-117906314D01*
X142262263Y-117906314D01*
X142262263Y-117988160D01*
X142278231Y-118068434D01*
X142309552Y-118144050D01*
X142355023Y-118212103D01*
X142412897Y-118269977D01*
X142480950Y-118315448D01*
X142556566Y-118346769D01*
X142636840Y-118362737D01*
X142718686Y-118362737D01*
X142798960Y-118346769D01*
X142874576Y-118315448D01*
X142942629Y-118269977D01*
X143000503Y-118212103D01*
X143045974Y-118144050D01*
X143077295Y-118068434D01*
X143093263Y-117988160D01*
X143093263Y-117931314D01*
X144312263Y-117931314D01*
X144312263Y-118013160D01*
X144328231Y-118093434D01*
X144359552Y-118169050D01*
X144405023Y-118237103D01*
X144462897Y-118294977D01*
X144530950Y-118340448D01*
X144606566Y-118371769D01*
X144686840Y-118387737D01*
X144768686Y-118387737D01*
X144848960Y-118371769D01*
X144924576Y-118340448D01*
X144992629Y-118294977D01*
X145050503Y-118237103D01*
X145095974Y-118169050D01*
X145127295Y-118093434D01*
X145143263Y-118013160D01*
X145143263Y-117931314D01*
X145138291Y-117906314D01*
X146337263Y-117906314D01*
X146337263Y-117988160D01*
X146353231Y-118068434D01*
X146384552Y-118144050D01*
X146430023Y-118212103D01*
X146487897Y-118269977D01*
X146555950Y-118315448D01*
X146631566Y-118346769D01*
X146711840Y-118362737D01*
X146793686Y-118362737D01*
X146873960Y-118346769D01*
X146949576Y-118315448D01*
X147017629Y-118269977D01*
X147075503Y-118212103D01*
X147120974Y-118144050D01*
X147152295Y-118068434D01*
X147168263Y-117988160D01*
X147168263Y-117906314D01*
X148387263Y-117906314D01*
X148387263Y-117988160D01*
X148403231Y-118068434D01*
X148434552Y-118144050D01*
X148480023Y-118212103D01*
X148537897Y-118269977D01*
X148605950Y-118315448D01*
X148681566Y-118346769D01*
X148761840Y-118362737D01*
X148843686Y-118362737D01*
X148923960Y-118346769D01*
X148999576Y-118315448D01*
X149067629Y-118269977D01*
X149125503Y-118212103D01*
X149170974Y-118144050D01*
X149202295Y-118068434D01*
X149218263Y-117988160D01*
X149218263Y-117906314D01*
X151037263Y-117906314D01*
X151037263Y-117988160D01*
X151053231Y-118068434D01*
X151084552Y-118144050D01*
X151130023Y-118212103D01*
X151187897Y-118269977D01*
X151255950Y-118315448D01*
X151331566Y-118346769D01*
X151411840Y-118362737D01*
X151493686Y-118362737D01*
X151573960Y-118346769D01*
X151649576Y-118315448D01*
X151717629Y-118269977D01*
X151775503Y-118212103D01*
X151820974Y-118144050D01*
X151852295Y-118068434D01*
X151868263Y-117988160D01*
X151868263Y-117906314D01*
X153087263Y-117906314D01*
X153087263Y-117988160D01*
X153103231Y-118068434D01*
X153134552Y-118144050D01*
X153180023Y-118212103D01*
X153237897Y-118269977D01*
X153305950Y-118315448D01*
X153381566Y-118346769D01*
X153461840Y-118362737D01*
X153543686Y-118362737D01*
X153623960Y-118346769D01*
X153699576Y-118315448D01*
X153767629Y-118269977D01*
X153825503Y-118212103D01*
X153870974Y-118144050D01*
X153902295Y-118068434D01*
X153918263Y-117988160D01*
X153918263Y-117906314D01*
X155137263Y-117906314D01*
X155137263Y-117988160D01*
X155153231Y-118068434D01*
X155184552Y-118144050D01*
X155230023Y-118212103D01*
X155287897Y-118269977D01*
X155355950Y-118315448D01*
X155431566Y-118346769D01*
X155511840Y-118362737D01*
X155593686Y-118362737D01*
X155673960Y-118346769D01*
X155749576Y-118315448D01*
X155817629Y-118269977D01*
X155875503Y-118212103D01*
X155920974Y-118144050D01*
X155952295Y-118068434D01*
X155968263Y-117988160D01*
X155968263Y-117906314D01*
X157162263Y-117906314D01*
X157162263Y-117988160D01*
X157178231Y-118068434D01*
X157209552Y-118144050D01*
X157255023Y-118212103D01*
X157312897Y-118269977D01*
X157380950Y-118315448D01*
X157456566Y-118346769D01*
X157536840Y-118362737D01*
X157618686Y-118362737D01*
X157698960Y-118346769D01*
X157774576Y-118315448D01*
X157842629Y-118269977D01*
X157900503Y-118212103D01*
X157945974Y-118144050D01*
X157977295Y-118068434D01*
X157993263Y-117988160D01*
X157993263Y-117906314D01*
X159237263Y-117906314D01*
X159237263Y-117988160D01*
X159253231Y-118068434D01*
X159284552Y-118144050D01*
X159330023Y-118212103D01*
X159387897Y-118269977D01*
X159455950Y-118315448D01*
X159531566Y-118346769D01*
X159611840Y-118362737D01*
X159693686Y-118362737D01*
X159773960Y-118346769D01*
X159849576Y-118315448D01*
X159917629Y-118269977D01*
X159975503Y-118212103D01*
X160020974Y-118144050D01*
X160052295Y-118068434D01*
X160068263Y-117988160D01*
X160068263Y-117906314D01*
X161287263Y-117906314D01*
X161287263Y-117988160D01*
X161303231Y-118068434D01*
X161334552Y-118144050D01*
X161380023Y-118212103D01*
X161437897Y-118269977D01*
X161505950Y-118315448D01*
X161581566Y-118346769D01*
X161661840Y-118362737D01*
X161743686Y-118362737D01*
X161823960Y-118346769D01*
X161899576Y-118315448D01*
X161967629Y-118269977D01*
X162025503Y-118212103D01*
X162070974Y-118144050D01*
X162102295Y-118068434D01*
X162118263Y-117988160D01*
X162118263Y-117906314D01*
X163337263Y-117906314D01*
X163337263Y-117988160D01*
X163353231Y-118068434D01*
X163384552Y-118144050D01*
X163430023Y-118212103D01*
X163487897Y-118269977D01*
X163555950Y-118315448D01*
X163631566Y-118346769D01*
X163711840Y-118362737D01*
X163793686Y-118362737D01*
X163873960Y-118346769D01*
X163949576Y-118315448D01*
X164017629Y-118269977D01*
X164075503Y-118212103D01*
X164120974Y-118144050D01*
X164152295Y-118068434D01*
X164168263Y-117988160D01*
X164168263Y-117906314D01*
X165387263Y-117906314D01*
X165387263Y-117988160D01*
X165403231Y-118068434D01*
X165434552Y-118144050D01*
X165480023Y-118212103D01*
X165537897Y-118269977D01*
X165605950Y-118315448D01*
X165681566Y-118346769D01*
X165761840Y-118362737D01*
X165843686Y-118362737D01*
X165923960Y-118346769D01*
X165999576Y-118315448D01*
X166067629Y-118269977D01*
X166125503Y-118212103D01*
X166170974Y-118144050D01*
X166202295Y-118068434D01*
X166218263Y-117988160D01*
X166218263Y-117906314D01*
X166202295Y-117826040D01*
X166185505Y-117785505D01*
X166226040Y-117802295D01*
X166306314Y-117818263D01*
X166388160Y-117818263D01*
X166468434Y-117802295D01*
X166544050Y-117770974D01*
X166612103Y-117725503D01*
X166669977Y-117667629D01*
X166715448Y-117599576D01*
X166746769Y-117523960D01*
X166762737Y-117443686D01*
X166762737Y-117361840D01*
X166746769Y-117281566D01*
X166715448Y-117205950D01*
X166669977Y-117137897D01*
X166612103Y-117080023D01*
X166544050Y-117034552D01*
X166468434Y-117003231D01*
X166388160Y-116987263D01*
X166306314Y-116987263D01*
X166226040Y-117003231D01*
X166150424Y-117034552D01*
X166082371Y-117080023D01*
X166024497Y-117137897D01*
X165979026Y-117205950D01*
X165947705Y-117281566D01*
X165931737Y-117361840D01*
X165931737Y-117443686D01*
X165947705Y-117523960D01*
X165964495Y-117564495D01*
X165923960Y-117547705D01*
X165843686Y-117531737D01*
X165761840Y-117531737D01*
X165681566Y-117547705D01*
X165605950Y-117579026D01*
X165537897Y-117624497D01*
X165480023Y-117682371D01*
X165434552Y-117750424D01*
X165403231Y-117826040D01*
X165387263Y-117906314D01*
X164168263Y-117906314D01*
X164152295Y-117826040D01*
X164135505Y-117785505D01*
X164176040Y-117802295D01*
X164256314Y-117818263D01*
X164338160Y-117818263D01*
X164418434Y-117802295D01*
X164494050Y-117770974D01*
X164562103Y-117725503D01*
X164619977Y-117667629D01*
X164665448Y-117599576D01*
X164696769Y-117523960D01*
X164712737Y-117443686D01*
X164712737Y-117361840D01*
X164696769Y-117281566D01*
X164665448Y-117205950D01*
X164619977Y-117137897D01*
X164562103Y-117080023D01*
X164494050Y-117034552D01*
X164418434Y-117003231D01*
X164338160Y-116987263D01*
X164256314Y-116987263D01*
X164176040Y-117003231D01*
X164100424Y-117034552D01*
X164032371Y-117080023D01*
X163974497Y-117137897D01*
X163929026Y-117205950D01*
X163897705Y-117281566D01*
X163881737Y-117361840D01*
X163881737Y-117443686D01*
X163897705Y-117523960D01*
X163914495Y-117564495D01*
X163873960Y-117547705D01*
X163793686Y-117531737D01*
X163711840Y-117531737D01*
X163631566Y-117547705D01*
X163555950Y-117579026D01*
X163487897Y-117624497D01*
X163430023Y-117682371D01*
X163384552Y-117750424D01*
X163353231Y-117826040D01*
X163337263Y-117906314D01*
X162118263Y-117906314D01*
X162102295Y-117826040D01*
X162085505Y-117785505D01*
X162126040Y-117802295D01*
X162206314Y-117818263D01*
X162288160Y-117818263D01*
X162368434Y-117802295D01*
X162444050Y-117770974D01*
X162512103Y-117725503D01*
X162569977Y-117667629D01*
X162615448Y-117599576D01*
X162646769Y-117523960D01*
X162662737Y-117443686D01*
X162662737Y-117361840D01*
X162646769Y-117281566D01*
X162615448Y-117205950D01*
X162569977Y-117137897D01*
X162512103Y-117080023D01*
X162444050Y-117034552D01*
X162368434Y-117003231D01*
X162288160Y-116987263D01*
X162206314Y-116987263D01*
X162126040Y-117003231D01*
X162050424Y-117034552D01*
X161982371Y-117080023D01*
X161924497Y-117137897D01*
X161879026Y-117205950D01*
X161847705Y-117281566D01*
X161831737Y-117361840D01*
X161831737Y-117443686D01*
X161847705Y-117523960D01*
X161864495Y-117564495D01*
X161823960Y-117547705D01*
X161743686Y-117531737D01*
X161661840Y-117531737D01*
X161581566Y-117547705D01*
X161505950Y-117579026D01*
X161437897Y-117624497D01*
X161380023Y-117682371D01*
X161334552Y-117750424D01*
X161303231Y-117826040D01*
X161287263Y-117906314D01*
X160068263Y-117906314D01*
X160052295Y-117826040D01*
X160035505Y-117785505D01*
X160076040Y-117802295D01*
X160156314Y-117818263D01*
X160238160Y-117818263D01*
X160318434Y-117802295D01*
X160394050Y-117770974D01*
X160462103Y-117725503D01*
X160519977Y-117667629D01*
X160565448Y-117599576D01*
X160596769Y-117523960D01*
X160612737Y-117443686D01*
X160612737Y-117361840D01*
X160596769Y-117281566D01*
X160565448Y-117205950D01*
X160519977Y-117137897D01*
X160462103Y-117080023D01*
X160394050Y-117034552D01*
X160318434Y-117003231D01*
X160238160Y-116987263D01*
X160156314Y-116987263D01*
X160076040Y-117003231D01*
X160000424Y-117034552D01*
X159932371Y-117080023D01*
X159874497Y-117137897D01*
X159829026Y-117205950D01*
X159797705Y-117281566D01*
X159781737Y-117361840D01*
X159781737Y-117443686D01*
X159797705Y-117523960D01*
X159814495Y-117564495D01*
X159773960Y-117547705D01*
X159693686Y-117531737D01*
X159611840Y-117531737D01*
X159531566Y-117547705D01*
X159455950Y-117579026D01*
X159387897Y-117624497D01*
X159330023Y-117682371D01*
X159284552Y-117750424D01*
X159253231Y-117826040D01*
X159237263Y-117906314D01*
X157993263Y-117906314D01*
X157977295Y-117826040D01*
X157960505Y-117785505D01*
X158001040Y-117802295D01*
X158081314Y-117818263D01*
X158163160Y-117818263D01*
X158243434Y-117802295D01*
X158319050Y-117770974D01*
X158387103Y-117725503D01*
X158444977Y-117667629D01*
X158490448Y-117599576D01*
X158521769Y-117523960D01*
X158537737Y-117443686D01*
X158537737Y-117361840D01*
X158521769Y-117281566D01*
X158490448Y-117205950D01*
X158444977Y-117137897D01*
X158387103Y-117080023D01*
X158319050Y-117034552D01*
X158243434Y-117003231D01*
X158163160Y-116987263D01*
X158081314Y-116987263D01*
X158001040Y-117003231D01*
X157925424Y-117034552D01*
X157857371Y-117080023D01*
X157799497Y-117137897D01*
X157754026Y-117205950D01*
X157722705Y-117281566D01*
X157706737Y-117361840D01*
X157706737Y-117443686D01*
X157722705Y-117523960D01*
X157739495Y-117564495D01*
X157698960Y-117547705D01*
X157618686Y-117531737D01*
X157536840Y-117531737D01*
X157456566Y-117547705D01*
X157380950Y-117579026D01*
X157312897Y-117624497D01*
X157255023Y-117682371D01*
X157209552Y-117750424D01*
X157178231Y-117826040D01*
X157162263Y-117906314D01*
X155968263Y-117906314D01*
X155952295Y-117826040D01*
X155935505Y-117785505D01*
X155976040Y-117802295D01*
X156056314Y-117818263D01*
X156138160Y-117818263D01*
X156218434Y-117802295D01*
X156294050Y-117770974D01*
X156362103Y-117725503D01*
X156419977Y-117667629D01*
X156465448Y-117599576D01*
X156496769Y-117523960D01*
X156512737Y-117443686D01*
X156512737Y-117361840D01*
X156496769Y-117281566D01*
X156465448Y-117205950D01*
X156419977Y-117137897D01*
X156362103Y-117080023D01*
X156294050Y-117034552D01*
X156218434Y-117003231D01*
X156138160Y-116987263D01*
X156056314Y-116987263D01*
X155976040Y-117003231D01*
X155900424Y-117034552D01*
X155832371Y-117080023D01*
X155774497Y-117137897D01*
X155729026Y-117205950D01*
X155697705Y-117281566D01*
X155681737Y-117361840D01*
X155681737Y-117443686D01*
X155697705Y-117523960D01*
X155714495Y-117564495D01*
X155673960Y-117547705D01*
X155593686Y-117531737D01*
X155511840Y-117531737D01*
X155431566Y-117547705D01*
X155355950Y-117579026D01*
X155287897Y-117624497D01*
X155230023Y-117682371D01*
X155184552Y-117750424D01*
X155153231Y-117826040D01*
X155137263Y-117906314D01*
X153918263Y-117906314D01*
X153902295Y-117826040D01*
X153885505Y-117785505D01*
X153926040Y-117802295D01*
X154006314Y-117818263D01*
X154088160Y-117818263D01*
X154168434Y-117802295D01*
X154244050Y-117770974D01*
X154312103Y-117725503D01*
X154369977Y-117667629D01*
X154415448Y-117599576D01*
X154446769Y-117523960D01*
X154462737Y-117443686D01*
X154462737Y-117361840D01*
X154446769Y-117281566D01*
X154415448Y-117205950D01*
X154369977Y-117137897D01*
X154312103Y-117080023D01*
X154244050Y-117034552D01*
X154168434Y-117003231D01*
X154088160Y-116987263D01*
X154006314Y-116987263D01*
X153926040Y-117003231D01*
X153850424Y-117034552D01*
X153782371Y-117080023D01*
X153724497Y-117137897D01*
X153679026Y-117205950D01*
X153647705Y-117281566D01*
X153631737Y-117361840D01*
X153631737Y-117443686D01*
X153647705Y-117523960D01*
X153664495Y-117564495D01*
X153623960Y-117547705D01*
X153543686Y-117531737D01*
X153461840Y-117531737D01*
X153381566Y-117547705D01*
X153305950Y-117579026D01*
X153237897Y-117624497D01*
X153180023Y-117682371D01*
X153134552Y-117750424D01*
X153103231Y-117826040D01*
X153087263Y-117906314D01*
X151868263Y-117906314D01*
X151852295Y-117826040D01*
X151835505Y-117785505D01*
X151876040Y-117802295D01*
X151956314Y-117818263D01*
X152038160Y-117818263D01*
X152118434Y-117802295D01*
X152194050Y-117770974D01*
X152262103Y-117725503D01*
X152319977Y-117667629D01*
X152365448Y-117599576D01*
X152396769Y-117523960D01*
X152412737Y-117443686D01*
X152412737Y-117361840D01*
X152396769Y-117281566D01*
X152365448Y-117205950D01*
X152319977Y-117137897D01*
X152262103Y-117080023D01*
X152194050Y-117034552D01*
X152118434Y-117003231D01*
X152038160Y-116987263D01*
X151956314Y-116987263D01*
X151876040Y-117003231D01*
X151800424Y-117034552D01*
X151732371Y-117080023D01*
X151674497Y-117137897D01*
X151629026Y-117205950D01*
X151597705Y-117281566D01*
X151581737Y-117361840D01*
X151581737Y-117443686D01*
X151597705Y-117523960D01*
X151614495Y-117564495D01*
X151573960Y-117547705D01*
X151493686Y-117531737D01*
X151411840Y-117531737D01*
X151331566Y-117547705D01*
X151255950Y-117579026D01*
X151187897Y-117624497D01*
X151130023Y-117682371D01*
X151084552Y-117750424D01*
X151053231Y-117826040D01*
X151037263Y-117906314D01*
X149218263Y-117906314D01*
X149202295Y-117826040D01*
X149185505Y-117785505D01*
X149226040Y-117802295D01*
X149306314Y-117818263D01*
X149388160Y-117818263D01*
X149468434Y-117802295D01*
X149544050Y-117770974D01*
X149612103Y-117725503D01*
X149669977Y-117667629D01*
X149715448Y-117599576D01*
X149746769Y-117523960D01*
X149762737Y-117443686D01*
X149762737Y-117361840D01*
X149746769Y-117281566D01*
X149715448Y-117205950D01*
X149669977Y-117137897D01*
X149612103Y-117080023D01*
X149544050Y-117034552D01*
X149468434Y-117003231D01*
X149388160Y-116987263D01*
X149306314Y-116987263D01*
X149226040Y-117003231D01*
X149150424Y-117034552D01*
X149082371Y-117080023D01*
X149024497Y-117137897D01*
X148979026Y-117205950D01*
X148947705Y-117281566D01*
X148931737Y-117361840D01*
X148931737Y-117443686D01*
X148947705Y-117523960D01*
X148964495Y-117564495D01*
X148923960Y-117547705D01*
X148843686Y-117531737D01*
X148761840Y-117531737D01*
X148681566Y-117547705D01*
X148605950Y-117579026D01*
X148537897Y-117624497D01*
X148480023Y-117682371D01*
X148434552Y-117750424D01*
X148403231Y-117826040D01*
X148387263Y-117906314D01*
X147168263Y-117906314D01*
X147152295Y-117826040D01*
X147135505Y-117785505D01*
X147176040Y-117802295D01*
X147256314Y-117818263D01*
X147338160Y-117818263D01*
X147418434Y-117802295D01*
X147494050Y-117770974D01*
X147562103Y-117725503D01*
X147619977Y-117667629D01*
X147665448Y-117599576D01*
X147696769Y-117523960D01*
X147712737Y-117443686D01*
X147712737Y-117361840D01*
X147696769Y-117281566D01*
X147665448Y-117205950D01*
X147619977Y-117137897D01*
X147562103Y-117080023D01*
X147494050Y-117034552D01*
X147418434Y-117003231D01*
X147338160Y-116987263D01*
X147256314Y-116987263D01*
X147176040Y-117003231D01*
X147100424Y-117034552D01*
X147032371Y-117080023D01*
X146974497Y-117137897D01*
X146929026Y-117205950D01*
X146897705Y-117281566D01*
X146881737Y-117361840D01*
X146881737Y-117443686D01*
X146897705Y-117523960D01*
X146914495Y-117564495D01*
X146873960Y-117547705D01*
X146793686Y-117531737D01*
X146711840Y-117531737D01*
X146631566Y-117547705D01*
X146555950Y-117579026D01*
X146487897Y-117624497D01*
X146430023Y-117682371D01*
X146384552Y-117750424D01*
X146353231Y-117826040D01*
X146337263Y-117906314D01*
X145138291Y-117906314D01*
X145127295Y-117851040D01*
X145110505Y-117810505D01*
X145151040Y-117827295D01*
X145231314Y-117843263D01*
X145313160Y-117843263D01*
X145393434Y-117827295D01*
X145469050Y-117795974D01*
X145537103Y-117750503D01*
X145594977Y-117692629D01*
X145640448Y-117624576D01*
X145671769Y-117548960D01*
X145687737Y-117468686D01*
X145687737Y-117386840D01*
X145671769Y-117306566D01*
X145640448Y-117230950D01*
X145594977Y-117162897D01*
X145537103Y-117105023D01*
X145469050Y-117059552D01*
X145393434Y-117028231D01*
X145313160Y-117012263D01*
X145231314Y-117012263D01*
X145151040Y-117028231D01*
X145075424Y-117059552D01*
X145007371Y-117105023D01*
X144949497Y-117162897D01*
X144904026Y-117230950D01*
X144872705Y-117306566D01*
X144856737Y-117386840D01*
X144856737Y-117468686D01*
X144872705Y-117548960D01*
X144889495Y-117589495D01*
X144848960Y-117572705D01*
X144768686Y-117556737D01*
X144686840Y-117556737D01*
X144606566Y-117572705D01*
X144530950Y-117604026D01*
X144462897Y-117649497D01*
X144405023Y-117707371D01*
X144359552Y-117775424D01*
X144328231Y-117851040D01*
X144312263Y-117931314D01*
X143093263Y-117931314D01*
X143093263Y-117906314D01*
X143077295Y-117826040D01*
X143060505Y-117785505D01*
X143101040Y-117802295D01*
X143181314Y-117818263D01*
X143263160Y-117818263D01*
X143343434Y-117802295D01*
X143419050Y-117770974D01*
X143487103Y-117725503D01*
X143544977Y-117667629D01*
X143590448Y-117599576D01*
X143621769Y-117523960D01*
X143637737Y-117443686D01*
X143637737Y-117361840D01*
X143621769Y-117281566D01*
X143590448Y-117205950D01*
X143544977Y-117137897D01*
X143487103Y-117080023D01*
X143419050Y-117034552D01*
X143343434Y-117003231D01*
X143263160Y-116987263D01*
X143181314Y-116987263D01*
X143101040Y-117003231D01*
X143025424Y-117034552D01*
X142957371Y-117080023D01*
X142899497Y-117137897D01*
X142854026Y-117205950D01*
X142822705Y-117281566D01*
X142806737Y-117361840D01*
X142806737Y-117443686D01*
X142822705Y-117523960D01*
X142839495Y-117564495D01*
X142798960Y-117547705D01*
X142718686Y-117531737D01*
X142636840Y-117531737D01*
X142556566Y-117547705D01*
X142480950Y-117579026D01*
X142412897Y-117624497D01*
X142355023Y-117682371D01*
X142309552Y-117750424D01*
X142278231Y-117826040D01*
X142262263Y-117906314D01*
X141018263Y-117906314D01*
X141002295Y-117826040D01*
X140985505Y-117785505D01*
X141026040Y-117802295D01*
X141106314Y-117818263D01*
X141188160Y-117818263D01*
X141268434Y-117802295D01*
X141344050Y-117770974D01*
X141412103Y-117725503D01*
X141469977Y-117667629D01*
X141515448Y-117599576D01*
X141546769Y-117523960D01*
X141562737Y-117443686D01*
X141562737Y-117361840D01*
X141546769Y-117281566D01*
X141515448Y-117205950D01*
X141469977Y-117137897D01*
X141412103Y-117080023D01*
X141344050Y-117034552D01*
X141268434Y-117003231D01*
X141188160Y-116987263D01*
X141106314Y-116987263D01*
X141026040Y-117003231D01*
X140950424Y-117034552D01*
X140882371Y-117080023D01*
X140824497Y-117137897D01*
X140779026Y-117205950D01*
X140747705Y-117281566D01*
X140731737Y-117361840D01*
X140731737Y-117443686D01*
X140747705Y-117523960D01*
X140764495Y-117564495D01*
X140723960Y-117547705D01*
X140643686Y-117531737D01*
X140561840Y-117531737D01*
X140481566Y-117547705D01*
X140405950Y-117579026D01*
X140337897Y-117624497D01*
X140280023Y-117682371D01*
X140234552Y-117750424D01*
X140203231Y-117826040D01*
X140187263Y-117906314D01*
X138968263Y-117906314D01*
X138952295Y-117826040D01*
X138935505Y-117785505D01*
X138976040Y-117802295D01*
X139056314Y-117818263D01*
X139138160Y-117818263D01*
X139218434Y-117802295D01*
X139294050Y-117770974D01*
X139362103Y-117725503D01*
X139419977Y-117667629D01*
X139465448Y-117599576D01*
X139496769Y-117523960D01*
X139512737Y-117443686D01*
X139512737Y-117361840D01*
X139496769Y-117281566D01*
X139465448Y-117205950D01*
X139419977Y-117137897D01*
X139362103Y-117080023D01*
X139294050Y-117034552D01*
X139218434Y-117003231D01*
X139138160Y-116987263D01*
X139056314Y-116987263D01*
X138976040Y-117003231D01*
X138900424Y-117034552D01*
X138832371Y-117080023D01*
X138774497Y-117137897D01*
X138729026Y-117205950D01*
X138697705Y-117281566D01*
X138681737Y-117361840D01*
X138681737Y-117443686D01*
X138697705Y-117523960D01*
X138714495Y-117564495D01*
X138673960Y-117547705D01*
X138593686Y-117531737D01*
X138511840Y-117531737D01*
X138431566Y-117547705D01*
X138355950Y-117579026D01*
X138287897Y-117624497D01*
X138230023Y-117682371D01*
X138184552Y-117750424D01*
X138153231Y-117826040D01*
X138137263Y-117906314D01*
X137581292Y-117906314D01*
X137594977Y-117892629D01*
X137640448Y-117824576D01*
X137671769Y-117748960D01*
X137687737Y-117668686D01*
X137687737Y-117586840D01*
X137671769Y-117506566D01*
X137640448Y-117430950D01*
X137594977Y-117362897D01*
X137537103Y-117305023D01*
X137469050Y-117259552D01*
X137393434Y-117228231D01*
X137313160Y-117212263D01*
X137231314Y-117212263D01*
X137151040Y-117228231D01*
X137075424Y-117259552D01*
X137007371Y-117305023D01*
X136949497Y-117362897D01*
X136904026Y-117430950D01*
X136872705Y-117506566D01*
X136856737Y-117586840D01*
X136856737Y-117668686D01*
X136872705Y-117748960D01*
X136889495Y-117789495D01*
X136848960Y-117772705D01*
X136768686Y-117756737D01*
X136686840Y-117756737D01*
X136606566Y-117772705D01*
X136530950Y-117804026D01*
X136462897Y-117849497D01*
X136405023Y-117907371D01*
X136359552Y-117975424D01*
X136328231Y-118051040D01*
X136312263Y-118131314D01*
X132445120Y-118131314D01*
X132348913Y-118016660D01*
X132333359Y-118001429D01*
X132317981Y-117985942D01*
X132315378Y-117983820D01*
X132170883Y-117867643D01*
X132152655Y-117855715D01*
X132134573Y-117843518D01*
X132131608Y-117841942D01*
X131967299Y-117756043D01*
X131947059Y-117747866D01*
X131926993Y-117739430D01*
X131923786Y-117738462D01*
X131923780Y-117738460D01*
X131923774Y-117738459D01*
X131745915Y-117686112D01*
X131724516Y-117682030D01*
X131703151Y-117677644D01*
X131699809Y-117677317D01*
X131515165Y-117660513D01*
X131493373Y-117660665D01*
X131471570Y-117660512D01*
X131468239Y-117660840D01*
X131468229Y-117660840D01*
X131468220Y-117660842D01*
X131283836Y-117680222D01*
X131262493Y-117684603D01*
X131241074Y-117688688D01*
X131237861Y-117689658D01*
X131237855Y-117689660D01*
X131060743Y-117744485D01*
X131040637Y-117752937D01*
X131020437Y-117761098D01*
X131017472Y-117762674D01*
X130854379Y-117850858D01*
X130836284Y-117863064D01*
X130818068Y-117874983D01*
X130815466Y-117877106D01*
X130672607Y-117995290D01*
X130657234Y-118010771D01*
X130641674Y-118026007D01*
X130639539Y-118028589D01*
X130639533Y-118028595D01*
X130639529Y-118028602D01*
X130522351Y-118172275D01*
X130510293Y-118190423D01*
X130497973Y-118208415D01*
X130496381Y-118211361D01*
X130496376Y-118211369D01*
X130496376Y-118211370D01*
X130409332Y-118375075D01*
X130401026Y-118395228D01*
X130392438Y-118415264D01*
X130391445Y-118418472D01*
X130337857Y-118595966D01*
X130333629Y-118617322D01*
X130329091Y-118638668D01*
X130328741Y-118642008D01*
X130310648Y-118826531D01*
X130309500Y-118838192D01*
X130309501Y-125700381D01*
X129950383Y-126059500D01*
X119949618Y-126059500D01*
X119590500Y-125700383D01*
X119590500Y-120611639D01*
X119650000Y-120617500D01*
X122400000Y-120617500D01*
X122461941Y-120611399D01*
X122521502Y-120593332D01*
X122576394Y-120563992D01*
X122624506Y-120524506D01*
X122663992Y-120476394D01*
X122693332Y-120421502D01*
X122711399Y-120361941D01*
X122717500Y-120300000D01*
X122717500Y-112800000D01*
X122711399Y-112738059D01*
X122693332Y-112678498D01*
X122663992Y-112623606D01*
X122624506Y-112575494D01*
X118203012Y-108154000D01*
X155194790Y-108154000D01*
X159211586Y-112170797D01*
X159219527Y-112180473D01*
X159229203Y-112188414D01*
X159229211Y-112188422D01*
X159258203Y-112212214D01*
X159302328Y-112235800D01*
X159350207Y-112250324D01*
X159387531Y-112254000D01*
X159387542Y-112254000D01*
X159400000Y-112255227D01*
X159412458Y-112254000D01*
X162420000Y-112254000D01*
X162427260Y-112264866D01*
X162485134Y-112322740D01*
X162553187Y-112368211D01*
X162628803Y-112399532D01*
X162709077Y-112415500D01*
X162790923Y-112415500D01*
X162871197Y-112399532D01*
X162946813Y-112368211D01*
X163014866Y-112322740D01*
X163072740Y-112264866D01*
X163118211Y-112196813D01*
X163149532Y-112121197D01*
X163165500Y-112040923D01*
X163165500Y-111959077D01*
X163149532Y-111878803D01*
X163118211Y-111803187D01*
X163072740Y-111735134D01*
X163014866Y-111677260D01*
X162946813Y-111631789D01*
X162871197Y-111600468D01*
X162790923Y-111584500D01*
X162709077Y-111584500D01*
X162628803Y-111600468D01*
X162553187Y-111631789D01*
X162485134Y-111677260D01*
X162427260Y-111735134D01*
X162420000Y-111746000D01*
X159505211Y-111746000D01*
X155520788Y-107761578D01*
X155520784Y-107761575D01*
X155488420Y-107729210D01*
X155480473Y-107719527D01*
X155470791Y-107711581D01*
X155470788Y-107711578D01*
X155456286Y-107699677D01*
X155441797Y-107687786D01*
X155397672Y-107664200D01*
X155349793Y-107649676D01*
X155312469Y-107646000D01*
X155312458Y-107646000D01*
X155300000Y-107644773D01*
X155287542Y-107646000D01*
X117695012Y-107646000D01*
X116724506Y-106675494D01*
X116676394Y-106636008D01*
X116621502Y-106606668D01*
X116561941Y-106588601D01*
X116500000Y-106582500D01*
X112117100Y-106582500D01*
X112178336Y-106549390D01*
X112197130Y-106536714D01*
X112216158Y-106524262D01*
X112218868Y-106522051D01*
X112369246Y-106397647D01*
X112385235Y-106381546D01*
X112401465Y-106365653D01*
X112403695Y-106362957D01*
X112527045Y-106211715D01*
X112539593Y-106192828D01*
X112552436Y-106174072D01*
X112554099Y-106170994D01*
X112645725Y-105998672D01*
X112654367Y-105977704D01*
X112663321Y-105956814D01*
X112664355Y-105953472D01*
X112720764Y-105766636D01*
X112725171Y-105744376D01*
X112729894Y-105722158D01*
X112730259Y-105718679D01*
X112749304Y-105524445D01*
X112750500Y-105512305D01*
X112750500Y-102372897D01*
X153509500Y-102372897D01*
X153509500Y-102627103D01*
X153559093Y-102876425D01*
X153656374Y-103111281D01*
X153797603Y-103322646D01*
X153977354Y-103502397D01*
X154188719Y-103643626D01*
X154423575Y-103740907D01*
X154672897Y-103790500D01*
X154927103Y-103790500D01*
X155176425Y-103740907D01*
X155411281Y-103643626D01*
X155622646Y-103502397D01*
X155802397Y-103322646D01*
X155943626Y-103111281D01*
X156040907Y-102876425D01*
X156090500Y-102627103D01*
X156090500Y-102372897D01*
X156040907Y-102123575D01*
X155943626Y-101888719D01*
X155802397Y-101677354D01*
X155622646Y-101497603D01*
X155411281Y-101356374D01*
X155176425Y-101259093D01*
X154927103Y-101209500D01*
X154672897Y-101209500D01*
X154423575Y-101259093D01*
X154188719Y-101356374D01*
X153977354Y-101497603D01*
X153797603Y-101677354D01*
X153656374Y-101888719D01*
X153559093Y-102123575D01*
X153509500Y-102372897D01*
X112750500Y-102372897D01*
X112750500Y-100250500D01*
X156512305Y-100250500D01*
X156549107Y-100246875D01*
X156596326Y-100232552D01*
X156628228Y-100215500D01*
X157489465Y-100215500D01*
X157652176Y-100231454D01*
G36*
X93403674Y-100232552D02*
G01*
X93450893Y-100246875D01*
X93487695Y-100250500D01*
X110249500Y-100250500D01*
X110249501Y-105512305D01*
X110249585Y-105513161D01*
X110249603Y-105515702D01*
X110250792Y-105527018D01*
X110250792Y-105538406D01*
X110251158Y-105541885D01*
X110272913Y-105735835D01*
X110277631Y-105758033D01*
X110282043Y-105780315D01*
X110283078Y-105783657D01*
X110342091Y-105969687D01*
X110351019Y-105990516D01*
X110359686Y-106011545D01*
X110361350Y-106014622D01*
X110455372Y-106185647D01*
X110468209Y-106204395D01*
X110480763Y-106223290D01*
X110482989Y-106225980D01*
X110482993Y-106225986D01*
X110482998Y-106225991D01*
X110608443Y-106375491D01*
X110624634Y-106391347D01*
X110640662Y-106407487D01*
X110643373Y-106409697D01*
X110795473Y-106531988D01*
X110814424Y-106544389D01*
X110833292Y-106557116D01*
X110836381Y-106558758D01*
X110881795Y-106582500D01*
X107941710Y-106582500D01*
X107562950Y-106203740D01*
X107565500Y-106190923D01*
X107565500Y-106109077D01*
X107549532Y-106028803D01*
X107518211Y-105953187D01*
X107472740Y-105885134D01*
X107414866Y-105827260D01*
X107346813Y-105781789D01*
X107271197Y-105750468D01*
X107190923Y-105734500D01*
X107109077Y-105734500D01*
X107028803Y-105750468D01*
X106953187Y-105781789D01*
X106885134Y-105827260D01*
X106827260Y-105885134D01*
X106781789Y-105953187D01*
X106750468Y-106028803D01*
X106734500Y-106109077D01*
X106734500Y-106190923D01*
X106750468Y-106271197D01*
X106781789Y-106346813D01*
X106827260Y-106414866D01*
X106885134Y-106472740D01*
X106953187Y-106518211D01*
X107028803Y-106549532D01*
X107109077Y-106565500D01*
X107190923Y-106565500D01*
X107203740Y-106562950D01*
X107223290Y-106582500D01*
X105731512Y-106582500D01*
X104224506Y-105075494D01*
X104176394Y-105036008D01*
X104121502Y-105006668D01*
X104061941Y-104988601D01*
X104000000Y-104982500D01*
X99950000Y-104982500D01*
X99888059Y-104988601D01*
X99828498Y-105006668D01*
X99773606Y-105036008D01*
X99725494Y-105075494D01*
X99686008Y-105123606D01*
X99656668Y-105178498D01*
X99638601Y-105238059D01*
X99632500Y-105300000D01*
X99632500Y-113150000D01*
X99638601Y-113211941D01*
X99656668Y-113271502D01*
X99686008Y-113326394D01*
X99692661Y-113334500D01*
X75460544Y-113334500D01*
X75297824Y-113318546D01*
X75151445Y-113274352D01*
X75016434Y-113202565D01*
X74897941Y-113105924D01*
X74800477Y-112988110D01*
X74727753Y-112853610D01*
X74682535Y-112707534D01*
X74665500Y-112545462D01*
X74665500Y-104386517D01*
X75509500Y-104386517D01*
X75509500Y-105113483D01*
X75651324Y-105826479D01*
X75929521Y-106498107D01*
X76333401Y-107102557D01*
X76847443Y-107616599D01*
X77451893Y-108020479D01*
X78123521Y-108298676D01*
X78836517Y-108440500D01*
X79563483Y-108440500D01*
X80276479Y-108298676D01*
X80948107Y-108020479D01*
X81552557Y-107616599D01*
X82066599Y-107102557D01*
X82470479Y-106498107D01*
X82748676Y-105826479D01*
X82890500Y-105113483D01*
X82890500Y-104386517D01*
X82748676Y-103673521D01*
X82470479Y-103001893D01*
X82066599Y-102397443D01*
X82042053Y-102372897D01*
X93909500Y-102372897D01*
X93909500Y-102627103D01*
X93959093Y-102876425D01*
X94056374Y-103111281D01*
X94197603Y-103322646D01*
X94377354Y-103502397D01*
X94588719Y-103643626D01*
X94823575Y-103740907D01*
X95072897Y-103790500D01*
X95327103Y-103790500D01*
X95576425Y-103740907D01*
X95811281Y-103643626D01*
X96022646Y-103502397D01*
X96202397Y-103322646D01*
X96343626Y-103111281D01*
X96440907Y-102876425D01*
X96490500Y-102627103D01*
X96490500Y-102372897D01*
X96440907Y-102123575D01*
X96343626Y-101888719D01*
X96202397Y-101677354D01*
X96022646Y-101497603D01*
X95811281Y-101356374D01*
X95576425Y-101259093D01*
X95327103Y-101209500D01*
X95072897Y-101209500D01*
X94823575Y-101259093D01*
X94588719Y-101356374D01*
X94377354Y-101497603D01*
X94197603Y-101677354D01*
X94056374Y-101888719D01*
X93959093Y-102123575D01*
X93909500Y-102372897D01*
X82042053Y-102372897D01*
X81552557Y-101883401D01*
X80948107Y-101479521D01*
X80276479Y-101201324D01*
X79563483Y-101059500D01*
X78836517Y-101059500D01*
X78123521Y-101201324D01*
X77451893Y-101479521D01*
X76847443Y-101883401D01*
X76333401Y-102397443D01*
X75929521Y-103001893D01*
X75651324Y-103673521D01*
X75509500Y-104386517D01*
X74665500Y-104386517D01*
X74665500Y-101010535D01*
X74681454Y-100847824D01*
X74725648Y-100701445D01*
X74797433Y-100566437D01*
X74894077Y-100447941D01*
X75011893Y-100350475D01*
X75146392Y-100277752D01*
X75292466Y-100232535D01*
X75454537Y-100215500D01*
X93371772Y-100215500D01*
X93403674Y-100232552D01*
G37*
X93403674Y-100232552D02*
X93450893Y-100246875D01*
X93487695Y-100250500D01*
X110249500Y-100250500D01*
X110249501Y-105512305D01*
X110249585Y-105513161D01*
X110249603Y-105515702D01*
X110250792Y-105527018D01*
X110250792Y-105538406D01*
X110251158Y-105541885D01*
X110272913Y-105735835D01*
X110277631Y-105758033D01*
X110282043Y-105780315D01*
X110283078Y-105783657D01*
X110342091Y-105969687D01*
X110351019Y-105990516D01*
X110359686Y-106011545D01*
X110361350Y-106014622D01*
X110455372Y-106185647D01*
X110468209Y-106204395D01*
X110480763Y-106223290D01*
X110482989Y-106225980D01*
X110482993Y-106225986D01*
X110482998Y-106225991D01*
X110608443Y-106375491D01*
X110624634Y-106391347D01*
X110640662Y-106407487D01*
X110643373Y-106409697D01*
X110795473Y-106531988D01*
X110814424Y-106544389D01*
X110833292Y-106557116D01*
X110836381Y-106558758D01*
X110881795Y-106582500D01*
X107941710Y-106582500D01*
X107562950Y-106203740D01*
X107565500Y-106190923D01*
X107565500Y-106109077D01*
X107549532Y-106028803D01*
X107518211Y-105953187D01*
X107472740Y-105885134D01*
X107414866Y-105827260D01*
X107346813Y-105781789D01*
X107271197Y-105750468D01*
X107190923Y-105734500D01*
X107109077Y-105734500D01*
X107028803Y-105750468D01*
X106953187Y-105781789D01*
X106885134Y-105827260D01*
X106827260Y-105885134D01*
X106781789Y-105953187D01*
X106750468Y-106028803D01*
X106734500Y-106109077D01*
X106734500Y-106190923D01*
X106750468Y-106271197D01*
X106781789Y-106346813D01*
X106827260Y-106414866D01*
X106885134Y-106472740D01*
X106953187Y-106518211D01*
X107028803Y-106549532D01*
X107109077Y-106565500D01*
X107190923Y-106565500D01*
X107203740Y-106562950D01*
X107223290Y-106582500D01*
X105731512Y-106582500D01*
X104224506Y-105075494D01*
X104176394Y-105036008D01*
X104121502Y-105006668D01*
X104061941Y-104988601D01*
X104000000Y-104982500D01*
X99950000Y-104982500D01*
X99888059Y-104988601D01*
X99828498Y-105006668D01*
X99773606Y-105036008D01*
X99725494Y-105075494D01*
X99686008Y-105123606D01*
X99656668Y-105178498D01*
X99638601Y-105238059D01*
X99632500Y-105300000D01*
X99632500Y-113150000D01*
X99638601Y-113211941D01*
X99656668Y-113271502D01*
X99686008Y-113326394D01*
X99692661Y-113334500D01*
X75460544Y-113334500D01*
X75297824Y-113318546D01*
X75151445Y-113274352D01*
X75016434Y-113202565D01*
X74897941Y-113105924D01*
X74800477Y-112988110D01*
X74727753Y-112853610D01*
X74682535Y-112707534D01*
X74665500Y-112545462D01*
X74665500Y-104386517D01*
X75509500Y-104386517D01*
X75509500Y-105113483D01*
X75651324Y-105826479D01*
X75929521Y-106498107D01*
X76333401Y-107102557D01*
X76847443Y-107616599D01*
X77451893Y-108020479D01*
X78123521Y-108298676D01*
X78836517Y-108440500D01*
X79563483Y-108440500D01*
X80276479Y-108298676D01*
X80948107Y-108020479D01*
X81552557Y-107616599D01*
X82066599Y-107102557D01*
X82470479Y-106498107D01*
X82748676Y-105826479D01*
X82890500Y-105113483D01*
X82890500Y-104386517D01*
X82748676Y-103673521D01*
X82470479Y-103001893D01*
X82066599Y-102397443D01*
X82042053Y-102372897D01*
X93909500Y-102372897D01*
X93909500Y-102627103D01*
X93959093Y-102876425D01*
X94056374Y-103111281D01*
X94197603Y-103322646D01*
X94377354Y-103502397D01*
X94588719Y-103643626D01*
X94823575Y-103740907D01*
X95072897Y-103790500D01*
X95327103Y-103790500D01*
X95576425Y-103740907D01*
X95811281Y-103643626D01*
X96022646Y-103502397D01*
X96202397Y-103322646D01*
X96343626Y-103111281D01*
X96440907Y-102876425D01*
X96490500Y-102627103D01*
X96490500Y-102372897D01*
X96440907Y-102123575D01*
X96343626Y-101888719D01*
X96202397Y-101677354D01*
X96022646Y-101497603D01*
X95811281Y-101356374D01*
X95576425Y-101259093D01*
X95327103Y-101209500D01*
X95072897Y-101209500D01*
X94823575Y-101259093D01*
X94588719Y-101356374D01*
X94377354Y-101497603D01*
X94197603Y-101677354D01*
X94056374Y-101888719D01*
X93959093Y-102123575D01*
X93909500Y-102372897D01*
X82042053Y-102372897D01*
X81552557Y-101883401D01*
X80948107Y-101479521D01*
X80276479Y-101201324D01*
X79563483Y-101059500D01*
X78836517Y-101059500D01*
X78123521Y-101201324D01*
X77451893Y-101479521D01*
X76847443Y-101883401D01*
X76333401Y-102397443D01*
X75929521Y-103001893D01*
X75651324Y-103673521D01*
X75509500Y-104386517D01*
X74665500Y-104386517D01*
X74665500Y-101010535D01*
X74681454Y-100847824D01*
X74725648Y-100701445D01*
X74797433Y-100566437D01*
X74894077Y-100447941D01*
X75011893Y-100350475D01*
X75146392Y-100277752D01*
X75292466Y-100232535D01*
X75454537Y-100215500D01*
X93371772Y-100215500D01*
X93403674Y-100232552D01*
%TO.N,+12V*%
G36*
X105555099Y-106944901D02*
G01*
X105564721Y-106952798D01*
X105575700Y-106958666D01*
X105587612Y-106962280D01*
X105600000Y-106963500D01*
X107424685Y-106963500D01*
X107717363Y-107256179D01*
X107729289Y-107270711D01*
X107743821Y-107282637D01*
X107743824Y-107282640D01*
X107769160Y-107303432D01*
X107787304Y-107318322D01*
X107853492Y-107353701D01*
X107925311Y-107375487D01*
X107981287Y-107381000D01*
X107981290Y-107381000D01*
X108000000Y-107382843D01*
X108018710Y-107381000D01*
X114642186Y-107381000D01*
X115417359Y-108156174D01*
X115429289Y-108170711D01*
X115443824Y-108182639D01*
X115487303Y-108218322D01*
X115533528Y-108243030D01*
X115553492Y-108253701D01*
X115625311Y-108275487D01*
X115681287Y-108281000D01*
X115681289Y-108281000D01*
X115699999Y-108282843D01*
X115718709Y-108281000D01*
X117791198Y-108281000D01*
X122336500Y-112826302D01*
X122336500Y-120236500D01*
X119717500Y-120236500D01*
X119717500Y-117881949D01*
X119713500Y-117841338D01*
X119713500Y-115521711D01*
X119734484Y-115453922D01*
X119742491Y-115377739D01*
X119742490Y-115372259D01*
X119742312Y-115346777D01*
X119740449Y-115329051D01*
X119740449Y-115311217D01*
X119739876Y-115305767D01*
X119713500Y-115070621D01*
X119713500Y-113150000D01*
X119712280Y-113137612D01*
X119708666Y-113125700D01*
X119702798Y-113114721D01*
X119694901Y-113105099D01*
X119685279Y-113097202D01*
X119674300Y-113091334D01*
X119662388Y-113087720D01*
X119650000Y-113086500D01*
X100013500Y-113086500D01*
X100013500Y-111196568D01*
X104207500Y-111196568D01*
X104207500Y-111303432D01*
X104228348Y-111408241D01*
X104269243Y-111506970D01*
X104328613Y-111595824D01*
X104404176Y-111671387D01*
X104493030Y-111730757D01*
X104591759Y-111771652D01*
X104696568Y-111792500D01*
X104803432Y-111792500D01*
X104908241Y-111771652D01*
X105006970Y-111730757D01*
X105095824Y-111671387D01*
X105171387Y-111595824D01*
X105230757Y-111506970D01*
X105271652Y-111408241D01*
X105292500Y-111303432D01*
X105292500Y-111196568D01*
X105507500Y-111196568D01*
X105507500Y-111303432D01*
X105528348Y-111408241D01*
X105569243Y-111506970D01*
X105628613Y-111595824D01*
X105704176Y-111671387D01*
X105793030Y-111730757D01*
X105891759Y-111771652D01*
X105996568Y-111792500D01*
X106103432Y-111792500D01*
X106208241Y-111771652D01*
X106306970Y-111730757D01*
X106395824Y-111671387D01*
X106471387Y-111595824D01*
X106530757Y-111506970D01*
X106571652Y-111408241D01*
X106592500Y-111303432D01*
X106592500Y-111196568D01*
X106571652Y-111091759D01*
X106530757Y-110993030D01*
X106471387Y-110904176D01*
X106395824Y-110828613D01*
X106306970Y-110769243D01*
X106208241Y-110728348D01*
X106103432Y-110707500D01*
X105996568Y-110707500D01*
X105891759Y-110728348D01*
X105793030Y-110769243D01*
X105704176Y-110828613D01*
X105628613Y-110904176D01*
X105569243Y-110993030D01*
X105528348Y-111091759D01*
X105507500Y-111196568D01*
X105292500Y-111196568D01*
X105271652Y-111091759D01*
X105230757Y-110993030D01*
X105171387Y-110904176D01*
X105095824Y-110828613D01*
X105006970Y-110769243D01*
X104908241Y-110728348D01*
X104803432Y-110707500D01*
X104696568Y-110707500D01*
X104591759Y-110728348D01*
X104493030Y-110769243D01*
X104404176Y-110828613D01*
X104328613Y-110904176D01*
X104269243Y-110993030D01*
X104228348Y-111091759D01*
X104207500Y-111196568D01*
X100013500Y-111196568D01*
X100013500Y-107946568D01*
X113457500Y-107946568D01*
X113457500Y-108053432D01*
X113478348Y-108158241D01*
X113519243Y-108256970D01*
X113578613Y-108345824D01*
X113654176Y-108421387D01*
X113743030Y-108480757D01*
X113841759Y-108521652D01*
X113946568Y-108542500D01*
X114053432Y-108542500D01*
X114158241Y-108521652D01*
X114256970Y-108480757D01*
X114345824Y-108421387D01*
X114421387Y-108345824D01*
X114480757Y-108256970D01*
X114521652Y-108158241D01*
X114542500Y-108053432D01*
X114542500Y-107946568D01*
X114521652Y-107841759D01*
X114480757Y-107743030D01*
X114421387Y-107654176D01*
X114345824Y-107578613D01*
X114256970Y-107519243D01*
X114158241Y-107478348D01*
X114053432Y-107457500D01*
X113946568Y-107457500D01*
X113841759Y-107478348D01*
X113743030Y-107519243D01*
X113654176Y-107578613D01*
X113578613Y-107654176D01*
X113519243Y-107743030D01*
X113478348Y-107841759D01*
X113457500Y-107946568D01*
X100013500Y-107946568D01*
X100013500Y-105363500D01*
X103973698Y-105363500D01*
X105555099Y-106944901D01*
G37*
X105555099Y-106944901D02*
X105564721Y-106952798D01*
X105575700Y-106958666D01*
X105587612Y-106962280D01*
X105600000Y-106963500D01*
X107424685Y-106963500D01*
X107717363Y-107256179D01*
X107729289Y-107270711D01*
X107743821Y-107282637D01*
X107743824Y-107282640D01*
X107769160Y-107303432D01*
X107787304Y-107318322D01*
X107853492Y-107353701D01*
X107925311Y-107375487D01*
X107981287Y-107381000D01*
X107981290Y-107381000D01*
X108000000Y-107382843D01*
X108018710Y-107381000D01*
X114642186Y-107381000D01*
X115417359Y-108156174D01*
X115429289Y-108170711D01*
X115443824Y-108182639D01*
X115487303Y-108218322D01*
X115533528Y-108243030D01*
X115553492Y-108253701D01*
X115625311Y-108275487D01*
X115681287Y-108281000D01*
X115681289Y-108281000D01*
X115699999Y-108282843D01*
X115718709Y-108281000D01*
X117791198Y-108281000D01*
X122336500Y-112826302D01*
X122336500Y-120236500D01*
X119717500Y-120236500D01*
X119717500Y-117881949D01*
X119713500Y-117841338D01*
X119713500Y-115521711D01*
X119734484Y-115453922D01*
X119742491Y-115377739D01*
X119742490Y-115372259D01*
X119742312Y-115346777D01*
X119740449Y-115329051D01*
X119740449Y-115311217D01*
X119739876Y-115305767D01*
X119713500Y-115070621D01*
X119713500Y-113150000D01*
X119712280Y-113137612D01*
X119708666Y-113125700D01*
X119702798Y-113114721D01*
X119694901Y-113105099D01*
X119685279Y-113097202D01*
X119674300Y-113091334D01*
X119662388Y-113087720D01*
X119650000Y-113086500D01*
X100013500Y-113086500D01*
X100013500Y-111196568D01*
X104207500Y-111196568D01*
X104207500Y-111303432D01*
X104228348Y-111408241D01*
X104269243Y-111506970D01*
X104328613Y-111595824D01*
X104404176Y-111671387D01*
X104493030Y-111730757D01*
X104591759Y-111771652D01*
X104696568Y-111792500D01*
X104803432Y-111792500D01*
X104908241Y-111771652D01*
X105006970Y-111730757D01*
X105095824Y-111671387D01*
X105171387Y-111595824D01*
X105230757Y-111506970D01*
X105271652Y-111408241D01*
X105292500Y-111303432D01*
X105292500Y-111196568D01*
X105507500Y-111196568D01*
X105507500Y-111303432D01*
X105528348Y-111408241D01*
X105569243Y-111506970D01*
X105628613Y-111595824D01*
X105704176Y-111671387D01*
X105793030Y-111730757D01*
X105891759Y-111771652D01*
X105996568Y-111792500D01*
X106103432Y-111792500D01*
X106208241Y-111771652D01*
X106306970Y-111730757D01*
X106395824Y-111671387D01*
X106471387Y-111595824D01*
X106530757Y-111506970D01*
X106571652Y-111408241D01*
X106592500Y-111303432D01*
X106592500Y-111196568D01*
X106571652Y-111091759D01*
X106530757Y-110993030D01*
X106471387Y-110904176D01*
X106395824Y-110828613D01*
X106306970Y-110769243D01*
X106208241Y-110728348D01*
X106103432Y-110707500D01*
X105996568Y-110707500D01*
X105891759Y-110728348D01*
X105793030Y-110769243D01*
X105704176Y-110828613D01*
X105628613Y-110904176D01*
X105569243Y-110993030D01*
X105528348Y-111091759D01*
X105507500Y-111196568D01*
X105292500Y-111196568D01*
X105271652Y-111091759D01*
X105230757Y-110993030D01*
X105171387Y-110904176D01*
X105095824Y-110828613D01*
X105006970Y-110769243D01*
X104908241Y-110728348D01*
X104803432Y-110707500D01*
X104696568Y-110707500D01*
X104591759Y-110728348D01*
X104493030Y-110769243D01*
X104404176Y-110828613D01*
X104328613Y-110904176D01*
X104269243Y-110993030D01*
X104228348Y-111091759D01*
X104207500Y-111196568D01*
X100013500Y-111196568D01*
X100013500Y-107946568D01*
X113457500Y-107946568D01*
X113457500Y-108053432D01*
X113478348Y-108158241D01*
X113519243Y-108256970D01*
X113578613Y-108345824D01*
X113654176Y-108421387D01*
X113743030Y-108480757D01*
X113841759Y-108521652D01*
X113946568Y-108542500D01*
X114053432Y-108542500D01*
X114158241Y-108521652D01*
X114256970Y-108480757D01*
X114345824Y-108421387D01*
X114421387Y-108345824D01*
X114480757Y-108256970D01*
X114521652Y-108158241D01*
X114542500Y-108053432D01*
X114542500Y-107946568D01*
X114521652Y-107841759D01*
X114480757Y-107743030D01*
X114421387Y-107654176D01*
X114345824Y-107578613D01*
X114256970Y-107519243D01*
X114158241Y-107478348D01*
X114053432Y-107457500D01*
X113946568Y-107457500D01*
X113841759Y-107478348D01*
X113743030Y-107519243D01*
X113654176Y-107578613D01*
X113578613Y-107654176D01*
X113519243Y-107743030D01*
X113478348Y-107841759D01*
X113457500Y-107946568D01*
X100013500Y-107946568D01*
X100013500Y-105363500D01*
X103973698Y-105363500D01*
X105555099Y-106944901D01*
%TD*%
M02*
