%TF.GenerationSoftware,KiCad,Pcbnew,5.1.5+dfsg1-2build2*%
%TF.CreationDate,2020-11-04T23:41:29+01:00*%
%TF.ProjectId,HPE_FlexibleLOM_adapter_x4,4850455f-466c-4657-9869-626c654c4f4d,1.0 11.2020*%
%TF.SameCoordinates,Original*%
%TF.FileFunction,Legend,Bot*%
%TF.FilePolarity,Positive*%
%FSLAX46Y46*%
G04 Gerber Fmt 4.6, Leading zero omitted, Abs format (unit mm)*
G04 Created by KiCad (PCBNEW 5.1.5+dfsg1-2build2) date 2020-11-04 23:41:29*
%MOMM*%
%LPD*%
G04 APERTURE LIST*
%ADD10C,0.150000*%
%ADD11C,0.120000*%
G04 APERTURE END LIST*
D10*
X110809523Y-111085000D02*
X109809523Y-111085000D01*
X110571428Y-112452380D02*
X110571428Y-111452380D01*
X110190476Y-111452380D01*
X110095238Y-111500000D01*
X110047619Y-111547619D01*
X110000000Y-111642857D01*
X110000000Y-111785714D01*
X110047619Y-111880952D01*
X110095238Y-111928571D01*
X110190476Y-111976190D01*
X110571428Y-111976190D01*
X109809523Y-111085000D02*
X108904761Y-111085000D01*
X109571428Y-111928571D02*
X109238095Y-111928571D01*
X109095238Y-112452380D02*
X109571428Y-112452380D01*
X109571428Y-111452380D01*
X109095238Y-111452380D01*
X108904761Y-111085000D02*
X107904761Y-111085000D01*
X108095238Y-112452380D02*
X108428571Y-111976190D01*
X108666666Y-112452380D02*
X108666666Y-111452380D01*
X108285714Y-111452380D01*
X108190476Y-111500000D01*
X108142857Y-111547619D01*
X108095238Y-111642857D01*
X108095238Y-111785714D01*
X108142857Y-111880952D01*
X108190476Y-111928571D01*
X108285714Y-111976190D01*
X108666666Y-111976190D01*
X107904761Y-111085000D02*
X106952380Y-111085000D01*
X107714285Y-112404761D02*
X107571428Y-112452380D01*
X107333333Y-112452380D01*
X107238095Y-112404761D01*
X107190476Y-112357142D01*
X107142857Y-112261904D01*
X107142857Y-112166666D01*
X107190476Y-112071428D01*
X107238095Y-112023809D01*
X107333333Y-111976190D01*
X107523809Y-111928571D01*
X107619047Y-111880952D01*
X107666666Y-111833333D01*
X107714285Y-111738095D01*
X107714285Y-111642857D01*
X107666666Y-111547619D01*
X107619047Y-111500000D01*
X107523809Y-111452380D01*
X107285714Y-111452380D01*
X107142857Y-111500000D01*
X106952380Y-111085000D02*
X106190476Y-111085000D01*
X106857142Y-111452380D02*
X106285714Y-111452380D01*
X106571428Y-112452380D02*
X106571428Y-111452380D01*
D11*
%TO.C,JP3*%
X107200000Y-108550000D02*
X107500000Y-108250000D01*
X106900000Y-108250000D02*
X107500000Y-108250000D01*
X107200000Y-108550000D02*
X106900000Y-108250000D01*
X106450000Y-108750000D02*
X106450000Y-110750000D01*
X110550000Y-108750000D02*
X106450000Y-108750000D01*
X110550000Y-110750000D02*
X110550000Y-108750000D01*
X106450000Y-110750000D02*
X110550000Y-110750000D01*
%TD*%
M02*
