%TF.GenerationSoftware,KiCad,Pcbnew,5.1.5+dfsg1-2build2*%
%TF.CreationDate,2020-11-04T23:41:29+01:00*%
%TF.ProjectId,HPE_FlexibleLOM_adapter_x4,4850455f-466c-4657-9869-626c654c4f4d,1.0 11.2020*%
%TF.SameCoordinates,Original*%
%TF.FileFunction,Profile,NP*%
%FSLAX46Y46*%
G04 Gerber Fmt 4.6, Leading zero omitted, Abs format (unit mm)*
G04 Created by KiCad (PCBNEW 5.1.5+dfsg1-2build2) date 2020-11-04 23:41:29*
%MOMM*%
%LPD*%
G04 APERTURE LIST*
%TA.AperFunction,Profile*%
%ADD10C,0.050000*%
%TD*%
%TA.AperFunction,Profile*%
%ADD11C,0.150000*%
%TD*%
%TA.AperFunction,Profile*%
%ADD12C,0.120000*%
%TD*%
%TA.AperFunction,Profile*%
%ADD13C,0.100000*%
%TD*%
G04 APERTURE END LIST*
D10*
X74450000Y-101000000D02*
G75*
G02X75450000Y-100000000I1000000J0D01*
G01*
X75450000Y-113550000D02*
G75*
G02X74450000Y-112550000I0J1000000D01*
G01*
X74450000Y-101000000D02*
X74450000Y-112550000D01*
X94500000Y-113550000D02*
X75450000Y-113550000D01*
X167650000Y-110700000D02*
G75*
G02X170650000Y-113700000I0J-3000000D01*
G01*
X161500000Y-110700000D02*
X167650000Y-110700000D01*
X161500000Y-110700000D02*
G75*
G02X158500000Y-107700000I0J3000000D01*
G01*
X157500000Y-100000000D02*
G75*
G02X158500000Y-101000000I0J-1000000D01*
G01*
X158500000Y-101000000D02*
X158500000Y-107700000D01*
X157500000Y-100000000D02*
X156500000Y-100000000D01*
X119350000Y-115375000D02*
X119350000Y-117900000D01*
X115700000Y-121650000D02*
X107700000Y-121650000D01*
X115700000Y-115375000D02*
X115700000Y-121650000D01*
X170650000Y-117900000D02*
X170650000Y-113700000D01*
X75450000Y-100000000D02*
X93500000Y-100000000D01*
D11*
X115700000Y-115375000D02*
G75*
G02X119350000Y-115375000I1825000J0D01*
G01*
D10*
X94500000Y-113550000D02*
X107700000Y-113550000D01*
X107700000Y-113550000D02*
X107700000Y-121650000D01*
D12*
%TO.C,J2*%
X93500000Y-100000000D02*
X110500000Y-100000000D01*
X112500000Y-100000000D02*
X156500000Y-100000000D01*
X112500000Y-105500000D02*
X112500000Y-100000000D01*
X110500000Y-100000000D02*
X110500000Y-105500000D01*
X112500000Y-105500000D02*
G75*
G02X110500000Y-105500000I-1000000J0D01*
G01*
D13*
%TO.C,J1*%
X130550000Y-118850000D02*
G75*
G02X132450000Y-118850000I950000J0D01*
G01*
X130550000Y-118850000D02*
X130550000Y-125800000D01*
X132450000Y-118850000D02*
X132450000Y-125800000D01*
X119350000Y-117900000D02*
X119350000Y-125800000D01*
X119850000Y-126300000D02*
X130050000Y-126300000D01*
X170650000Y-117900000D02*
X170650000Y-125800000D01*
X132950000Y-126300000D02*
X170150000Y-126300000D01*
X119350000Y-125800000D02*
X119850000Y-126300000D01*
X130550000Y-125800000D02*
X130050000Y-126300000D01*
X132450000Y-125800000D02*
X132950000Y-126300000D01*
X170650000Y-125800000D02*
X170150000Y-126300000D01*
%TD*%
M02*
