%TF.GenerationSoftware,KiCad,Pcbnew,5.1.5+dfsg1-2build2*%
%TF.CreationDate,2020-11-04T23:41:29+01:00*%
%TF.ProjectId,HPE_FlexibleLOM_adapter_x4,4850455f-466c-4657-9869-626c654c4f4d,1.0 11.2020*%
%TF.SameCoordinates,Original*%
%TF.FileFunction,Soldermask,Top*%
%TF.FilePolarity,Negative*%
%FSLAX46Y46*%
G04 Gerber Fmt 4.6, Leading zero omitted, Abs format (unit mm)*
G04 Created by KiCad (PCBNEW 5.1.5+dfsg1-2build2) date 2020-11-04 23:41:29*
%MOMM*%
%LPD*%
G04 APERTURE LIST*
%ADD10C,0.100000*%
%ADD11C,7.100000*%
%ADD12C,0.900000*%
%ADD13C,2.300000*%
%ADD14R,0.800000X3.700000*%
%ADD15R,1.100000X1.600000*%
%ADD16R,0.800000X4.400000*%
%ADD17R,0.800000X3.300000*%
G04 APERTURE END LIST*
D10*
G36*
X115700000Y-121650000D02*
G01*
X107700000Y-121650000D01*
X107700000Y-118200000D01*
X115700000Y-118200000D01*
X115700000Y-121650000D01*
G37*
D11*
%TO.C,REF\002A\002A*%
X79200000Y-104750000D03*
D12*
X81825000Y-104750000D03*
X81056155Y-106606155D03*
X79200000Y-107375000D03*
X77343845Y-106606155D03*
X76575000Y-104750000D03*
X77343845Y-102893845D03*
X79200000Y-102125000D03*
X81056155Y-102893845D03*
%TD*%
D13*
%TO.C,J2*%
X95200000Y-102500000D03*
D14*
X100000000Y-103200000D03*
D13*
X154800000Y-102500000D03*
D14*
X113000000Y-103200000D03*
X114000000Y-103200000D03*
X115000000Y-103200000D03*
X116000000Y-103200000D03*
X117000000Y-103200000D03*
X118000000Y-103200000D03*
X119000000Y-103200000D03*
X120000000Y-103200000D03*
X121000000Y-103200000D03*
X122000000Y-103200000D03*
X123000000Y-103200000D03*
X124000000Y-103200000D03*
X125000000Y-103200000D03*
X126000000Y-103200000D03*
X127000000Y-103200000D03*
X128000000Y-103200000D03*
X129000000Y-103200000D03*
X130000000Y-103200000D03*
X131000000Y-103200000D03*
X132000000Y-103200000D03*
X133000000Y-103200000D03*
X134000000Y-103200000D03*
X135000000Y-103200000D03*
X136000000Y-103200000D03*
X137000000Y-103200000D03*
X138000000Y-103200000D03*
X139000000Y-103200000D03*
X140000000Y-103200000D03*
X141000000Y-103200000D03*
X142000000Y-103200000D03*
X143000000Y-103200000D03*
X144000000Y-103200000D03*
X145000000Y-103200000D03*
X146000000Y-103200000D03*
X147000000Y-103200000D03*
X148000000Y-103200000D03*
X149000000Y-103200000D03*
X150000000Y-103200000D03*
X101000000Y-103200000D03*
X102000000Y-103200000D03*
X103000000Y-103200000D03*
X104000000Y-103200000D03*
X105000000Y-103200000D03*
X106000000Y-103200000D03*
X107000000Y-103200000D03*
X108000000Y-103200000D03*
X109000000Y-103200000D03*
X110000000Y-103200000D03*
%TD*%
D15*
%TO.C,JP2*%
X97350000Y-107000000D03*
X98650000Y-107000000D03*
%TD*%
%TO.C,JP4*%
X104750000Y-109750000D03*
X106050000Y-109750000D03*
X103450000Y-109750000D03*
%TD*%
%TO.C,JP1*%
X113850000Y-109750000D03*
X115150000Y-109750000D03*
%TD*%
D16*
%TO.C,J1*%
X134000000Y-122850000D03*
X133000000Y-122850000D03*
X139000000Y-122850000D03*
X138000000Y-122850000D03*
X137000000Y-122850000D03*
X136000000Y-122850000D03*
X135000000Y-122850000D03*
X130000000Y-122850000D03*
X129000000Y-122850000D03*
X128000000Y-122850000D03*
X127000000Y-122850000D03*
X126000000Y-122850000D03*
X125000000Y-122850000D03*
X124000000Y-122850000D03*
X123000000Y-122850000D03*
X122000000Y-122850000D03*
X121000000Y-122850000D03*
X120000000Y-122850000D03*
X140000000Y-122850000D03*
X141000000Y-122850000D03*
X142000000Y-122850000D03*
X143000000Y-122850000D03*
X144000000Y-122850000D03*
X145000000Y-122850000D03*
X146000000Y-122850000D03*
X147000000Y-122850000D03*
X148000000Y-122850000D03*
X149000000Y-122850000D03*
X150000000Y-122850000D03*
X151000000Y-122850000D03*
X152000000Y-122850000D03*
X153000000Y-122850000D03*
X154000000Y-122850000D03*
X155000000Y-122850000D03*
X156000000Y-122850000D03*
X157000000Y-122850000D03*
X158000000Y-122850000D03*
X159000000Y-122850000D03*
X160000000Y-122850000D03*
X161000000Y-122850000D03*
X162000000Y-122850000D03*
X163000000Y-122850000D03*
X164000000Y-122850000D03*
X165000000Y-122850000D03*
X166000000Y-122850000D03*
X167000000Y-122850000D03*
X168000000Y-122850000D03*
D17*
X169000000Y-122300000D03*
D16*
X170000000Y-122850000D03*
%TD*%
M02*
