%TF.GenerationSoftware,KiCad,Pcbnew,5.1.5+dfsg1-2build2*%
%TF.CreationDate,2020-11-04T23:41:29+01:00*%
%TF.ProjectId,HPE_FlexibleLOM_adapter_x4,4850455f-466c-4657-9869-626c654c4f4d,1.0 11.2020*%
%TF.SameCoordinates,Original*%
%TF.FileFunction,Copper,L3,Inr*%
%TF.FilePolarity,Positive*%
%FSLAX46Y46*%
G04 Gerber Fmt 4.6, Leading zero omitted, Abs format (unit mm)*
G04 Created by KiCad (PCBNEW 5.1.5+dfsg1-2build2) date 2020-11-04 23:41:29*
%MOMM*%
%LPD*%
G04 APERTURE LIST*
%TA.AperFunction,ViaPad*%
%ADD10C,7.000000*%
%TD*%
%TA.AperFunction,ViaPad*%
%ADD11C,0.800000*%
%TD*%
%TA.AperFunction,ViaPad*%
%ADD12C,0.450000*%
%TD*%
%TA.AperFunction,Conductor*%
%ADD13C,0.127000*%
%TD*%
G04 APERTURE END LIST*
D10*
%TO.N,N/C*%
%TO.C,REF\002A\002A*%
X79200000Y-104750000D03*
D11*
X81825000Y-104750000D03*
X81056155Y-106606155D03*
X79200000Y-107375000D03*
X77343845Y-106606155D03*
X76575000Y-104750000D03*
X77343845Y-102893845D03*
X79200000Y-102125000D03*
X81056155Y-102893845D03*
%TD*%
D12*
%TO.N,/TX7-*%
X164297237Y-117402763D03*
%TO.N,/TX7+*%
X163752763Y-117947237D03*
%TO.N,/TX6-*%
X160197237Y-117402763D03*
%TO.N,/TX0-*%
X135885000Y-118900000D03*
%TO.N,/TX0+*%
X135115000Y-118900000D03*
%TO.N,+3V3*%
X114000000Y-108000000D03*
%TO.N,+12V*%
X121999999Y-118400000D03*
X120500000Y-118400000D03*
X121250000Y-118400000D03*
X120500000Y-120000000D03*
X122000000Y-120000000D03*
X122000000Y-119200000D03*
X121250000Y-117600000D03*
X122000000Y-117600000D03*
X121249999Y-120000000D03*
X121250000Y-119200000D03*
X120500000Y-117600000D03*
X120500000Y-119200000D03*
X100300000Y-105650000D03*
X100300001Y-107150000D03*
X100300000Y-106399999D03*
X102700000Y-107150000D03*
X102700000Y-105650000D03*
X102700000Y-106400000D03*
X101900000Y-105650000D03*
X101900000Y-106400000D03*
X101900000Y-107150000D03*
X101100000Y-107150000D03*
X101100000Y-106400000D03*
X101100000Y-105650000D03*
%TO.N,/RX0-*%
X137272237Y-117627763D03*
%TO.N,/RX0+*%
X136727763Y-118172237D03*
%TO.N,/RX1+*%
X140602763Y-117947237D03*
%TO.N,/RX1-*%
X141147237Y-117402763D03*
%TO.N,/RX2+*%
X144727763Y-117972237D03*
%TO.N,/RX2-*%
X145272237Y-117427763D03*
%TO.N,/RX3+*%
X148802763Y-117947237D03*
%TO.N,/RX3-*%
X149347237Y-117402763D03*
%TO.N,/TX1+*%
X138552763Y-117947237D03*
%TO.N,/TX1-*%
X139097237Y-117402763D03*
%TO.N,/TX2+*%
X142677763Y-117947237D03*
%TO.N,/TX2-*%
X143222237Y-117402763D03*
%TO.N,/TX3+*%
X146752763Y-117947237D03*
%TO.N,/TX3-*%
X147297237Y-117402763D03*
%TO.N,/RX4+*%
X153502763Y-117947237D03*
%TO.N,/RX4-*%
X154047237Y-117402763D03*
%TO.N,/RX5+*%
X157577763Y-117947237D03*
%TO.N,/RX5-*%
X158122237Y-117402763D03*
%TO.N,/RX6+*%
X161702763Y-117947237D03*
%TO.N,/RX6-*%
X162247237Y-117402763D03*
%TO.N,/RX7+*%
X165802763Y-117947237D03*
%TO.N,/RX7-*%
X166347237Y-117402763D03*
%TO.N,/TX4+*%
X151452763Y-117947237D03*
%TO.N,/TX4-*%
X151997237Y-117402763D03*
%TO.N,/TX5+*%
X155552763Y-117947237D03*
%TO.N,/TX5-*%
X156097237Y-117402763D03*
%TO.N,/TX6+*%
X159652763Y-117947237D03*
%TO.N,Net-(J1-PadA1)*%
X104750000Y-111250000D03*
%TO.N,GND*%
X124050000Y-113700000D03*
X155300000Y-120200000D03*
X157300000Y-120200000D03*
X161300000Y-120200000D03*
X133300000Y-119800000D03*
X136600000Y-119800000D03*
X139400000Y-119800000D03*
X138500000Y-119800000D03*
X141600000Y-119800000D03*
X143400000Y-119800000D03*
X145600000Y-119800000D03*
X147400000Y-119800000D03*
X149600000Y-119800000D03*
X152300000Y-119800000D03*
X169700000Y-119800000D03*
X167400000Y-120100000D03*
X165300000Y-120200000D03*
X159300000Y-120200000D03*
X123000000Y-120000000D03*
X126000000Y-120000000D03*
X125000000Y-120000000D03*
X124000000Y-120000000D03*
X134000000Y-101000000D03*
X135000000Y-101000000D03*
X131000000Y-101000000D03*
X130000000Y-101000000D03*
X126000000Y-101000000D03*
X127000000Y-101000000D03*
X123000000Y-101000000D03*
X122000000Y-101000000D03*
X119000000Y-101000000D03*
X116000000Y-101000000D03*
X114000000Y-101000000D03*
X138000000Y-101000000D03*
X139000000Y-101000000D03*
X142000000Y-101000000D03*
X143000000Y-101000000D03*
X146000000Y-101000000D03*
X147000000Y-101000000D03*
X150000000Y-101000000D03*
X107000000Y-100750000D03*
X104000000Y-100750000D03*
X106000000Y-100750000D03*
X105000000Y-100750000D03*
X121000000Y-101000000D03*
X120000000Y-101000000D03*
X117000000Y-101000000D03*
X124000000Y-101000000D03*
X125000000Y-101000000D03*
X128000000Y-101000000D03*
X129000000Y-101000000D03*
X132000000Y-101000000D03*
X133000000Y-101000000D03*
X136000000Y-101000000D03*
X137000000Y-101000000D03*
X140000000Y-101000000D03*
X141000000Y-101000000D03*
X144000000Y-101000000D03*
X145000000Y-101000000D03*
X148000000Y-101000000D03*
X149000000Y-101000000D03*
X110000000Y-100500000D03*
X113000000Y-100500000D03*
X92500000Y-100500000D03*
X92000000Y-101000000D03*
X99250000Y-113000000D03*
X94500000Y-113000000D03*
X119500000Y-105500000D03*
X121500000Y-105500000D03*
X123500000Y-105500000D03*
X125500000Y-105500000D03*
X127500000Y-105500000D03*
X129500000Y-105500000D03*
X131500000Y-105500000D03*
X133500000Y-105500000D03*
X135500000Y-105500000D03*
X137500000Y-105500000D03*
X139500000Y-105500000D03*
X141500000Y-105500000D03*
X143500000Y-105500000D03*
X145500000Y-105500000D03*
X147500000Y-105500000D03*
X157500000Y-100500000D03*
X167500000Y-111250000D03*
X170000000Y-113750000D03*
X133500000Y-108500000D03*
X135500000Y-108500000D03*
X153750000Y-108500000D03*
X119000000Y-108500000D03*
X139750000Y-108500000D03*
X129500000Y-108500000D03*
X158000000Y-107500000D03*
X161750000Y-111250000D03*
X144100000Y-113700000D03*
X137900000Y-113700000D03*
X132850000Y-113700000D03*
X113000000Y-106250000D03*
X110000000Y-106250000D03*
X117750000Y-107250000D03*
X158000000Y-101000000D03*
X88050000Y-112100000D03*
X86000000Y-106150000D03*
X83250000Y-101450000D03*
X75300000Y-101050000D03*
X75300000Y-107100000D03*
X80500000Y-109350000D03*
X84900000Y-108500000D03*
X78400000Y-111650000D03*
X89100000Y-101150000D03*
X91500000Y-107000000D03*
%TO.N,/PRSNT_x4*%
X151500000Y-119000000D03*
X106050000Y-111250000D03*
%TO.N,/PRSNT_x8*%
X162750000Y-112000000D03*
X107150000Y-106150000D03*
%TD*%
D13*
%TO.N,/PRSNT_x4*%
X145100000Y-112250000D02*
X107050000Y-112250000D01*
X107050000Y-112250000D02*
X106050000Y-111250000D01*
X146134218Y-113284218D02*
X145100000Y-112250000D01*
X146550000Y-113700000D02*
X146134218Y-113284218D01*
X150350000Y-117500000D02*
X146550000Y-113700000D01*
X150350000Y-117850000D02*
X150350000Y-117500000D01*
X151500000Y-119000000D02*
X150350000Y-117850000D01*
%TD*%
%TO.N,GND*%
G36*
X93403674Y-100232552D02*
G01*
X93450893Y-100246875D01*
X93487695Y-100250500D01*
X110249500Y-100250500D01*
X110249501Y-105512305D01*
X110249585Y-105513161D01*
X110249603Y-105515702D01*
X110250792Y-105527018D01*
X110250792Y-105538406D01*
X110251158Y-105541885D01*
X110272913Y-105735835D01*
X110277631Y-105758033D01*
X110282043Y-105780315D01*
X110283078Y-105783657D01*
X110342091Y-105969687D01*
X110351019Y-105990516D01*
X110359686Y-106011545D01*
X110361350Y-106014622D01*
X110455372Y-106185647D01*
X110468209Y-106204395D01*
X110480763Y-106223290D01*
X110482989Y-106225980D01*
X110482993Y-106225986D01*
X110482998Y-106225991D01*
X110608443Y-106375491D01*
X110624634Y-106391347D01*
X110640662Y-106407487D01*
X110643373Y-106409697D01*
X110795473Y-106531988D01*
X110814424Y-106544389D01*
X110833292Y-106557116D01*
X110836381Y-106558758D01*
X111009336Y-106649177D01*
X111030357Y-106657670D01*
X111051318Y-106666482D01*
X111054663Y-106667491D01*
X111054669Y-106667493D01*
X111241893Y-106722595D01*
X111264159Y-106726842D01*
X111286433Y-106731415D01*
X111289915Y-106731756D01*
X111484276Y-106749445D01*
X111506981Y-106749287D01*
X111529685Y-106749445D01*
X111533166Y-106749104D01*
X111727263Y-106728703D01*
X111749494Y-106724139D01*
X111771804Y-106719884D01*
X111775151Y-106718873D01*
X111775157Y-106718871D01*
X111961591Y-106661160D01*
X111982504Y-106652369D01*
X112003571Y-106643858D01*
X112006655Y-106642217D01*
X112006660Y-106642215D01*
X112006664Y-106642212D01*
X112178336Y-106549390D01*
X112197130Y-106536714D01*
X112216158Y-106524262D01*
X112218868Y-106522051D01*
X112369246Y-106397647D01*
X112385235Y-106381546D01*
X112401465Y-106365653D01*
X112403695Y-106362957D01*
X112527045Y-106211715D01*
X112539593Y-106192828D01*
X112552436Y-106174072D01*
X112554099Y-106170994D01*
X112645725Y-105998672D01*
X112654367Y-105977704D01*
X112663321Y-105956814D01*
X112664355Y-105953472D01*
X112720764Y-105766636D01*
X112725171Y-105744376D01*
X112729894Y-105722158D01*
X112730259Y-105718679D01*
X112749304Y-105524445D01*
X112750500Y-105512305D01*
X112750500Y-102372897D01*
X153509500Y-102372897D01*
X153509500Y-102627103D01*
X153559093Y-102876425D01*
X153656374Y-103111281D01*
X153797603Y-103322646D01*
X153977354Y-103502397D01*
X154188719Y-103643626D01*
X154423575Y-103740907D01*
X154672897Y-103790500D01*
X154927103Y-103790500D01*
X155176425Y-103740907D01*
X155411281Y-103643626D01*
X155622646Y-103502397D01*
X155802397Y-103322646D01*
X155943626Y-103111281D01*
X156040907Y-102876425D01*
X156090500Y-102627103D01*
X156090500Y-102372897D01*
X156040907Y-102123575D01*
X155943626Y-101888719D01*
X155802397Y-101677354D01*
X155622646Y-101497603D01*
X155411281Y-101356374D01*
X155176425Y-101259093D01*
X154927103Y-101209500D01*
X154672897Y-101209500D01*
X154423575Y-101259093D01*
X154188719Y-101356374D01*
X153977354Y-101497603D01*
X153797603Y-101677354D01*
X153656374Y-101888719D01*
X153559093Y-102123575D01*
X153509500Y-102372897D01*
X112750500Y-102372897D01*
X112750500Y-100250500D01*
X156512305Y-100250500D01*
X156549107Y-100246875D01*
X156596326Y-100232552D01*
X156628228Y-100215500D01*
X157489465Y-100215500D01*
X157652176Y-100231454D01*
X157798555Y-100275648D01*
X157933563Y-100347433D01*
X158052059Y-100444077D01*
X158149525Y-100561893D01*
X158222248Y-100696392D01*
X158267465Y-100842466D01*
X158284500Y-101004537D01*
X158284501Y-107710579D01*
X158284537Y-107710940D01*
X158284574Y-107721695D01*
X158285526Y-107731064D01*
X158285460Y-107740475D01*
X158285754Y-107743470D01*
X158346954Y-108325759D01*
X158350888Y-108344923D01*
X158354542Y-108364079D01*
X158355409Y-108366949D01*
X158355411Y-108366959D01*
X158355415Y-108366968D01*
X158528549Y-108926273D01*
X158536122Y-108944290D01*
X158543434Y-108962387D01*
X158544845Y-108965040D01*
X158544847Y-108965045D01*
X158544850Y-108965049D01*
X158823323Y-109480076D01*
X158834256Y-109496285D01*
X158844940Y-109512612D01*
X158846841Y-109514944D01*
X159220051Y-109966077D01*
X159233920Y-109979849D01*
X159247576Y-109993794D01*
X159249889Y-109995707D01*
X159249895Y-109995713D01*
X159249902Y-109995717D01*
X159703623Y-110365765D01*
X159719901Y-110376580D01*
X159736007Y-110387608D01*
X159738646Y-110389035D01*
X159738654Y-110389040D01*
X159738662Y-110389043D01*
X160255618Y-110663913D01*
X160273654Y-110671347D01*
X160291628Y-110679051D01*
X160294497Y-110679938D01*
X160294504Y-110679941D01*
X160294511Y-110679942D01*
X160855011Y-110849167D01*
X160874151Y-110852957D01*
X160893275Y-110857022D01*
X160896257Y-110857335D01*
X160896268Y-110857337D01*
X160896278Y-110857337D01*
X161478970Y-110914471D01*
X161478974Y-110914471D01*
X161489421Y-110915500D01*
X167639465Y-110915500D01*
X168190645Y-110969544D01*
X168710696Y-111126556D01*
X169190349Y-111381592D01*
X169611325Y-111724933D01*
X169957600Y-112143508D01*
X170215976Y-112621364D01*
X170376616Y-113140307D01*
X170434466Y-113690725D01*
X170434501Y-113700750D01*
X170434500Y-117792989D01*
X170426733Y-117807521D01*
X170412980Y-117852855D01*
X170409500Y-117888192D01*
X170409501Y-125700381D01*
X170050383Y-126059500D01*
X133049618Y-126059500D01*
X132690500Y-125700383D01*
X132690500Y-118859077D01*
X134699500Y-118859077D01*
X134699500Y-118940923D01*
X134715468Y-119021197D01*
X134746789Y-119096813D01*
X134792260Y-119164866D01*
X134850134Y-119222740D01*
X134918187Y-119268211D01*
X134993803Y-119299532D01*
X135074077Y-119315500D01*
X135155923Y-119315500D01*
X135236197Y-119299532D01*
X135311813Y-119268211D01*
X135379866Y-119222740D01*
X135437740Y-119164866D01*
X135483211Y-119096813D01*
X135500000Y-119056281D01*
X135516789Y-119096813D01*
X135562260Y-119164866D01*
X135620134Y-119222740D01*
X135688187Y-119268211D01*
X135763803Y-119299532D01*
X135844077Y-119315500D01*
X135925923Y-119315500D01*
X136006197Y-119299532D01*
X136081813Y-119268211D01*
X136149866Y-119222740D01*
X136207740Y-119164866D01*
X136253211Y-119096813D01*
X136284532Y-119021197D01*
X136300500Y-118940923D01*
X136300500Y-118859077D01*
X136284532Y-118778803D01*
X136253211Y-118703187D01*
X136207740Y-118635134D01*
X136149866Y-118577260D01*
X136081813Y-118531789D01*
X136006197Y-118500468D01*
X135925923Y-118484500D01*
X135844077Y-118484500D01*
X135763803Y-118500468D01*
X135688187Y-118531789D01*
X135620134Y-118577260D01*
X135562260Y-118635134D01*
X135516789Y-118703187D01*
X135500000Y-118743719D01*
X135483211Y-118703187D01*
X135437740Y-118635134D01*
X135379866Y-118577260D01*
X135311813Y-118531789D01*
X135236197Y-118500468D01*
X135155923Y-118484500D01*
X135074077Y-118484500D01*
X134993803Y-118500468D01*
X134918187Y-118531789D01*
X134850134Y-118577260D01*
X134792260Y-118635134D01*
X134746789Y-118703187D01*
X134715468Y-118778803D01*
X134699500Y-118859077D01*
X132690500Y-118859077D01*
X132690500Y-118838191D01*
X132690417Y-118837349D01*
X132690401Y-118835050D01*
X132689260Y-118824194D01*
X132689260Y-118813267D01*
X132688908Y-118809927D01*
X132668241Y-118625676D01*
X132663708Y-118604349D01*
X132659476Y-118582973D01*
X132658483Y-118579765D01*
X132602422Y-118403036D01*
X132593818Y-118382960D01*
X132585528Y-118362847D01*
X132583931Y-118359893D01*
X132494610Y-118197419D01*
X132482283Y-118179416D01*
X132470232Y-118161277D01*
X132468091Y-118158690D01*
X132445120Y-118131314D01*
X136312263Y-118131314D01*
X136312263Y-118213160D01*
X136328231Y-118293434D01*
X136359552Y-118369050D01*
X136405023Y-118437103D01*
X136462897Y-118494977D01*
X136530950Y-118540448D01*
X136606566Y-118571769D01*
X136686840Y-118587737D01*
X136768686Y-118587737D01*
X136848960Y-118571769D01*
X136924576Y-118540448D01*
X136992629Y-118494977D01*
X137050503Y-118437103D01*
X137095974Y-118369050D01*
X137127295Y-118293434D01*
X137143263Y-118213160D01*
X137143263Y-118131314D01*
X137127295Y-118051040D01*
X137110505Y-118010505D01*
X137151040Y-118027295D01*
X137231314Y-118043263D01*
X137313160Y-118043263D01*
X137393434Y-118027295D01*
X137469050Y-117995974D01*
X137537103Y-117950503D01*
X137581292Y-117906314D01*
X138137263Y-117906314D01*
X138137263Y-117988160D01*
X138153231Y-118068434D01*
X138184552Y-118144050D01*
X138230023Y-118212103D01*
X138287897Y-118269977D01*
X138355950Y-118315448D01*
X138431566Y-118346769D01*
X138511840Y-118362737D01*
X138593686Y-118362737D01*
X138673960Y-118346769D01*
X138749576Y-118315448D01*
X138817629Y-118269977D01*
X138875503Y-118212103D01*
X138920974Y-118144050D01*
X138952295Y-118068434D01*
X138968263Y-117988160D01*
X138968263Y-117906314D01*
X140187263Y-117906314D01*
X140187263Y-117988160D01*
X140203231Y-118068434D01*
X140234552Y-118144050D01*
X140280023Y-118212103D01*
X140337897Y-118269977D01*
X140405950Y-118315448D01*
X140481566Y-118346769D01*
X140561840Y-118362737D01*
X140643686Y-118362737D01*
X140723960Y-118346769D01*
X140799576Y-118315448D01*
X140867629Y-118269977D01*
X140925503Y-118212103D01*
X140970974Y-118144050D01*
X141002295Y-118068434D01*
X141018263Y-117988160D01*
X141018263Y-117906314D01*
X142262263Y-117906314D01*
X142262263Y-117988160D01*
X142278231Y-118068434D01*
X142309552Y-118144050D01*
X142355023Y-118212103D01*
X142412897Y-118269977D01*
X142480950Y-118315448D01*
X142556566Y-118346769D01*
X142636840Y-118362737D01*
X142718686Y-118362737D01*
X142798960Y-118346769D01*
X142874576Y-118315448D01*
X142942629Y-118269977D01*
X143000503Y-118212103D01*
X143045974Y-118144050D01*
X143077295Y-118068434D01*
X143093263Y-117988160D01*
X143093263Y-117931314D01*
X144312263Y-117931314D01*
X144312263Y-118013160D01*
X144328231Y-118093434D01*
X144359552Y-118169050D01*
X144405023Y-118237103D01*
X144462897Y-118294977D01*
X144530950Y-118340448D01*
X144606566Y-118371769D01*
X144686840Y-118387737D01*
X144768686Y-118387737D01*
X144848960Y-118371769D01*
X144924576Y-118340448D01*
X144992629Y-118294977D01*
X145050503Y-118237103D01*
X145095974Y-118169050D01*
X145127295Y-118093434D01*
X145143263Y-118013160D01*
X145143263Y-117931314D01*
X145138291Y-117906314D01*
X146337263Y-117906314D01*
X146337263Y-117988160D01*
X146353231Y-118068434D01*
X146384552Y-118144050D01*
X146430023Y-118212103D01*
X146487897Y-118269977D01*
X146555950Y-118315448D01*
X146631566Y-118346769D01*
X146711840Y-118362737D01*
X146793686Y-118362737D01*
X146873960Y-118346769D01*
X146949576Y-118315448D01*
X147017629Y-118269977D01*
X147075503Y-118212103D01*
X147120974Y-118144050D01*
X147152295Y-118068434D01*
X147168263Y-117988160D01*
X147168263Y-117906314D01*
X147152295Y-117826040D01*
X147135505Y-117785505D01*
X147176040Y-117802295D01*
X147256314Y-117818263D01*
X147338160Y-117818263D01*
X147418434Y-117802295D01*
X147494050Y-117770974D01*
X147562103Y-117725503D01*
X147619977Y-117667629D01*
X147665448Y-117599576D01*
X147696769Y-117523960D01*
X147712737Y-117443686D01*
X147712737Y-117361840D01*
X147696769Y-117281566D01*
X147665448Y-117205950D01*
X147619977Y-117137897D01*
X147562103Y-117080023D01*
X147494050Y-117034552D01*
X147418434Y-117003231D01*
X147338160Y-116987263D01*
X147256314Y-116987263D01*
X147176040Y-117003231D01*
X147100424Y-117034552D01*
X147032371Y-117080023D01*
X146974497Y-117137897D01*
X146929026Y-117205950D01*
X146897705Y-117281566D01*
X146881737Y-117361840D01*
X146881737Y-117443686D01*
X146897705Y-117523960D01*
X146914495Y-117564495D01*
X146873960Y-117547705D01*
X146793686Y-117531737D01*
X146711840Y-117531737D01*
X146631566Y-117547705D01*
X146555950Y-117579026D01*
X146487897Y-117624497D01*
X146430023Y-117682371D01*
X146384552Y-117750424D01*
X146353231Y-117826040D01*
X146337263Y-117906314D01*
X145138291Y-117906314D01*
X145127295Y-117851040D01*
X145110505Y-117810505D01*
X145151040Y-117827295D01*
X145231314Y-117843263D01*
X145313160Y-117843263D01*
X145393434Y-117827295D01*
X145469050Y-117795974D01*
X145537103Y-117750503D01*
X145594977Y-117692629D01*
X145640448Y-117624576D01*
X145671769Y-117548960D01*
X145687737Y-117468686D01*
X145687737Y-117386840D01*
X145671769Y-117306566D01*
X145640448Y-117230950D01*
X145594977Y-117162897D01*
X145537103Y-117105023D01*
X145469050Y-117059552D01*
X145393434Y-117028231D01*
X145313160Y-117012263D01*
X145231314Y-117012263D01*
X145151040Y-117028231D01*
X145075424Y-117059552D01*
X145007371Y-117105023D01*
X144949497Y-117162897D01*
X144904026Y-117230950D01*
X144872705Y-117306566D01*
X144856737Y-117386840D01*
X144856737Y-117468686D01*
X144872705Y-117548960D01*
X144889495Y-117589495D01*
X144848960Y-117572705D01*
X144768686Y-117556737D01*
X144686840Y-117556737D01*
X144606566Y-117572705D01*
X144530950Y-117604026D01*
X144462897Y-117649497D01*
X144405023Y-117707371D01*
X144359552Y-117775424D01*
X144328231Y-117851040D01*
X144312263Y-117931314D01*
X143093263Y-117931314D01*
X143093263Y-117906314D01*
X143077295Y-117826040D01*
X143060505Y-117785505D01*
X143101040Y-117802295D01*
X143181314Y-117818263D01*
X143263160Y-117818263D01*
X143343434Y-117802295D01*
X143419050Y-117770974D01*
X143487103Y-117725503D01*
X143544977Y-117667629D01*
X143590448Y-117599576D01*
X143621769Y-117523960D01*
X143637737Y-117443686D01*
X143637737Y-117361840D01*
X143621769Y-117281566D01*
X143590448Y-117205950D01*
X143544977Y-117137897D01*
X143487103Y-117080023D01*
X143419050Y-117034552D01*
X143343434Y-117003231D01*
X143263160Y-116987263D01*
X143181314Y-116987263D01*
X143101040Y-117003231D01*
X143025424Y-117034552D01*
X142957371Y-117080023D01*
X142899497Y-117137897D01*
X142854026Y-117205950D01*
X142822705Y-117281566D01*
X142806737Y-117361840D01*
X142806737Y-117443686D01*
X142822705Y-117523960D01*
X142839495Y-117564495D01*
X142798960Y-117547705D01*
X142718686Y-117531737D01*
X142636840Y-117531737D01*
X142556566Y-117547705D01*
X142480950Y-117579026D01*
X142412897Y-117624497D01*
X142355023Y-117682371D01*
X142309552Y-117750424D01*
X142278231Y-117826040D01*
X142262263Y-117906314D01*
X141018263Y-117906314D01*
X141002295Y-117826040D01*
X140985505Y-117785505D01*
X141026040Y-117802295D01*
X141106314Y-117818263D01*
X141188160Y-117818263D01*
X141268434Y-117802295D01*
X141344050Y-117770974D01*
X141412103Y-117725503D01*
X141469977Y-117667629D01*
X141515448Y-117599576D01*
X141546769Y-117523960D01*
X141562737Y-117443686D01*
X141562737Y-117361840D01*
X141546769Y-117281566D01*
X141515448Y-117205950D01*
X141469977Y-117137897D01*
X141412103Y-117080023D01*
X141344050Y-117034552D01*
X141268434Y-117003231D01*
X141188160Y-116987263D01*
X141106314Y-116987263D01*
X141026040Y-117003231D01*
X140950424Y-117034552D01*
X140882371Y-117080023D01*
X140824497Y-117137897D01*
X140779026Y-117205950D01*
X140747705Y-117281566D01*
X140731737Y-117361840D01*
X140731737Y-117443686D01*
X140747705Y-117523960D01*
X140764495Y-117564495D01*
X140723960Y-117547705D01*
X140643686Y-117531737D01*
X140561840Y-117531737D01*
X140481566Y-117547705D01*
X140405950Y-117579026D01*
X140337897Y-117624497D01*
X140280023Y-117682371D01*
X140234552Y-117750424D01*
X140203231Y-117826040D01*
X140187263Y-117906314D01*
X138968263Y-117906314D01*
X138952295Y-117826040D01*
X138935505Y-117785505D01*
X138976040Y-117802295D01*
X139056314Y-117818263D01*
X139138160Y-117818263D01*
X139218434Y-117802295D01*
X139294050Y-117770974D01*
X139362103Y-117725503D01*
X139419977Y-117667629D01*
X139465448Y-117599576D01*
X139496769Y-117523960D01*
X139512737Y-117443686D01*
X139512737Y-117361840D01*
X139496769Y-117281566D01*
X139465448Y-117205950D01*
X139419977Y-117137897D01*
X139362103Y-117080023D01*
X139294050Y-117034552D01*
X139218434Y-117003231D01*
X139138160Y-116987263D01*
X139056314Y-116987263D01*
X138976040Y-117003231D01*
X138900424Y-117034552D01*
X138832371Y-117080023D01*
X138774497Y-117137897D01*
X138729026Y-117205950D01*
X138697705Y-117281566D01*
X138681737Y-117361840D01*
X138681737Y-117443686D01*
X138697705Y-117523960D01*
X138714495Y-117564495D01*
X138673960Y-117547705D01*
X138593686Y-117531737D01*
X138511840Y-117531737D01*
X138431566Y-117547705D01*
X138355950Y-117579026D01*
X138287897Y-117624497D01*
X138230023Y-117682371D01*
X138184552Y-117750424D01*
X138153231Y-117826040D01*
X138137263Y-117906314D01*
X137581292Y-117906314D01*
X137594977Y-117892629D01*
X137640448Y-117824576D01*
X137671769Y-117748960D01*
X137687737Y-117668686D01*
X137687737Y-117586840D01*
X137671769Y-117506566D01*
X137640448Y-117430950D01*
X137594977Y-117362897D01*
X137537103Y-117305023D01*
X137469050Y-117259552D01*
X137393434Y-117228231D01*
X137313160Y-117212263D01*
X137231314Y-117212263D01*
X137151040Y-117228231D01*
X137075424Y-117259552D01*
X137007371Y-117305023D01*
X136949497Y-117362897D01*
X136904026Y-117430950D01*
X136872705Y-117506566D01*
X136856737Y-117586840D01*
X136856737Y-117668686D01*
X136872705Y-117748960D01*
X136889495Y-117789495D01*
X136848960Y-117772705D01*
X136768686Y-117756737D01*
X136686840Y-117756737D01*
X136606566Y-117772705D01*
X136530950Y-117804026D01*
X136462897Y-117849497D01*
X136405023Y-117907371D01*
X136359552Y-117975424D01*
X136328231Y-118051040D01*
X136312263Y-118131314D01*
X132445120Y-118131314D01*
X132348913Y-118016660D01*
X132333359Y-118001429D01*
X132317981Y-117985942D01*
X132315378Y-117983820D01*
X132170883Y-117867643D01*
X132152655Y-117855715D01*
X132134573Y-117843518D01*
X132131608Y-117841942D01*
X131967299Y-117756043D01*
X131947059Y-117747866D01*
X131926993Y-117739430D01*
X131923786Y-117738462D01*
X131923780Y-117738460D01*
X131923774Y-117738459D01*
X131745915Y-117686112D01*
X131724516Y-117682030D01*
X131703151Y-117677644D01*
X131699809Y-117677317D01*
X131515165Y-117660513D01*
X131493373Y-117660665D01*
X131471570Y-117660512D01*
X131468239Y-117660840D01*
X131468229Y-117660840D01*
X131468220Y-117660842D01*
X131283836Y-117680222D01*
X131262493Y-117684603D01*
X131241074Y-117688688D01*
X131237861Y-117689658D01*
X131237855Y-117689660D01*
X131060743Y-117744485D01*
X131040637Y-117752937D01*
X131020437Y-117761098D01*
X131017472Y-117762674D01*
X130854379Y-117850858D01*
X130836284Y-117863064D01*
X130818068Y-117874983D01*
X130815466Y-117877106D01*
X130672607Y-117995290D01*
X130657234Y-118010771D01*
X130641674Y-118026007D01*
X130639539Y-118028589D01*
X130639533Y-118028595D01*
X130639529Y-118028602D01*
X130522351Y-118172275D01*
X130510293Y-118190423D01*
X130497973Y-118208415D01*
X130496381Y-118211361D01*
X130496376Y-118211369D01*
X130496376Y-118211370D01*
X130409332Y-118375075D01*
X130401026Y-118395228D01*
X130392438Y-118415264D01*
X130391445Y-118418472D01*
X130337857Y-118595966D01*
X130333629Y-118617322D01*
X130329091Y-118638668D01*
X130328741Y-118642008D01*
X130310648Y-118826531D01*
X130309500Y-118838192D01*
X130309501Y-125700381D01*
X129950383Y-126059500D01*
X119949618Y-126059500D01*
X119590500Y-125700383D01*
X119590500Y-117888191D01*
X119587020Y-117852854D01*
X119573267Y-117807520D01*
X119565500Y-117792989D01*
X119565500Y-117559077D01*
X120084500Y-117559077D01*
X120084500Y-117640923D01*
X120100468Y-117721197D01*
X120131789Y-117796813D01*
X120177260Y-117864866D01*
X120235134Y-117922740D01*
X120303187Y-117968211D01*
X120378803Y-117999532D01*
X120381156Y-118000000D01*
X120378803Y-118000468D01*
X120303187Y-118031789D01*
X120235134Y-118077260D01*
X120177260Y-118135134D01*
X120131789Y-118203187D01*
X120100468Y-118278803D01*
X120084500Y-118359077D01*
X120084500Y-118440923D01*
X120100468Y-118521197D01*
X120131789Y-118596813D01*
X120177260Y-118664866D01*
X120235134Y-118722740D01*
X120303187Y-118768211D01*
X120378803Y-118799532D01*
X120381156Y-118800000D01*
X120378803Y-118800468D01*
X120303187Y-118831789D01*
X120235134Y-118877260D01*
X120177260Y-118935134D01*
X120131789Y-119003187D01*
X120100468Y-119078803D01*
X120084500Y-119159077D01*
X120084500Y-119240923D01*
X120100468Y-119321197D01*
X120131789Y-119396813D01*
X120177260Y-119464866D01*
X120235134Y-119522740D01*
X120303187Y-119568211D01*
X120378803Y-119599532D01*
X120381156Y-119600000D01*
X120378803Y-119600468D01*
X120303187Y-119631789D01*
X120235134Y-119677260D01*
X120177260Y-119735134D01*
X120131789Y-119803187D01*
X120100468Y-119878803D01*
X120084500Y-119959077D01*
X120084500Y-120040923D01*
X120100468Y-120121197D01*
X120131789Y-120196813D01*
X120177260Y-120264866D01*
X120235134Y-120322740D01*
X120303187Y-120368211D01*
X120378803Y-120399532D01*
X120459077Y-120415500D01*
X120540923Y-120415500D01*
X120621197Y-120399532D01*
X120696813Y-120368211D01*
X120764866Y-120322740D01*
X120822740Y-120264866D01*
X120868211Y-120196813D01*
X120875000Y-120180424D01*
X120881788Y-120196813D01*
X120927259Y-120264866D01*
X120985133Y-120322740D01*
X121053186Y-120368211D01*
X121128802Y-120399532D01*
X121209076Y-120415500D01*
X121290922Y-120415500D01*
X121371196Y-120399532D01*
X121446812Y-120368211D01*
X121514865Y-120322740D01*
X121572739Y-120264866D01*
X121618210Y-120196813D01*
X121625000Y-120180422D01*
X121631789Y-120196813D01*
X121677260Y-120264866D01*
X121735134Y-120322740D01*
X121803187Y-120368211D01*
X121878803Y-120399532D01*
X121959077Y-120415500D01*
X122040923Y-120415500D01*
X122121197Y-120399532D01*
X122196813Y-120368211D01*
X122264866Y-120322740D01*
X122322740Y-120264866D01*
X122368211Y-120196813D01*
X122399532Y-120121197D01*
X122415500Y-120040923D01*
X122415500Y-119959077D01*
X122399532Y-119878803D01*
X122368211Y-119803187D01*
X122322740Y-119735134D01*
X122264866Y-119677260D01*
X122196813Y-119631789D01*
X122121197Y-119600468D01*
X122118844Y-119600000D01*
X122121197Y-119599532D01*
X122196813Y-119568211D01*
X122264866Y-119522740D01*
X122322740Y-119464866D01*
X122368211Y-119396813D01*
X122399532Y-119321197D01*
X122415500Y-119240923D01*
X122415500Y-119159077D01*
X122399532Y-119078803D01*
X122368211Y-119003187D01*
X122322740Y-118935134D01*
X122264866Y-118877260D01*
X122196813Y-118831789D01*
X122121197Y-118800468D01*
X122118844Y-118800000D01*
X122121196Y-118799532D01*
X122196812Y-118768211D01*
X122264865Y-118722740D01*
X122322739Y-118664866D01*
X122368210Y-118596813D01*
X122399531Y-118521197D01*
X122415499Y-118440923D01*
X122415499Y-118359077D01*
X122399531Y-118278803D01*
X122368210Y-118203187D01*
X122322739Y-118135134D01*
X122264865Y-118077260D01*
X122196812Y-118031789D01*
X122121196Y-118000468D01*
X122118844Y-118000000D01*
X122121197Y-117999532D01*
X122196813Y-117968211D01*
X122264866Y-117922740D01*
X122322740Y-117864866D01*
X122368211Y-117796813D01*
X122399532Y-117721197D01*
X122415500Y-117640923D01*
X122415500Y-117559077D01*
X122399532Y-117478803D01*
X122368211Y-117403187D01*
X122322740Y-117335134D01*
X122264866Y-117277260D01*
X122196813Y-117231789D01*
X122121197Y-117200468D01*
X122040923Y-117184500D01*
X121959077Y-117184500D01*
X121878803Y-117200468D01*
X121803187Y-117231789D01*
X121735134Y-117277260D01*
X121677260Y-117335134D01*
X121631789Y-117403187D01*
X121625000Y-117419577D01*
X121618211Y-117403187D01*
X121572740Y-117335134D01*
X121514866Y-117277260D01*
X121446813Y-117231789D01*
X121371197Y-117200468D01*
X121290923Y-117184500D01*
X121209077Y-117184500D01*
X121128803Y-117200468D01*
X121053187Y-117231789D01*
X120985134Y-117277260D01*
X120927260Y-117335134D01*
X120881789Y-117403187D01*
X120875000Y-117419577D01*
X120868211Y-117403187D01*
X120822740Y-117335134D01*
X120764866Y-117277260D01*
X120696813Y-117231789D01*
X120621197Y-117200468D01*
X120540923Y-117184500D01*
X120459077Y-117184500D01*
X120378803Y-117200468D01*
X120303187Y-117231789D01*
X120235134Y-117277260D01*
X120177260Y-117335134D01*
X120131789Y-117403187D01*
X120100468Y-117478803D01*
X120084500Y-117559077D01*
X119565500Y-117559077D01*
X119565500Y-115529038D01*
X119570110Y-115523465D01*
X119594755Y-115477885D01*
X119610077Y-115428386D01*
X119615493Y-115376853D01*
X119615494Y-115373146D01*
X119615316Y-115347664D01*
X119614055Y-115335668D01*
X119614055Y-115323611D01*
X119613667Y-115319924D01*
X119573964Y-114965966D01*
X119568963Y-114942438D01*
X119564287Y-114918823D01*
X119563191Y-114915282D01*
X119455494Y-114575777D01*
X119446007Y-114553641D01*
X119436845Y-114531412D01*
X119435086Y-114528160D01*
X119435082Y-114528151D01*
X119435077Y-114528144D01*
X119263491Y-114216029D01*
X119249903Y-114196184D01*
X119236580Y-114176131D01*
X119234217Y-114173275D01*
X119005271Y-113900427D01*
X118988053Y-113883566D01*
X118971122Y-113866516D01*
X118968255Y-113864178D01*
X118968250Y-113864173D01*
X118968245Y-113864169D01*
X118690666Y-113640991D01*
X118670531Y-113627815D01*
X118650581Y-113614359D01*
X118647308Y-113612618D01*
X118331662Y-113447602D01*
X118309332Y-113438580D01*
X118287167Y-113429263D01*
X118283622Y-113428192D01*
X118283616Y-113428190D01*
X117941932Y-113327628D01*
X117918247Y-113323110D01*
X117894724Y-113318281D01*
X117891044Y-113317920D01*
X117891034Y-113317918D01*
X117891025Y-113317918D01*
X117536322Y-113285637D01*
X117512226Y-113285805D01*
X117488196Y-113285637D01*
X117484506Y-113285998D01*
X117130280Y-113323229D01*
X117106663Y-113328077D01*
X117083071Y-113332577D01*
X117079532Y-113333646D01*
X117079522Y-113333648D01*
X117079513Y-113333652D01*
X116739273Y-113438974D01*
X116717084Y-113448301D01*
X116694779Y-113457313D01*
X116691506Y-113459053D01*
X116378195Y-113628459D01*
X116358229Y-113641926D01*
X116338109Y-113655092D01*
X116335236Y-113657435D01*
X116060797Y-113884472D01*
X116043832Y-113901555D01*
X116026648Y-113918383D01*
X116024290Y-113921234D01*
X116024285Y-113921239D01*
X116024281Y-113921244D01*
X115799171Y-114197256D01*
X115785833Y-114217332D01*
X115772260Y-114237154D01*
X115770501Y-114240407D01*
X115770496Y-114240415D01*
X115770496Y-114240416D01*
X115603281Y-114554902D01*
X115594098Y-114577180D01*
X115584631Y-114599268D01*
X115583539Y-114602795D01*
X115583534Y-114602808D01*
X115583532Y-114602821D01*
X115480589Y-114943784D01*
X115475914Y-114967393D01*
X115470912Y-114990927D01*
X115470524Y-114994614D01*
X115435767Y-115349092D01*
X115435767Y-115400908D01*
X115445832Y-115451738D01*
X115465577Y-115499644D01*
X115484500Y-115528125D01*
X115484500Y-118136500D01*
X107915500Y-118136500D01*
X107915500Y-113560579D01*
X107916542Y-113550000D01*
X107912381Y-113507755D01*
X107900059Y-113467133D01*
X107880048Y-113429696D01*
X107853118Y-113396882D01*
X107820304Y-113369952D01*
X107782867Y-113349941D01*
X107742245Y-113337619D01*
X107710579Y-113334500D01*
X107700000Y-113333458D01*
X107689421Y-113334500D01*
X75460544Y-113334500D01*
X75297824Y-113318546D01*
X75151445Y-113274352D01*
X75016434Y-113202565D01*
X74897941Y-113105924D01*
X74800477Y-112988110D01*
X74727753Y-112853610D01*
X74682535Y-112707534D01*
X74665500Y-112545462D01*
X74665500Y-111209077D01*
X104334500Y-111209077D01*
X104334500Y-111290923D01*
X104350468Y-111371197D01*
X104381789Y-111446813D01*
X104427260Y-111514866D01*
X104485134Y-111572740D01*
X104553187Y-111618211D01*
X104628803Y-111649532D01*
X104709077Y-111665500D01*
X104790923Y-111665500D01*
X104871197Y-111649532D01*
X104946813Y-111618211D01*
X105014866Y-111572740D01*
X105072740Y-111514866D01*
X105118211Y-111446813D01*
X105149532Y-111371197D01*
X105165500Y-111290923D01*
X105165500Y-111209077D01*
X105634500Y-111209077D01*
X105634500Y-111290923D01*
X105650468Y-111371197D01*
X105681789Y-111446813D01*
X105727260Y-111514866D01*
X105785134Y-111572740D01*
X105853187Y-111618211D01*
X105928803Y-111649532D01*
X106009077Y-111665500D01*
X106090923Y-111665500D01*
X106103740Y-111662950D01*
X106861581Y-112420791D01*
X106869527Y-112430473D01*
X106879209Y-112438419D01*
X106879212Y-112438422D01*
X106908203Y-112462215D01*
X106929745Y-112473729D01*
X106952328Y-112485800D01*
X107000207Y-112500324D01*
X107037531Y-112504000D01*
X107037542Y-112504000D01*
X107050000Y-112505227D01*
X107062458Y-112504000D01*
X144994790Y-112504000D01*
X149512114Y-117021324D01*
X149468434Y-117003231D01*
X149388160Y-116987263D01*
X149306314Y-116987263D01*
X149226040Y-117003231D01*
X149150424Y-117034552D01*
X149082371Y-117080023D01*
X149024497Y-117137897D01*
X148979026Y-117205950D01*
X148947705Y-117281566D01*
X148931737Y-117361840D01*
X148931737Y-117443686D01*
X148947705Y-117523960D01*
X148964495Y-117564495D01*
X148923960Y-117547705D01*
X148843686Y-117531737D01*
X148761840Y-117531737D01*
X148681566Y-117547705D01*
X148605950Y-117579026D01*
X148537897Y-117624497D01*
X148480023Y-117682371D01*
X148434552Y-117750424D01*
X148403231Y-117826040D01*
X148387263Y-117906314D01*
X148387263Y-117988160D01*
X148403231Y-118068434D01*
X148434552Y-118144050D01*
X148480023Y-118212103D01*
X148537897Y-118269977D01*
X148605950Y-118315448D01*
X148681566Y-118346769D01*
X148761840Y-118362737D01*
X148843686Y-118362737D01*
X148923960Y-118346769D01*
X148999576Y-118315448D01*
X149067629Y-118269977D01*
X149125503Y-118212103D01*
X149170974Y-118144050D01*
X149202295Y-118068434D01*
X149218263Y-117988160D01*
X149218263Y-117906314D01*
X149202295Y-117826040D01*
X149185505Y-117785505D01*
X149226040Y-117802295D01*
X149306314Y-117818263D01*
X149388160Y-117818263D01*
X149468434Y-117802295D01*
X149544050Y-117770974D01*
X149612103Y-117725503D01*
X149669977Y-117667629D01*
X149715448Y-117599576D01*
X149746769Y-117523960D01*
X149762737Y-117443686D01*
X149762737Y-117361840D01*
X149746769Y-117281566D01*
X149728676Y-117237886D01*
X150096001Y-117605211D01*
X150096000Y-117837541D01*
X150094773Y-117850000D01*
X150096000Y-117862458D01*
X150096000Y-117862468D01*
X150099676Y-117899792D01*
X150114200Y-117947671D01*
X150137786Y-117991797D01*
X150151349Y-118008323D01*
X150161578Y-118020788D01*
X150161581Y-118020791D01*
X150169527Y-118030473D01*
X150179209Y-118038419D01*
X151087050Y-118946260D01*
X151084500Y-118959077D01*
X151084500Y-119040923D01*
X151100468Y-119121197D01*
X151131789Y-119196813D01*
X151177260Y-119264866D01*
X151235134Y-119322740D01*
X151303187Y-119368211D01*
X151378803Y-119399532D01*
X151459077Y-119415500D01*
X151540923Y-119415500D01*
X151621197Y-119399532D01*
X151696813Y-119368211D01*
X151764866Y-119322740D01*
X151822740Y-119264866D01*
X151868211Y-119196813D01*
X151899532Y-119121197D01*
X151915500Y-119040923D01*
X151915500Y-118959077D01*
X151899532Y-118878803D01*
X151868211Y-118803187D01*
X151822740Y-118735134D01*
X151764866Y-118677260D01*
X151696813Y-118631789D01*
X151621197Y-118600468D01*
X151540923Y-118584500D01*
X151459077Y-118584500D01*
X151446260Y-118587050D01*
X150765524Y-117906314D01*
X151037263Y-117906314D01*
X151037263Y-117988160D01*
X151053231Y-118068434D01*
X151084552Y-118144050D01*
X151130023Y-118212103D01*
X151187897Y-118269977D01*
X151255950Y-118315448D01*
X151331566Y-118346769D01*
X151411840Y-118362737D01*
X151493686Y-118362737D01*
X151573960Y-118346769D01*
X151649576Y-118315448D01*
X151717629Y-118269977D01*
X151775503Y-118212103D01*
X151820974Y-118144050D01*
X151852295Y-118068434D01*
X151868263Y-117988160D01*
X151868263Y-117906314D01*
X153087263Y-117906314D01*
X153087263Y-117988160D01*
X153103231Y-118068434D01*
X153134552Y-118144050D01*
X153180023Y-118212103D01*
X153237897Y-118269977D01*
X153305950Y-118315448D01*
X153381566Y-118346769D01*
X153461840Y-118362737D01*
X153543686Y-118362737D01*
X153623960Y-118346769D01*
X153699576Y-118315448D01*
X153767629Y-118269977D01*
X153825503Y-118212103D01*
X153870974Y-118144050D01*
X153902295Y-118068434D01*
X153918263Y-117988160D01*
X153918263Y-117906314D01*
X155137263Y-117906314D01*
X155137263Y-117988160D01*
X155153231Y-118068434D01*
X155184552Y-118144050D01*
X155230023Y-118212103D01*
X155287897Y-118269977D01*
X155355950Y-118315448D01*
X155431566Y-118346769D01*
X155511840Y-118362737D01*
X155593686Y-118362737D01*
X155673960Y-118346769D01*
X155749576Y-118315448D01*
X155817629Y-118269977D01*
X155875503Y-118212103D01*
X155920974Y-118144050D01*
X155952295Y-118068434D01*
X155968263Y-117988160D01*
X155968263Y-117906314D01*
X157162263Y-117906314D01*
X157162263Y-117988160D01*
X157178231Y-118068434D01*
X157209552Y-118144050D01*
X157255023Y-118212103D01*
X157312897Y-118269977D01*
X157380950Y-118315448D01*
X157456566Y-118346769D01*
X157536840Y-118362737D01*
X157618686Y-118362737D01*
X157698960Y-118346769D01*
X157774576Y-118315448D01*
X157842629Y-118269977D01*
X157900503Y-118212103D01*
X157945974Y-118144050D01*
X157977295Y-118068434D01*
X157993263Y-117988160D01*
X157993263Y-117906314D01*
X159237263Y-117906314D01*
X159237263Y-117988160D01*
X159253231Y-118068434D01*
X159284552Y-118144050D01*
X159330023Y-118212103D01*
X159387897Y-118269977D01*
X159455950Y-118315448D01*
X159531566Y-118346769D01*
X159611840Y-118362737D01*
X159693686Y-118362737D01*
X159773960Y-118346769D01*
X159849576Y-118315448D01*
X159917629Y-118269977D01*
X159975503Y-118212103D01*
X160020974Y-118144050D01*
X160052295Y-118068434D01*
X160068263Y-117988160D01*
X160068263Y-117906314D01*
X161287263Y-117906314D01*
X161287263Y-117988160D01*
X161303231Y-118068434D01*
X161334552Y-118144050D01*
X161380023Y-118212103D01*
X161437897Y-118269977D01*
X161505950Y-118315448D01*
X161581566Y-118346769D01*
X161661840Y-118362737D01*
X161743686Y-118362737D01*
X161823960Y-118346769D01*
X161899576Y-118315448D01*
X161967629Y-118269977D01*
X162025503Y-118212103D01*
X162070974Y-118144050D01*
X162102295Y-118068434D01*
X162118263Y-117988160D01*
X162118263Y-117906314D01*
X163337263Y-117906314D01*
X163337263Y-117988160D01*
X163353231Y-118068434D01*
X163384552Y-118144050D01*
X163430023Y-118212103D01*
X163487897Y-118269977D01*
X163555950Y-118315448D01*
X163631566Y-118346769D01*
X163711840Y-118362737D01*
X163793686Y-118362737D01*
X163873960Y-118346769D01*
X163949576Y-118315448D01*
X164017629Y-118269977D01*
X164075503Y-118212103D01*
X164120974Y-118144050D01*
X164152295Y-118068434D01*
X164168263Y-117988160D01*
X164168263Y-117906314D01*
X165387263Y-117906314D01*
X165387263Y-117988160D01*
X165403231Y-118068434D01*
X165434552Y-118144050D01*
X165480023Y-118212103D01*
X165537897Y-118269977D01*
X165605950Y-118315448D01*
X165681566Y-118346769D01*
X165761840Y-118362737D01*
X165843686Y-118362737D01*
X165923960Y-118346769D01*
X165999576Y-118315448D01*
X166067629Y-118269977D01*
X166125503Y-118212103D01*
X166170974Y-118144050D01*
X166202295Y-118068434D01*
X166218263Y-117988160D01*
X166218263Y-117906314D01*
X166202295Y-117826040D01*
X166185505Y-117785505D01*
X166226040Y-117802295D01*
X166306314Y-117818263D01*
X166388160Y-117818263D01*
X166468434Y-117802295D01*
X166544050Y-117770974D01*
X166612103Y-117725503D01*
X166669977Y-117667629D01*
X166715448Y-117599576D01*
X166746769Y-117523960D01*
X166762737Y-117443686D01*
X166762737Y-117361840D01*
X166746769Y-117281566D01*
X166715448Y-117205950D01*
X166669977Y-117137897D01*
X166612103Y-117080023D01*
X166544050Y-117034552D01*
X166468434Y-117003231D01*
X166388160Y-116987263D01*
X166306314Y-116987263D01*
X166226040Y-117003231D01*
X166150424Y-117034552D01*
X166082371Y-117080023D01*
X166024497Y-117137897D01*
X165979026Y-117205950D01*
X165947705Y-117281566D01*
X165931737Y-117361840D01*
X165931737Y-117443686D01*
X165947705Y-117523960D01*
X165964495Y-117564495D01*
X165923960Y-117547705D01*
X165843686Y-117531737D01*
X165761840Y-117531737D01*
X165681566Y-117547705D01*
X165605950Y-117579026D01*
X165537897Y-117624497D01*
X165480023Y-117682371D01*
X165434552Y-117750424D01*
X165403231Y-117826040D01*
X165387263Y-117906314D01*
X164168263Y-117906314D01*
X164152295Y-117826040D01*
X164135505Y-117785505D01*
X164176040Y-117802295D01*
X164256314Y-117818263D01*
X164338160Y-117818263D01*
X164418434Y-117802295D01*
X164494050Y-117770974D01*
X164562103Y-117725503D01*
X164619977Y-117667629D01*
X164665448Y-117599576D01*
X164696769Y-117523960D01*
X164712737Y-117443686D01*
X164712737Y-117361840D01*
X164696769Y-117281566D01*
X164665448Y-117205950D01*
X164619977Y-117137897D01*
X164562103Y-117080023D01*
X164494050Y-117034552D01*
X164418434Y-117003231D01*
X164338160Y-116987263D01*
X164256314Y-116987263D01*
X164176040Y-117003231D01*
X164100424Y-117034552D01*
X164032371Y-117080023D01*
X163974497Y-117137897D01*
X163929026Y-117205950D01*
X163897705Y-117281566D01*
X163881737Y-117361840D01*
X163881737Y-117443686D01*
X163897705Y-117523960D01*
X163914495Y-117564495D01*
X163873960Y-117547705D01*
X163793686Y-117531737D01*
X163711840Y-117531737D01*
X163631566Y-117547705D01*
X163555950Y-117579026D01*
X163487897Y-117624497D01*
X163430023Y-117682371D01*
X163384552Y-117750424D01*
X163353231Y-117826040D01*
X163337263Y-117906314D01*
X162118263Y-117906314D01*
X162102295Y-117826040D01*
X162085505Y-117785505D01*
X162126040Y-117802295D01*
X162206314Y-117818263D01*
X162288160Y-117818263D01*
X162368434Y-117802295D01*
X162444050Y-117770974D01*
X162512103Y-117725503D01*
X162569977Y-117667629D01*
X162615448Y-117599576D01*
X162646769Y-117523960D01*
X162662737Y-117443686D01*
X162662737Y-117361840D01*
X162646769Y-117281566D01*
X162615448Y-117205950D01*
X162569977Y-117137897D01*
X162512103Y-117080023D01*
X162444050Y-117034552D01*
X162368434Y-117003231D01*
X162288160Y-116987263D01*
X162206314Y-116987263D01*
X162126040Y-117003231D01*
X162050424Y-117034552D01*
X161982371Y-117080023D01*
X161924497Y-117137897D01*
X161879026Y-117205950D01*
X161847705Y-117281566D01*
X161831737Y-117361840D01*
X161831737Y-117443686D01*
X161847705Y-117523960D01*
X161864495Y-117564495D01*
X161823960Y-117547705D01*
X161743686Y-117531737D01*
X161661840Y-117531737D01*
X161581566Y-117547705D01*
X161505950Y-117579026D01*
X161437897Y-117624497D01*
X161380023Y-117682371D01*
X161334552Y-117750424D01*
X161303231Y-117826040D01*
X161287263Y-117906314D01*
X160068263Y-117906314D01*
X160052295Y-117826040D01*
X160035505Y-117785505D01*
X160076040Y-117802295D01*
X160156314Y-117818263D01*
X160238160Y-117818263D01*
X160318434Y-117802295D01*
X160394050Y-117770974D01*
X160462103Y-117725503D01*
X160519977Y-117667629D01*
X160565448Y-117599576D01*
X160596769Y-117523960D01*
X160612737Y-117443686D01*
X160612737Y-117361840D01*
X160596769Y-117281566D01*
X160565448Y-117205950D01*
X160519977Y-117137897D01*
X160462103Y-117080023D01*
X160394050Y-117034552D01*
X160318434Y-117003231D01*
X160238160Y-116987263D01*
X160156314Y-116987263D01*
X160076040Y-117003231D01*
X160000424Y-117034552D01*
X159932371Y-117080023D01*
X159874497Y-117137897D01*
X159829026Y-117205950D01*
X159797705Y-117281566D01*
X159781737Y-117361840D01*
X159781737Y-117443686D01*
X159797705Y-117523960D01*
X159814495Y-117564495D01*
X159773960Y-117547705D01*
X159693686Y-117531737D01*
X159611840Y-117531737D01*
X159531566Y-117547705D01*
X159455950Y-117579026D01*
X159387897Y-117624497D01*
X159330023Y-117682371D01*
X159284552Y-117750424D01*
X159253231Y-117826040D01*
X159237263Y-117906314D01*
X157993263Y-117906314D01*
X157977295Y-117826040D01*
X157960505Y-117785505D01*
X158001040Y-117802295D01*
X158081314Y-117818263D01*
X158163160Y-117818263D01*
X158243434Y-117802295D01*
X158319050Y-117770974D01*
X158387103Y-117725503D01*
X158444977Y-117667629D01*
X158490448Y-117599576D01*
X158521769Y-117523960D01*
X158537737Y-117443686D01*
X158537737Y-117361840D01*
X158521769Y-117281566D01*
X158490448Y-117205950D01*
X158444977Y-117137897D01*
X158387103Y-117080023D01*
X158319050Y-117034552D01*
X158243434Y-117003231D01*
X158163160Y-116987263D01*
X158081314Y-116987263D01*
X158001040Y-117003231D01*
X157925424Y-117034552D01*
X157857371Y-117080023D01*
X157799497Y-117137897D01*
X157754026Y-117205950D01*
X157722705Y-117281566D01*
X157706737Y-117361840D01*
X157706737Y-117443686D01*
X157722705Y-117523960D01*
X157739495Y-117564495D01*
X157698960Y-117547705D01*
X157618686Y-117531737D01*
X157536840Y-117531737D01*
X157456566Y-117547705D01*
X157380950Y-117579026D01*
X157312897Y-117624497D01*
X157255023Y-117682371D01*
X157209552Y-117750424D01*
X157178231Y-117826040D01*
X157162263Y-117906314D01*
X155968263Y-117906314D01*
X155952295Y-117826040D01*
X155935505Y-117785505D01*
X155976040Y-117802295D01*
X156056314Y-117818263D01*
X156138160Y-117818263D01*
X156218434Y-117802295D01*
X156294050Y-117770974D01*
X156362103Y-117725503D01*
X156419977Y-117667629D01*
X156465448Y-117599576D01*
X156496769Y-117523960D01*
X156512737Y-117443686D01*
X156512737Y-117361840D01*
X156496769Y-117281566D01*
X156465448Y-117205950D01*
X156419977Y-117137897D01*
X156362103Y-117080023D01*
X156294050Y-117034552D01*
X156218434Y-117003231D01*
X156138160Y-116987263D01*
X156056314Y-116987263D01*
X155976040Y-117003231D01*
X155900424Y-117034552D01*
X155832371Y-117080023D01*
X155774497Y-117137897D01*
X155729026Y-117205950D01*
X155697705Y-117281566D01*
X155681737Y-117361840D01*
X155681737Y-117443686D01*
X155697705Y-117523960D01*
X155714495Y-117564495D01*
X155673960Y-117547705D01*
X155593686Y-117531737D01*
X155511840Y-117531737D01*
X155431566Y-117547705D01*
X155355950Y-117579026D01*
X155287897Y-117624497D01*
X155230023Y-117682371D01*
X155184552Y-117750424D01*
X155153231Y-117826040D01*
X155137263Y-117906314D01*
X153918263Y-117906314D01*
X153902295Y-117826040D01*
X153885505Y-117785505D01*
X153926040Y-117802295D01*
X154006314Y-117818263D01*
X154088160Y-117818263D01*
X154168434Y-117802295D01*
X154244050Y-117770974D01*
X154312103Y-117725503D01*
X154369977Y-117667629D01*
X154415448Y-117599576D01*
X154446769Y-117523960D01*
X154462737Y-117443686D01*
X154462737Y-117361840D01*
X154446769Y-117281566D01*
X154415448Y-117205950D01*
X154369977Y-117137897D01*
X154312103Y-117080023D01*
X154244050Y-117034552D01*
X154168434Y-117003231D01*
X154088160Y-116987263D01*
X154006314Y-116987263D01*
X153926040Y-117003231D01*
X153850424Y-117034552D01*
X153782371Y-117080023D01*
X153724497Y-117137897D01*
X153679026Y-117205950D01*
X153647705Y-117281566D01*
X153631737Y-117361840D01*
X153631737Y-117443686D01*
X153647705Y-117523960D01*
X153664495Y-117564495D01*
X153623960Y-117547705D01*
X153543686Y-117531737D01*
X153461840Y-117531737D01*
X153381566Y-117547705D01*
X153305950Y-117579026D01*
X153237897Y-117624497D01*
X153180023Y-117682371D01*
X153134552Y-117750424D01*
X153103231Y-117826040D01*
X153087263Y-117906314D01*
X151868263Y-117906314D01*
X151852295Y-117826040D01*
X151835505Y-117785505D01*
X151876040Y-117802295D01*
X151956314Y-117818263D01*
X152038160Y-117818263D01*
X152118434Y-117802295D01*
X152194050Y-117770974D01*
X152262103Y-117725503D01*
X152319977Y-117667629D01*
X152365448Y-117599576D01*
X152396769Y-117523960D01*
X152412737Y-117443686D01*
X152412737Y-117361840D01*
X152396769Y-117281566D01*
X152365448Y-117205950D01*
X152319977Y-117137897D01*
X152262103Y-117080023D01*
X152194050Y-117034552D01*
X152118434Y-117003231D01*
X152038160Y-116987263D01*
X151956314Y-116987263D01*
X151876040Y-117003231D01*
X151800424Y-117034552D01*
X151732371Y-117080023D01*
X151674497Y-117137897D01*
X151629026Y-117205950D01*
X151597705Y-117281566D01*
X151581737Y-117361840D01*
X151581737Y-117443686D01*
X151597705Y-117523960D01*
X151614495Y-117564495D01*
X151573960Y-117547705D01*
X151493686Y-117531737D01*
X151411840Y-117531737D01*
X151331566Y-117547705D01*
X151255950Y-117579026D01*
X151187897Y-117624497D01*
X151130023Y-117682371D01*
X151084552Y-117750424D01*
X151053231Y-117826040D01*
X151037263Y-117906314D01*
X150765524Y-117906314D01*
X150604000Y-117744790D01*
X150604000Y-117512458D01*
X150605227Y-117500000D01*
X150604000Y-117487542D01*
X150604000Y-117487531D01*
X150600324Y-117450207D01*
X150585800Y-117402328D01*
X150577521Y-117386840D01*
X150562215Y-117358203D01*
X150538422Y-117329212D01*
X150538419Y-117329209D01*
X150530473Y-117319527D01*
X150520791Y-117311581D01*
X145288419Y-112079209D01*
X145280473Y-112069527D01*
X145270791Y-112061581D01*
X145270788Y-112061578D01*
X145258323Y-112051349D01*
X145241797Y-112037786D01*
X145197672Y-112014200D01*
X145149793Y-111999676D01*
X145112469Y-111996000D01*
X145112458Y-111996000D01*
X145100000Y-111994773D01*
X145087542Y-111996000D01*
X107155210Y-111996000D01*
X107118287Y-111959077D01*
X162334500Y-111959077D01*
X162334500Y-112040923D01*
X162350468Y-112121197D01*
X162381789Y-112196813D01*
X162427260Y-112264866D01*
X162485134Y-112322740D01*
X162553187Y-112368211D01*
X162628803Y-112399532D01*
X162709077Y-112415500D01*
X162790923Y-112415500D01*
X162871197Y-112399532D01*
X162946813Y-112368211D01*
X163014866Y-112322740D01*
X163072740Y-112264866D01*
X163118211Y-112196813D01*
X163149532Y-112121197D01*
X163165500Y-112040923D01*
X163165500Y-111959077D01*
X163149532Y-111878803D01*
X163118211Y-111803187D01*
X163072740Y-111735134D01*
X163014866Y-111677260D01*
X162946813Y-111631789D01*
X162871197Y-111600468D01*
X162790923Y-111584500D01*
X162709077Y-111584500D01*
X162628803Y-111600468D01*
X162553187Y-111631789D01*
X162485134Y-111677260D01*
X162427260Y-111735134D01*
X162381789Y-111803187D01*
X162350468Y-111878803D01*
X162334500Y-111959077D01*
X107118287Y-111959077D01*
X106462950Y-111303740D01*
X106465500Y-111290923D01*
X106465500Y-111209077D01*
X106449532Y-111128803D01*
X106418211Y-111053187D01*
X106372740Y-110985134D01*
X106314866Y-110927260D01*
X106246813Y-110881789D01*
X106171197Y-110850468D01*
X106090923Y-110834500D01*
X106009077Y-110834500D01*
X105928803Y-110850468D01*
X105853187Y-110881789D01*
X105785134Y-110927260D01*
X105727260Y-110985134D01*
X105681789Y-111053187D01*
X105650468Y-111128803D01*
X105634500Y-111209077D01*
X105165500Y-111209077D01*
X105149532Y-111128803D01*
X105118211Y-111053187D01*
X105072740Y-110985134D01*
X105014866Y-110927260D01*
X104946813Y-110881789D01*
X104871197Y-110850468D01*
X104790923Y-110834500D01*
X104709077Y-110834500D01*
X104628803Y-110850468D01*
X104553187Y-110881789D01*
X104485134Y-110927260D01*
X104427260Y-110985134D01*
X104381789Y-111053187D01*
X104350468Y-111128803D01*
X104334500Y-111209077D01*
X74665500Y-111209077D01*
X74665500Y-104386517D01*
X75509500Y-104386517D01*
X75509500Y-105113483D01*
X75651324Y-105826479D01*
X75929521Y-106498107D01*
X76333401Y-107102557D01*
X76847443Y-107616599D01*
X77451893Y-108020479D01*
X78123521Y-108298676D01*
X78836517Y-108440500D01*
X79563483Y-108440500D01*
X80276479Y-108298676D01*
X80948107Y-108020479D01*
X81040001Y-107959077D01*
X113584500Y-107959077D01*
X113584500Y-108040923D01*
X113600468Y-108121197D01*
X113631789Y-108196813D01*
X113677260Y-108264866D01*
X113735134Y-108322740D01*
X113803187Y-108368211D01*
X113878803Y-108399532D01*
X113959077Y-108415500D01*
X114040923Y-108415500D01*
X114121197Y-108399532D01*
X114196813Y-108368211D01*
X114264866Y-108322740D01*
X114322740Y-108264866D01*
X114368211Y-108196813D01*
X114399532Y-108121197D01*
X114415500Y-108040923D01*
X114415500Y-107959077D01*
X114399532Y-107878803D01*
X114368211Y-107803187D01*
X114322740Y-107735134D01*
X114264866Y-107677260D01*
X114196813Y-107631789D01*
X114121197Y-107600468D01*
X114040923Y-107584500D01*
X113959077Y-107584500D01*
X113878803Y-107600468D01*
X113803187Y-107631789D01*
X113735134Y-107677260D01*
X113677260Y-107735134D01*
X113631789Y-107803187D01*
X113600468Y-107878803D01*
X113584500Y-107959077D01*
X81040001Y-107959077D01*
X81552557Y-107616599D01*
X82066599Y-107102557D01*
X82470479Y-106498107D01*
X82748676Y-105826479D01*
X82791920Y-105609077D01*
X99884500Y-105609077D01*
X99884500Y-105690923D01*
X99900468Y-105771197D01*
X99931789Y-105846813D01*
X99977260Y-105914866D01*
X100035134Y-105972740D01*
X100103187Y-106018211D01*
X100119576Y-106025000D01*
X100103187Y-106031788D01*
X100035134Y-106077259D01*
X99977260Y-106135133D01*
X99931789Y-106203186D01*
X99900468Y-106278802D01*
X99884500Y-106359076D01*
X99884500Y-106440922D01*
X99900468Y-106521196D01*
X99931789Y-106596812D01*
X99977260Y-106664865D01*
X100035134Y-106722739D01*
X100103187Y-106768210D01*
X100119579Y-106775000D01*
X100103188Y-106781789D01*
X100035135Y-106827260D01*
X99977261Y-106885134D01*
X99931790Y-106953187D01*
X99900469Y-107028803D01*
X99884501Y-107109077D01*
X99884501Y-107190923D01*
X99900469Y-107271197D01*
X99931790Y-107346813D01*
X99977261Y-107414866D01*
X100035135Y-107472740D01*
X100103188Y-107518211D01*
X100178804Y-107549532D01*
X100259078Y-107565500D01*
X100340924Y-107565500D01*
X100421198Y-107549532D01*
X100496814Y-107518211D01*
X100564867Y-107472740D01*
X100622741Y-107414866D01*
X100668212Y-107346813D01*
X100699533Y-107271197D01*
X100700001Y-107268847D01*
X100700468Y-107271197D01*
X100731789Y-107346813D01*
X100777260Y-107414866D01*
X100835134Y-107472740D01*
X100903187Y-107518211D01*
X100978803Y-107549532D01*
X101059077Y-107565500D01*
X101140923Y-107565500D01*
X101221197Y-107549532D01*
X101296813Y-107518211D01*
X101364866Y-107472740D01*
X101422740Y-107414866D01*
X101468211Y-107346813D01*
X101499532Y-107271197D01*
X101500000Y-107268844D01*
X101500468Y-107271197D01*
X101531789Y-107346813D01*
X101577260Y-107414866D01*
X101635134Y-107472740D01*
X101703187Y-107518211D01*
X101778803Y-107549532D01*
X101859077Y-107565500D01*
X101940923Y-107565500D01*
X102021197Y-107549532D01*
X102096813Y-107518211D01*
X102164866Y-107472740D01*
X102222740Y-107414866D01*
X102268211Y-107346813D01*
X102299532Y-107271197D01*
X102300000Y-107268844D01*
X102300468Y-107271197D01*
X102331789Y-107346813D01*
X102377260Y-107414866D01*
X102435134Y-107472740D01*
X102503187Y-107518211D01*
X102578803Y-107549532D01*
X102659077Y-107565500D01*
X102740923Y-107565500D01*
X102821197Y-107549532D01*
X102896813Y-107518211D01*
X102964866Y-107472740D01*
X103022740Y-107414866D01*
X103068211Y-107346813D01*
X103099532Y-107271197D01*
X103115500Y-107190923D01*
X103115500Y-107109077D01*
X103099532Y-107028803D01*
X103068211Y-106953187D01*
X103022740Y-106885134D01*
X102964866Y-106827260D01*
X102896813Y-106781789D01*
X102880423Y-106775000D01*
X102896813Y-106768211D01*
X102964866Y-106722740D01*
X103022740Y-106664866D01*
X103068211Y-106596813D01*
X103099532Y-106521197D01*
X103115500Y-106440923D01*
X103115500Y-106359077D01*
X103099532Y-106278803D01*
X103068211Y-106203187D01*
X103022740Y-106135134D01*
X102996683Y-106109077D01*
X106734500Y-106109077D01*
X106734500Y-106190923D01*
X106750468Y-106271197D01*
X106781789Y-106346813D01*
X106827260Y-106414866D01*
X106885134Y-106472740D01*
X106953187Y-106518211D01*
X107028803Y-106549532D01*
X107109077Y-106565500D01*
X107190923Y-106565500D01*
X107271197Y-106549532D01*
X107346813Y-106518211D01*
X107414866Y-106472740D01*
X107472740Y-106414866D01*
X107518211Y-106346813D01*
X107549532Y-106271197D01*
X107565500Y-106190923D01*
X107565500Y-106109077D01*
X107549532Y-106028803D01*
X107518211Y-105953187D01*
X107472740Y-105885134D01*
X107414866Y-105827260D01*
X107346813Y-105781789D01*
X107271197Y-105750468D01*
X107190923Y-105734500D01*
X107109077Y-105734500D01*
X107028803Y-105750468D01*
X106953187Y-105781789D01*
X106885134Y-105827260D01*
X106827260Y-105885134D01*
X106781789Y-105953187D01*
X106750468Y-106028803D01*
X106734500Y-106109077D01*
X102996683Y-106109077D01*
X102964866Y-106077260D01*
X102896813Y-106031789D01*
X102880423Y-106025000D01*
X102896813Y-106018211D01*
X102964866Y-105972740D01*
X103022740Y-105914866D01*
X103068211Y-105846813D01*
X103099532Y-105771197D01*
X103115500Y-105690923D01*
X103115500Y-105609077D01*
X103099532Y-105528803D01*
X103068211Y-105453187D01*
X103022740Y-105385134D01*
X102964866Y-105327260D01*
X102896813Y-105281789D01*
X102821197Y-105250468D01*
X102740923Y-105234500D01*
X102659077Y-105234500D01*
X102578803Y-105250468D01*
X102503187Y-105281789D01*
X102435134Y-105327260D01*
X102377260Y-105385134D01*
X102331789Y-105453187D01*
X102300468Y-105528803D01*
X102300000Y-105531156D01*
X102299532Y-105528803D01*
X102268211Y-105453187D01*
X102222740Y-105385134D01*
X102164866Y-105327260D01*
X102096813Y-105281789D01*
X102021197Y-105250468D01*
X101940923Y-105234500D01*
X101859077Y-105234500D01*
X101778803Y-105250468D01*
X101703187Y-105281789D01*
X101635134Y-105327260D01*
X101577260Y-105385134D01*
X101531789Y-105453187D01*
X101500468Y-105528803D01*
X101500000Y-105531156D01*
X101499532Y-105528803D01*
X101468211Y-105453187D01*
X101422740Y-105385134D01*
X101364866Y-105327260D01*
X101296813Y-105281789D01*
X101221197Y-105250468D01*
X101140923Y-105234500D01*
X101059077Y-105234500D01*
X100978803Y-105250468D01*
X100903187Y-105281789D01*
X100835134Y-105327260D01*
X100777260Y-105385134D01*
X100731789Y-105453187D01*
X100700468Y-105528803D01*
X100700000Y-105531156D01*
X100699532Y-105528803D01*
X100668211Y-105453187D01*
X100622740Y-105385134D01*
X100564866Y-105327260D01*
X100496813Y-105281789D01*
X100421197Y-105250468D01*
X100340923Y-105234500D01*
X100259077Y-105234500D01*
X100178803Y-105250468D01*
X100103187Y-105281789D01*
X100035134Y-105327260D01*
X99977260Y-105385134D01*
X99931789Y-105453187D01*
X99900468Y-105528803D01*
X99884500Y-105609077D01*
X82791920Y-105609077D01*
X82890500Y-105113483D01*
X82890500Y-104386517D01*
X82748676Y-103673521D01*
X82470479Y-103001893D01*
X82066599Y-102397443D01*
X82042053Y-102372897D01*
X93909500Y-102372897D01*
X93909500Y-102627103D01*
X93959093Y-102876425D01*
X94056374Y-103111281D01*
X94197603Y-103322646D01*
X94377354Y-103502397D01*
X94588719Y-103643626D01*
X94823575Y-103740907D01*
X95072897Y-103790500D01*
X95327103Y-103790500D01*
X95576425Y-103740907D01*
X95811281Y-103643626D01*
X96022646Y-103502397D01*
X96202397Y-103322646D01*
X96343626Y-103111281D01*
X96440907Y-102876425D01*
X96490500Y-102627103D01*
X96490500Y-102372897D01*
X96440907Y-102123575D01*
X96343626Y-101888719D01*
X96202397Y-101677354D01*
X96022646Y-101497603D01*
X95811281Y-101356374D01*
X95576425Y-101259093D01*
X95327103Y-101209500D01*
X95072897Y-101209500D01*
X94823575Y-101259093D01*
X94588719Y-101356374D01*
X94377354Y-101497603D01*
X94197603Y-101677354D01*
X94056374Y-101888719D01*
X93959093Y-102123575D01*
X93909500Y-102372897D01*
X82042053Y-102372897D01*
X81552557Y-101883401D01*
X80948107Y-101479521D01*
X80276479Y-101201324D01*
X79563483Y-101059500D01*
X78836517Y-101059500D01*
X78123521Y-101201324D01*
X77451893Y-101479521D01*
X76847443Y-101883401D01*
X76333401Y-102397443D01*
X75929521Y-103001893D01*
X75651324Y-103673521D01*
X75509500Y-104386517D01*
X74665500Y-104386517D01*
X74665500Y-101010535D01*
X74681454Y-100847824D01*
X74725648Y-100701445D01*
X74797433Y-100566437D01*
X74894077Y-100447941D01*
X75011893Y-100350475D01*
X75146392Y-100277752D01*
X75292466Y-100232535D01*
X75454537Y-100215500D01*
X93371772Y-100215500D01*
X93403674Y-100232552D01*
G37*
X93403674Y-100232552D02*
X93450893Y-100246875D01*
X93487695Y-100250500D01*
X110249500Y-100250500D01*
X110249501Y-105512305D01*
X110249585Y-105513161D01*
X110249603Y-105515702D01*
X110250792Y-105527018D01*
X110250792Y-105538406D01*
X110251158Y-105541885D01*
X110272913Y-105735835D01*
X110277631Y-105758033D01*
X110282043Y-105780315D01*
X110283078Y-105783657D01*
X110342091Y-105969687D01*
X110351019Y-105990516D01*
X110359686Y-106011545D01*
X110361350Y-106014622D01*
X110455372Y-106185647D01*
X110468209Y-106204395D01*
X110480763Y-106223290D01*
X110482989Y-106225980D01*
X110482993Y-106225986D01*
X110482998Y-106225991D01*
X110608443Y-106375491D01*
X110624634Y-106391347D01*
X110640662Y-106407487D01*
X110643373Y-106409697D01*
X110795473Y-106531988D01*
X110814424Y-106544389D01*
X110833292Y-106557116D01*
X110836381Y-106558758D01*
X111009336Y-106649177D01*
X111030357Y-106657670D01*
X111051318Y-106666482D01*
X111054663Y-106667491D01*
X111054669Y-106667493D01*
X111241893Y-106722595D01*
X111264159Y-106726842D01*
X111286433Y-106731415D01*
X111289915Y-106731756D01*
X111484276Y-106749445D01*
X111506981Y-106749287D01*
X111529685Y-106749445D01*
X111533166Y-106749104D01*
X111727263Y-106728703D01*
X111749494Y-106724139D01*
X111771804Y-106719884D01*
X111775151Y-106718873D01*
X111775157Y-106718871D01*
X111961591Y-106661160D01*
X111982504Y-106652369D01*
X112003571Y-106643858D01*
X112006655Y-106642217D01*
X112006660Y-106642215D01*
X112006664Y-106642212D01*
X112178336Y-106549390D01*
X112197130Y-106536714D01*
X112216158Y-106524262D01*
X112218868Y-106522051D01*
X112369246Y-106397647D01*
X112385235Y-106381546D01*
X112401465Y-106365653D01*
X112403695Y-106362957D01*
X112527045Y-106211715D01*
X112539593Y-106192828D01*
X112552436Y-106174072D01*
X112554099Y-106170994D01*
X112645725Y-105998672D01*
X112654367Y-105977704D01*
X112663321Y-105956814D01*
X112664355Y-105953472D01*
X112720764Y-105766636D01*
X112725171Y-105744376D01*
X112729894Y-105722158D01*
X112730259Y-105718679D01*
X112749304Y-105524445D01*
X112750500Y-105512305D01*
X112750500Y-102372897D01*
X153509500Y-102372897D01*
X153509500Y-102627103D01*
X153559093Y-102876425D01*
X153656374Y-103111281D01*
X153797603Y-103322646D01*
X153977354Y-103502397D01*
X154188719Y-103643626D01*
X154423575Y-103740907D01*
X154672897Y-103790500D01*
X154927103Y-103790500D01*
X155176425Y-103740907D01*
X155411281Y-103643626D01*
X155622646Y-103502397D01*
X155802397Y-103322646D01*
X155943626Y-103111281D01*
X156040907Y-102876425D01*
X156090500Y-102627103D01*
X156090500Y-102372897D01*
X156040907Y-102123575D01*
X155943626Y-101888719D01*
X155802397Y-101677354D01*
X155622646Y-101497603D01*
X155411281Y-101356374D01*
X155176425Y-101259093D01*
X154927103Y-101209500D01*
X154672897Y-101209500D01*
X154423575Y-101259093D01*
X154188719Y-101356374D01*
X153977354Y-101497603D01*
X153797603Y-101677354D01*
X153656374Y-101888719D01*
X153559093Y-102123575D01*
X153509500Y-102372897D01*
X112750500Y-102372897D01*
X112750500Y-100250500D01*
X156512305Y-100250500D01*
X156549107Y-100246875D01*
X156596326Y-100232552D01*
X156628228Y-100215500D01*
X157489465Y-100215500D01*
X157652176Y-100231454D01*
X157798555Y-100275648D01*
X157933563Y-100347433D01*
X158052059Y-100444077D01*
X158149525Y-100561893D01*
X158222248Y-100696392D01*
X158267465Y-100842466D01*
X158284500Y-101004537D01*
X158284501Y-107710579D01*
X158284537Y-107710940D01*
X158284574Y-107721695D01*
X158285526Y-107731064D01*
X158285460Y-107740475D01*
X158285754Y-107743470D01*
X158346954Y-108325759D01*
X158350888Y-108344923D01*
X158354542Y-108364079D01*
X158355409Y-108366949D01*
X158355411Y-108366959D01*
X158355415Y-108366968D01*
X158528549Y-108926273D01*
X158536122Y-108944290D01*
X158543434Y-108962387D01*
X158544845Y-108965040D01*
X158544847Y-108965045D01*
X158544850Y-108965049D01*
X158823323Y-109480076D01*
X158834256Y-109496285D01*
X158844940Y-109512612D01*
X158846841Y-109514944D01*
X159220051Y-109966077D01*
X159233920Y-109979849D01*
X159247576Y-109993794D01*
X159249889Y-109995707D01*
X159249895Y-109995713D01*
X159249902Y-109995717D01*
X159703623Y-110365765D01*
X159719901Y-110376580D01*
X159736007Y-110387608D01*
X159738646Y-110389035D01*
X159738654Y-110389040D01*
X159738662Y-110389043D01*
X160255618Y-110663913D01*
X160273654Y-110671347D01*
X160291628Y-110679051D01*
X160294497Y-110679938D01*
X160294504Y-110679941D01*
X160294511Y-110679942D01*
X160855011Y-110849167D01*
X160874151Y-110852957D01*
X160893275Y-110857022D01*
X160896257Y-110857335D01*
X160896268Y-110857337D01*
X160896278Y-110857337D01*
X161478970Y-110914471D01*
X161478974Y-110914471D01*
X161489421Y-110915500D01*
X167639465Y-110915500D01*
X168190645Y-110969544D01*
X168710696Y-111126556D01*
X169190349Y-111381592D01*
X169611325Y-111724933D01*
X169957600Y-112143508D01*
X170215976Y-112621364D01*
X170376616Y-113140307D01*
X170434466Y-113690725D01*
X170434501Y-113700750D01*
X170434500Y-117792989D01*
X170426733Y-117807521D01*
X170412980Y-117852855D01*
X170409500Y-117888192D01*
X170409501Y-125700381D01*
X170050383Y-126059500D01*
X133049618Y-126059500D01*
X132690500Y-125700383D01*
X132690500Y-118859077D01*
X134699500Y-118859077D01*
X134699500Y-118940923D01*
X134715468Y-119021197D01*
X134746789Y-119096813D01*
X134792260Y-119164866D01*
X134850134Y-119222740D01*
X134918187Y-119268211D01*
X134993803Y-119299532D01*
X135074077Y-119315500D01*
X135155923Y-119315500D01*
X135236197Y-119299532D01*
X135311813Y-119268211D01*
X135379866Y-119222740D01*
X135437740Y-119164866D01*
X135483211Y-119096813D01*
X135500000Y-119056281D01*
X135516789Y-119096813D01*
X135562260Y-119164866D01*
X135620134Y-119222740D01*
X135688187Y-119268211D01*
X135763803Y-119299532D01*
X135844077Y-119315500D01*
X135925923Y-119315500D01*
X136006197Y-119299532D01*
X136081813Y-119268211D01*
X136149866Y-119222740D01*
X136207740Y-119164866D01*
X136253211Y-119096813D01*
X136284532Y-119021197D01*
X136300500Y-118940923D01*
X136300500Y-118859077D01*
X136284532Y-118778803D01*
X136253211Y-118703187D01*
X136207740Y-118635134D01*
X136149866Y-118577260D01*
X136081813Y-118531789D01*
X136006197Y-118500468D01*
X135925923Y-118484500D01*
X135844077Y-118484500D01*
X135763803Y-118500468D01*
X135688187Y-118531789D01*
X135620134Y-118577260D01*
X135562260Y-118635134D01*
X135516789Y-118703187D01*
X135500000Y-118743719D01*
X135483211Y-118703187D01*
X135437740Y-118635134D01*
X135379866Y-118577260D01*
X135311813Y-118531789D01*
X135236197Y-118500468D01*
X135155923Y-118484500D01*
X135074077Y-118484500D01*
X134993803Y-118500468D01*
X134918187Y-118531789D01*
X134850134Y-118577260D01*
X134792260Y-118635134D01*
X134746789Y-118703187D01*
X134715468Y-118778803D01*
X134699500Y-118859077D01*
X132690500Y-118859077D01*
X132690500Y-118838191D01*
X132690417Y-118837349D01*
X132690401Y-118835050D01*
X132689260Y-118824194D01*
X132689260Y-118813267D01*
X132688908Y-118809927D01*
X132668241Y-118625676D01*
X132663708Y-118604349D01*
X132659476Y-118582973D01*
X132658483Y-118579765D01*
X132602422Y-118403036D01*
X132593818Y-118382960D01*
X132585528Y-118362847D01*
X132583931Y-118359893D01*
X132494610Y-118197419D01*
X132482283Y-118179416D01*
X132470232Y-118161277D01*
X132468091Y-118158690D01*
X132445120Y-118131314D01*
X136312263Y-118131314D01*
X136312263Y-118213160D01*
X136328231Y-118293434D01*
X136359552Y-118369050D01*
X136405023Y-118437103D01*
X136462897Y-118494977D01*
X136530950Y-118540448D01*
X136606566Y-118571769D01*
X136686840Y-118587737D01*
X136768686Y-118587737D01*
X136848960Y-118571769D01*
X136924576Y-118540448D01*
X136992629Y-118494977D01*
X137050503Y-118437103D01*
X137095974Y-118369050D01*
X137127295Y-118293434D01*
X137143263Y-118213160D01*
X137143263Y-118131314D01*
X137127295Y-118051040D01*
X137110505Y-118010505D01*
X137151040Y-118027295D01*
X137231314Y-118043263D01*
X137313160Y-118043263D01*
X137393434Y-118027295D01*
X137469050Y-117995974D01*
X137537103Y-117950503D01*
X137581292Y-117906314D01*
X138137263Y-117906314D01*
X138137263Y-117988160D01*
X138153231Y-118068434D01*
X138184552Y-118144050D01*
X138230023Y-118212103D01*
X138287897Y-118269977D01*
X138355950Y-118315448D01*
X138431566Y-118346769D01*
X138511840Y-118362737D01*
X138593686Y-118362737D01*
X138673960Y-118346769D01*
X138749576Y-118315448D01*
X138817629Y-118269977D01*
X138875503Y-118212103D01*
X138920974Y-118144050D01*
X138952295Y-118068434D01*
X138968263Y-117988160D01*
X138968263Y-117906314D01*
X140187263Y-117906314D01*
X140187263Y-117988160D01*
X140203231Y-118068434D01*
X140234552Y-118144050D01*
X140280023Y-118212103D01*
X140337897Y-118269977D01*
X140405950Y-118315448D01*
X140481566Y-118346769D01*
X140561840Y-118362737D01*
X140643686Y-118362737D01*
X140723960Y-118346769D01*
X140799576Y-118315448D01*
X140867629Y-118269977D01*
X140925503Y-118212103D01*
X140970974Y-118144050D01*
X141002295Y-118068434D01*
X141018263Y-117988160D01*
X141018263Y-117906314D01*
X142262263Y-117906314D01*
X142262263Y-117988160D01*
X142278231Y-118068434D01*
X142309552Y-118144050D01*
X142355023Y-118212103D01*
X142412897Y-118269977D01*
X142480950Y-118315448D01*
X142556566Y-118346769D01*
X142636840Y-118362737D01*
X142718686Y-118362737D01*
X142798960Y-118346769D01*
X142874576Y-118315448D01*
X142942629Y-118269977D01*
X143000503Y-118212103D01*
X143045974Y-118144050D01*
X143077295Y-118068434D01*
X143093263Y-117988160D01*
X143093263Y-117931314D01*
X144312263Y-117931314D01*
X144312263Y-118013160D01*
X144328231Y-118093434D01*
X144359552Y-118169050D01*
X144405023Y-118237103D01*
X144462897Y-118294977D01*
X144530950Y-118340448D01*
X144606566Y-118371769D01*
X144686840Y-118387737D01*
X144768686Y-118387737D01*
X144848960Y-118371769D01*
X144924576Y-118340448D01*
X144992629Y-118294977D01*
X145050503Y-118237103D01*
X145095974Y-118169050D01*
X145127295Y-118093434D01*
X145143263Y-118013160D01*
X145143263Y-117931314D01*
X145138291Y-117906314D01*
X146337263Y-117906314D01*
X146337263Y-117988160D01*
X146353231Y-118068434D01*
X146384552Y-118144050D01*
X146430023Y-118212103D01*
X146487897Y-118269977D01*
X146555950Y-118315448D01*
X146631566Y-118346769D01*
X146711840Y-118362737D01*
X146793686Y-118362737D01*
X146873960Y-118346769D01*
X146949576Y-118315448D01*
X147017629Y-118269977D01*
X147075503Y-118212103D01*
X147120974Y-118144050D01*
X147152295Y-118068434D01*
X147168263Y-117988160D01*
X147168263Y-117906314D01*
X147152295Y-117826040D01*
X147135505Y-117785505D01*
X147176040Y-117802295D01*
X147256314Y-117818263D01*
X147338160Y-117818263D01*
X147418434Y-117802295D01*
X147494050Y-117770974D01*
X147562103Y-117725503D01*
X147619977Y-117667629D01*
X147665448Y-117599576D01*
X147696769Y-117523960D01*
X147712737Y-117443686D01*
X147712737Y-117361840D01*
X147696769Y-117281566D01*
X147665448Y-117205950D01*
X147619977Y-117137897D01*
X147562103Y-117080023D01*
X147494050Y-117034552D01*
X147418434Y-117003231D01*
X147338160Y-116987263D01*
X147256314Y-116987263D01*
X147176040Y-117003231D01*
X147100424Y-117034552D01*
X147032371Y-117080023D01*
X146974497Y-117137897D01*
X146929026Y-117205950D01*
X146897705Y-117281566D01*
X146881737Y-117361840D01*
X146881737Y-117443686D01*
X146897705Y-117523960D01*
X146914495Y-117564495D01*
X146873960Y-117547705D01*
X146793686Y-117531737D01*
X146711840Y-117531737D01*
X146631566Y-117547705D01*
X146555950Y-117579026D01*
X146487897Y-117624497D01*
X146430023Y-117682371D01*
X146384552Y-117750424D01*
X146353231Y-117826040D01*
X146337263Y-117906314D01*
X145138291Y-117906314D01*
X145127295Y-117851040D01*
X145110505Y-117810505D01*
X145151040Y-117827295D01*
X145231314Y-117843263D01*
X145313160Y-117843263D01*
X145393434Y-117827295D01*
X145469050Y-117795974D01*
X145537103Y-117750503D01*
X145594977Y-117692629D01*
X145640448Y-117624576D01*
X145671769Y-117548960D01*
X145687737Y-117468686D01*
X145687737Y-117386840D01*
X145671769Y-117306566D01*
X145640448Y-117230950D01*
X145594977Y-117162897D01*
X145537103Y-117105023D01*
X145469050Y-117059552D01*
X145393434Y-117028231D01*
X145313160Y-117012263D01*
X145231314Y-117012263D01*
X145151040Y-117028231D01*
X145075424Y-117059552D01*
X145007371Y-117105023D01*
X144949497Y-117162897D01*
X144904026Y-117230950D01*
X144872705Y-117306566D01*
X144856737Y-117386840D01*
X144856737Y-117468686D01*
X144872705Y-117548960D01*
X144889495Y-117589495D01*
X144848960Y-117572705D01*
X144768686Y-117556737D01*
X144686840Y-117556737D01*
X144606566Y-117572705D01*
X144530950Y-117604026D01*
X144462897Y-117649497D01*
X144405023Y-117707371D01*
X144359552Y-117775424D01*
X144328231Y-117851040D01*
X144312263Y-117931314D01*
X143093263Y-117931314D01*
X143093263Y-117906314D01*
X143077295Y-117826040D01*
X143060505Y-117785505D01*
X143101040Y-117802295D01*
X143181314Y-117818263D01*
X143263160Y-117818263D01*
X143343434Y-117802295D01*
X143419050Y-117770974D01*
X143487103Y-117725503D01*
X143544977Y-117667629D01*
X143590448Y-117599576D01*
X143621769Y-117523960D01*
X143637737Y-117443686D01*
X143637737Y-117361840D01*
X143621769Y-117281566D01*
X143590448Y-117205950D01*
X143544977Y-117137897D01*
X143487103Y-117080023D01*
X143419050Y-117034552D01*
X143343434Y-117003231D01*
X143263160Y-116987263D01*
X143181314Y-116987263D01*
X143101040Y-117003231D01*
X143025424Y-117034552D01*
X142957371Y-117080023D01*
X142899497Y-117137897D01*
X142854026Y-117205950D01*
X142822705Y-117281566D01*
X142806737Y-117361840D01*
X142806737Y-117443686D01*
X142822705Y-117523960D01*
X142839495Y-117564495D01*
X142798960Y-117547705D01*
X142718686Y-117531737D01*
X142636840Y-117531737D01*
X142556566Y-117547705D01*
X142480950Y-117579026D01*
X142412897Y-117624497D01*
X142355023Y-117682371D01*
X142309552Y-117750424D01*
X142278231Y-117826040D01*
X142262263Y-117906314D01*
X141018263Y-117906314D01*
X141002295Y-117826040D01*
X140985505Y-117785505D01*
X141026040Y-117802295D01*
X141106314Y-117818263D01*
X141188160Y-117818263D01*
X141268434Y-117802295D01*
X141344050Y-117770974D01*
X141412103Y-117725503D01*
X141469977Y-117667629D01*
X141515448Y-117599576D01*
X141546769Y-117523960D01*
X141562737Y-117443686D01*
X141562737Y-117361840D01*
X141546769Y-117281566D01*
X141515448Y-117205950D01*
X141469977Y-117137897D01*
X141412103Y-117080023D01*
X141344050Y-117034552D01*
X141268434Y-117003231D01*
X141188160Y-116987263D01*
X141106314Y-116987263D01*
X141026040Y-117003231D01*
X140950424Y-117034552D01*
X140882371Y-117080023D01*
X140824497Y-117137897D01*
X140779026Y-117205950D01*
X140747705Y-117281566D01*
X140731737Y-117361840D01*
X140731737Y-117443686D01*
X140747705Y-117523960D01*
X140764495Y-117564495D01*
X140723960Y-117547705D01*
X140643686Y-117531737D01*
X140561840Y-117531737D01*
X140481566Y-117547705D01*
X140405950Y-117579026D01*
X140337897Y-117624497D01*
X140280023Y-117682371D01*
X140234552Y-117750424D01*
X140203231Y-117826040D01*
X140187263Y-117906314D01*
X138968263Y-117906314D01*
X138952295Y-117826040D01*
X138935505Y-117785505D01*
X138976040Y-117802295D01*
X139056314Y-117818263D01*
X139138160Y-117818263D01*
X139218434Y-117802295D01*
X139294050Y-117770974D01*
X139362103Y-117725503D01*
X139419977Y-117667629D01*
X139465448Y-117599576D01*
X139496769Y-117523960D01*
X139512737Y-117443686D01*
X139512737Y-117361840D01*
X139496769Y-117281566D01*
X139465448Y-117205950D01*
X139419977Y-117137897D01*
X139362103Y-117080023D01*
X139294050Y-117034552D01*
X139218434Y-117003231D01*
X139138160Y-116987263D01*
X139056314Y-116987263D01*
X138976040Y-117003231D01*
X138900424Y-117034552D01*
X138832371Y-117080023D01*
X138774497Y-117137897D01*
X138729026Y-117205950D01*
X138697705Y-117281566D01*
X138681737Y-117361840D01*
X138681737Y-117443686D01*
X138697705Y-117523960D01*
X138714495Y-117564495D01*
X138673960Y-117547705D01*
X138593686Y-117531737D01*
X138511840Y-117531737D01*
X138431566Y-117547705D01*
X138355950Y-117579026D01*
X138287897Y-117624497D01*
X138230023Y-117682371D01*
X138184552Y-117750424D01*
X138153231Y-117826040D01*
X138137263Y-117906314D01*
X137581292Y-117906314D01*
X137594977Y-117892629D01*
X137640448Y-117824576D01*
X137671769Y-117748960D01*
X137687737Y-117668686D01*
X137687737Y-117586840D01*
X137671769Y-117506566D01*
X137640448Y-117430950D01*
X137594977Y-117362897D01*
X137537103Y-117305023D01*
X137469050Y-117259552D01*
X137393434Y-117228231D01*
X137313160Y-117212263D01*
X137231314Y-117212263D01*
X137151040Y-117228231D01*
X137075424Y-117259552D01*
X137007371Y-117305023D01*
X136949497Y-117362897D01*
X136904026Y-117430950D01*
X136872705Y-117506566D01*
X136856737Y-117586840D01*
X136856737Y-117668686D01*
X136872705Y-117748960D01*
X136889495Y-117789495D01*
X136848960Y-117772705D01*
X136768686Y-117756737D01*
X136686840Y-117756737D01*
X136606566Y-117772705D01*
X136530950Y-117804026D01*
X136462897Y-117849497D01*
X136405023Y-117907371D01*
X136359552Y-117975424D01*
X136328231Y-118051040D01*
X136312263Y-118131314D01*
X132445120Y-118131314D01*
X132348913Y-118016660D01*
X132333359Y-118001429D01*
X132317981Y-117985942D01*
X132315378Y-117983820D01*
X132170883Y-117867643D01*
X132152655Y-117855715D01*
X132134573Y-117843518D01*
X132131608Y-117841942D01*
X131967299Y-117756043D01*
X131947059Y-117747866D01*
X131926993Y-117739430D01*
X131923786Y-117738462D01*
X131923780Y-117738460D01*
X131923774Y-117738459D01*
X131745915Y-117686112D01*
X131724516Y-117682030D01*
X131703151Y-117677644D01*
X131699809Y-117677317D01*
X131515165Y-117660513D01*
X131493373Y-117660665D01*
X131471570Y-117660512D01*
X131468239Y-117660840D01*
X131468229Y-117660840D01*
X131468220Y-117660842D01*
X131283836Y-117680222D01*
X131262493Y-117684603D01*
X131241074Y-117688688D01*
X131237861Y-117689658D01*
X131237855Y-117689660D01*
X131060743Y-117744485D01*
X131040637Y-117752937D01*
X131020437Y-117761098D01*
X131017472Y-117762674D01*
X130854379Y-117850858D01*
X130836284Y-117863064D01*
X130818068Y-117874983D01*
X130815466Y-117877106D01*
X130672607Y-117995290D01*
X130657234Y-118010771D01*
X130641674Y-118026007D01*
X130639539Y-118028589D01*
X130639533Y-118028595D01*
X130639529Y-118028602D01*
X130522351Y-118172275D01*
X130510293Y-118190423D01*
X130497973Y-118208415D01*
X130496381Y-118211361D01*
X130496376Y-118211369D01*
X130496376Y-118211370D01*
X130409332Y-118375075D01*
X130401026Y-118395228D01*
X130392438Y-118415264D01*
X130391445Y-118418472D01*
X130337857Y-118595966D01*
X130333629Y-118617322D01*
X130329091Y-118638668D01*
X130328741Y-118642008D01*
X130310648Y-118826531D01*
X130309500Y-118838192D01*
X130309501Y-125700381D01*
X129950383Y-126059500D01*
X119949618Y-126059500D01*
X119590500Y-125700383D01*
X119590500Y-117888191D01*
X119587020Y-117852854D01*
X119573267Y-117807520D01*
X119565500Y-117792989D01*
X119565500Y-117559077D01*
X120084500Y-117559077D01*
X120084500Y-117640923D01*
X120100468Y-117721197D01*
X120131789Y-117796813D01*
X120177260Y-117864866D01*
X120235134Y-117922740D01*
X120303187Y-117968211D01*
X120378803Y-117999532D01*
X120381156Y-118000000D01*
X120378803Y-118000468D01*
X120303187Y-118031789D01*
X120235134Y-118077260D01*
X120177260Y-118135134D01*
X120131789Y-118203187D01*
X120100468Y-118278803D01*
X120084500Y-118359077D01*
X120084500Y-118440923D01*
X120100468Y-118521197D01*
X120131789Y-118596813D01*
X120177260Y-118664866D01*
X120235134Y-118722740D01*
X120303187Y-118768211D01*
X120378803Y-118799532D01*
X120381156Y-118800000D01*
X120378803Y-118800468D01*
X120303187Y-118831789D01*
X120235134Y-118877260D01*
X120177260Y-118935134D01*
X120131789Y-119003187D01*
X120100468Y-119078803D01*
X120084500Y-119159077D01*
X120084500Y-119240923D01*
X120100468Y-119321197D01*
X120131789Y-119396813D01*
X120177260Y-119464866D01*
X120235134Y-119522740D01*
X120303187Y-119568211D01*
X120378803Y-119599532D01*
X120381156Y-119600000D01*
X120378803Y-119600468D01*
X120303187Y-119631789D01*
X120235134Y-119677260D01*
X120177260Y-119735134D01*
X120131789Y-119803187D01*
X120100468Y-119878803D01*
X120084500Y-119959077D01*
X120084500Y-120040923D01*
X120100468Y-120121197D01*
X120131789Y-120196813D01*
X120177260Y-120264866D01*
X120235134Y-120322740D01*
X120303187Y-120368211D01*
X120378803Y-120399532D01*
X120459077Y-120415500D01*
X120540923Y-120415500D01*
X120621197Y-120399532D01*
X120696813Y-120368211D01*
X120764866Y-120322740D01*
X120822740Y-120264866D01*
X120868211Y-120196813D01*
X120875000Y-120180424D01*
X120881788Y-120196813D01*
X120927259Y-120264866D01*
X120985133Y-120322740D01*
X121053186Y-120368211D01*
X121128802Y-120399532D01*
X121209076Y-120415500D01*
X121290922Y-120415500D01*
X121371196Y-120399532D01*
X121446812Y-120368211D01*
X121514865Y-120322740D01*
X121572739Y-120264866D01*
X121618210Y-120196813D01*
X121625000Y-120180422D01*
X121631789Y-120196813D01*
X121677260Y-120264866D01*
X121735134Y-120322740D01*
X121803187Y-120368211D01*
X121878803Y-120399532D01*
X121959077Y-120415500D01*
X122040923Y-120415500D01*
X122121197Y-120399532D01*
X122196813Y-120368211D01*
X122264866Y-120322740D01*
X122322740Y-120264866D01*
X122368211Y-120196813D01*
X122399532Y-120121197D01*
X122415500Y-120040923D01*
X122415500Y-119959077D01*
X122399532Y-119878803D01*
X122368211Y-119803187D01*
X122322740Y-119735134D01*
X122264866Y-119677260D01*
X122196813Y-119631789D01*
X122121197Y-119600468D01*
X122118844Y-119600000D01*
X122121197Y-119599532D01*
X122196813Y-119568211D01*
X122264866Y-119522740D01*
X122322740Y-119464866D01*
X122368211Y-119396813D01*
X122399532Y-119321197D01*
X122415500Y-119240923D01*
X122415500Y-119159077D01*
X122399532Y-119078803D01*
X122368211Y-119003187D01*
X122322740Y-118935134D01*
X122264866Y-118877260D01*
X122196813Y-118831789D01*
X122121197Y-118800468D01*
X122118844Y-118800000D01*
X122121196Y-118799532D01*
X122196812Y-118768211D01*
X122264865Y-118722740D01*
X122322739Y-118664866D01*
X122368210Y-118596813D01*
X122399531Y-118521197D01*
X122415499Y-118440923D01*
X122415499Y-118359077D01*
X122399531Y-118278803D01*
X122368210Y-118203187D01*
X122322739Y-118135134D01*
X122264865Y-118077260D01*
X122196812Y-118031789D01*
X122121196Y-118000468D01*
X122118844Y-118000000D01*
X122121197Y-117999532D01*
X122196813Y-117968211D01*
X122264866Y-117922740D01*
X122322740Y-117864866D01*
X122368211Y-117796813D01*
X122399532Y-117721197D01*
X122415500Y-117640923D01*
X122415500Y-117559077D01*
X122399532Y-117478803D01*
X122368211Y-117403187D01*
X122322740Y-117335134D01*
X122264866Y-117277260D01*
X122196813Y-117231789D01*
X122121197Y-117200468D01*
X122040923Y-117184500D01*
X121959077Y-117184500D01*
X121878803Y-117200468D01*
X121803187Y-117231789D01*
X121735134Y-117277260D01*
X121677260Y-117335134D01*
X121631789Y-117403187D01*
X121625000Y-117419577D01*
X121618211Y-117403187D01*
X121572740Y-117335134D01*
X121514866Y-117277260D01*
X121446813Y-117231789D01*
X121371197Y-117200468D01*
X121290923Y-117184500D01*
X121209077Y-117184500D01*
X121128803Y-117200468D01*
X121053187Y-117231789D01*
X120985134Y-117277260D01*
X120927260Y-117335134D01*
X120881789Y-117403187D01*
X120875000Y-117419577D01*
X120868211Y-117403187D01*
X120822740Y-117335134D01*
X120764866Y-117277260D01*
X120696813Y-117231789D01*
X120621197Y-117200468D01*
X120540923Y-117184500D01*
X120459077Y-117184500D01*
X120378803Y-117200468D01*
X120303187Y-117231789D01*
X120235134Y-117277260D01*
X120177260Y-117335134D01*
X120131789Y-117403187D01*
X120100468Y-117478803D01*
X120084500Y-117559077D01*
X119565500Y-117559077D01*
X119565500Y-115529038D01*
X119570110Y-115523465D01*
X119594755Y-115477885D01*
X119610077Y-115428386D01*
X119615493Y-115376853D01*
X119615494Y-115373146D01*
X119615316Y-115347664D01*
X119614055Y-115335668D01*
X119614055Y-115323611D01*
X119613667Y-115319924D01*
X119573964Y-114965966D01*
X119568963Y-114942438D01*
X119564287Y-114918823D01*
X119563191Y-114915282D01*
X119455494Y-114575777D01*
X119446007Y-114553641D01*
X119436845Y-114531412D01*
X119435086Y-114528160D01*
X119435082Y-114528151D01*
X119435077Y-114528144D01*
X119263491Y-114216029D01*
X119249903Y-114196184D01*
X119236580Y-114176131D01*
X119234217Y-114173275D01*
X119005271Y-113900427D01*
X118988053Y-113883566D01*
X118971122Y-113866516D01*
X118968255Y-113864178D01*
X118968250Y-113864173D01*
X118968245Y-113864169D01*
X118690666Y-113640991D01*
X118670531Y-113627815D01*
X118650581Y-113614359D01*
X118647308Y-113612618D01*
X118331662Y-113447602D01*
X118309332Y-113438580D01*
X118287167Y-113429263D01*
X118283622Y-113428192D01*
X118283616Y-113428190D01*
X117941932Y-113327628D01*
X117918247Y-113323110D01*
X117894724Y-113318281D01*
X117891044Y-113317920D01*
X117891034Y-113317918D01*
X117891025Y-113317918D01*
X117536322Y-113285637D01*
X117512226Y-113285805D01*
X117488196Y-113285637D01*
X117484506Y-113285998D01*
X117130280Y-113323229D01*
X117106663Y-113328077D01*
X117083071Y-113332577D01*
X117079532Y-113333646D01*
X117079522Y-113333648D01*
X117079513Y-113333652D01*
X116739273Y-113438974D01*
X116717084Y-113448301D01*
X116694779Y-113457313D01*
X116691506Y-113459053D01*
X116378195Y-113628459D01*
X116358229Y-113641926D01*
X116338109Y-113655092D01*
X116335236Y-113657435D01*
X116060797Y-113884472D01*
X116043832Y-113901555D01*
X116026648Y-113918383D01*
X116024290Y-113921234D01*
X116024285Y-113921239D01*
X116024281Y-113921244D01*
X115799171Y-114197256D01*
X115785833Y-114217332D01*
X115772260Y-114237154D01*
X115770501Y-114240407D01*
X115770496Y-114240415D01*
X115770496Y-114240416D01*
X115603281Y-114554902D01*
X115594098Y-114577180D01*
X115584631Y-114599268D01*
X115583539Y-114602795D01*
X115583534Y-114602808D01*
X115583532Y-114602821D01*
X115480589Y-114943784D01*
X115475914Y-114967393D01*
X115470912Y-114990927D01*
X115470524Y-114994614D01*
X115435767Y-115349092D01*
X115435767Y-115400908D01*
X115445832Y-115451738D01*
X115465577Y-115499644D01*
X115484500Y-115528125D01*
X115484500Y-118136500D01*
X107915500Y-118136500D01*
X107915500Y-113560579D01*
X107916542Y-113550000D01*
X107912381Y-113507755D01*
X107900059Y-113467133D01*
X107880048Y-113429696D01*
X107853118Y-113396882D01*
X107820304Y-113369952D01*
X107782867Y-113349941D01*
X107742245Y-113337619D01*
X107710579Y-113334500D01*
X107700000Y-113333458D01*
X107689421Y-113334500D01*
X75460544Y-113334500D01*
X75297824Y-113318546D01*
X75151445Y-113274352D01*
X75016434Y-113202565D01*
X74897941Y-113105924D01*
X74800477Y-112988110D01*
X74727753Y-112853610D01*
X74682535Y-112707534D01*
X74665500Y-112545462D01*
X74665500Y-111209077D01*
X104334500Y-111209077D01*
X104334500Y-111290923D01*
X104350468Y-111371197D01*
X104381789Y-111446813D01*
X104427260Y-111514866D01*
X104485134Y-111572740D01*
X104553187Y-111618211D01*
X104628803Y-111649532D01*
X104709077Y-111665500D01*
X104790923Y-111665500D01*
X104871197Y-111649532D01*
X104946813Y-111618211D01*
X105014866Y-111572740D01*
X105072740Y-111514866D01*
X105118211Y-111446813D01*
X105149532Y-111371197D01*
X105165500Y-111290923D01*
X105165500Y-111209077D01*
X105634500Y-111209077D01*
X105634500Y-111290923D01*
X105650468Y-111371197D01*
X105681789Y-111446813D01*
X105727260Y-111514866D01*
X105785134Y-111572740D01*
X105853187Y-111618211D01*
X105928803Y-111649532D01*
X106009077Y-111665500D01*
X106090923Y-111665500D01*
X106103740Y-111662950D01*
X106861581Y-112420791D01*
X106869527Y-112430473D01*
X106879209Y-112438419D01*
X106879212Y-112438422D01*
X106908203Y-112462215D01*
X106929745Y-112473729D01*
X106952328Y-112485800D01*
X107000207Y-112500324D01*
X107037531Y-112504000D01*
X107037542Y-112504000D01*
X107050000Y-112505227D01*
X107062458Y-112504000D01*
X144994790Y-112504000D01*
X149512114Y-117021324D01*
X149468434Y-117003231D01*
X149388160Y-116987263D01*
X149306314Y-116987263D01*
X149226040Y-117003231D01*
X149150424Y-117034552D01*
X149082371Y-117080023D01*
X149024497Y-117137897D01*
X148979026Y-117205950D01*
X148947705Y-117281566D01*
X148931737Y-117361840D01*
X148931737Y-117443686D01*
X148947705Y-117523960D01*
X148964495Y-117564495D01*
X148923960Y-117547705D01*
X148843686Y-117531737D01*
X148761840Y-117531737D01*
X148681566Y-117547705D01*
X148605950Y-117579026D01*
X148537897Y-117624497D01*
X148480023Y-117682371D01*
X148434552Y-117750424D01*
X148403231Y-117826040D01*
X148387263Y-117906314D01*
X148387263Y-117988160D01*
X148403231Y-118068434D01*
X148434552Y-118144050D01*
X148480023Y-118212103D01*
X148537897Y-118269977D01*
X148605950Y-118315448D01*
X148681566Y-118346769D01*
X148761840Y-118362737D01*
X148843686Y-118362737D01*
X148923960Y-118346769D01*
X148999576Y-118315448D01*
X149067629Y-118269977D01*
X149125503Y-118212103D01*
X149170974Y-118144050D01*
X149202295Y-118068434D01*
X149218263Y-117988160D01*
X149218263Y-117906314D01*
X149202295Y-117826040D01*
X149185505Y-117785505D01*
X149226040Y-117802295D01*
X149306314Y-117818263D01*
X149388160Y-117818263D01*
X149468434Y-117802295D01*
X149544050Y-117770974D01*
X149612103Y-117725503D01*
X149669977Y-117667629D01*
X149715448Y-117599576D01*
X149746769Y-117523960D01*
X149762737Y-117443686D01*
X149762737Y-117361840D01*
X149746769Y-117281566D01*
X149728676Y-117237886D01*
X150096001Y-117605211D01*
X150096000Y-117837541D01*
X150094773Y-117850000D01*
X150096000Y-117862458D01*
X150096000Y-117862468D01*
X150099676Y-117899792D01*
X150114200Y-117947671D01*
X150137786Y-117991797D01*
X150151349Y-118008323D01*
X150161578Y-118020788D01*
X150161581Y-118020791D01*
X150169527Y-118030473D01*
X150179209Y-118038419D01*
X151087050Y-118946260D01*
X151084500Y-118959077D01*
X151084500Y-119040923D01*
X151100468Y-119121197D01*
X151131789Y-119196813D01*
X151177260Y-119264866D01*
X151235134Y-119322740D01*
X151303187Y-119368211D01*
X151378803Y-119399532D01*
X151459077Y-119415500D01*
X151540923Y-119415500D01*
X151621197Y-119399532D01*
X151696813Y-119368211D01*
X151764866Y-119322740D01*
X151822740Y-119264866D01*
X151868211Y-119196813D01*
X151899532Y-119121197D01*
X151915500Y-119040923D01*
X151915500Y-118959077D01*
X151899532Y-118878803D01*
X151868211Y-118803187D01*
X151822740Y-118735134D01*
X151764866Y-118677260D01*
X151696813Y-118631789D01*
X151621197Y-118600468D01*
X151540923Y-118584500D01*
X151459077Y-118584500D01*
X151446260Y-118587050D01*
X150765524Y-117906314D01*
X151037263Y-117906314D01*
X151037263Y-117988160D01*
X151053231Y-118068434D01*
X151084552Y-118144050D01*
X151130023Y-118212103D01*
X151187897Y-118269977D01*
X151255950Y-118315448D01*
X151331566Y-118346769D01*
X151411840Y-118362737D01*
X151493686Y-118362737D01*
X151573960Y-118346769D01*
X151649576Y-118315448D01*
X151717629Y-118269977D01*
X151775503Y-118212103D01*
X151820974Y-118144050D01*
X151852295Y-118068434D01*
X151868263Y-117988160D01*
X151868263Y-117906314D01*
X153087263Y-117906314D01*
X153087263Y-117988160D01*
X153103231Y-118068434D01*
X153134552Y-118144050D01*
X153180023Y-118212103D01*
X153237897Y-118269977D01*
X153305950Y-118315448D01*
X153381566Y-118346769D01*
X153461840Y-118362737D01*
X153543686Y-118362737D01*
X153623960Y-118346769D01*
X153699576Y-118315448D01*
X153767629Y-118269977D01*
X153825503Y-118212103D01*
X153870974Y-118144050D01*
X153902295Y-118068434D01*
X153918263Y-117988160D01*
X153918263Y-117906314D01*
X155137263Y-117906314D01*
X155137263Y-117988160D01*
X155153231Y-118068434D01*
X155184552Y-118144050D01*
X155230023Y-118212103D01*
X155287897Y-118269977D01*
X155355950Y-118315448D01*
X155431566Y-118346769D01*
X155511840Y-118362737D01*
X155593686Y-118362737D01*
X155673960Y-118346769D01*
X155749576Y-118315448D01*
X155817629Y-118269977D01*
X155875503Y-118212103D01*
X155920974Y-118144050D01*
X155952295Y-118068434D01*
X155968263Y-117988160D01*
X155968263Y-117906314D01*
X157162263Y-117906314D01*
X157162263Y-117988160D01*
X157178231Y-118068434D01*
X157209552Y-118144050D01*
X157255023Y-118212103D01*
X157312897Y-118269977D01*
X157380950Y-118315448D01*
X157456566Y-118346769D01*
X157536840Y-118362737D01*
X157618686Y-118362737D01*
X157698960Y-118346769D01*
X157774576Y-118315448D01*
X157842629Y-118269977D01*
X157900503Y-118212103D01*
X157945974Y-118144050D01*
X157977295Y-118068434D01*
X157993263Y-117988160D01*
X157993263Y-117906314D01*
X159237263Y-117906314D01*
X159237263Y-117988160D01*
X159253231Y-118068434D01*
X159284552Y-118144050D01*
X159330023Y-118212103D01*
X159387897Y-118269977D01*
X159455950Y-118315448D01*
X159531566Y-118346769D01*
X159611840Y-118362737D01*
X159693686Y-118362737D01*
X159773960Y-118346769D01*
X159849576Y-118315448D01*
X159917629Y-118269977D01*
X159975503Y-118212103D01*
X160020974Y-118144050D01*
X160052295Y-118068434D01*
X160068263Y-117988160D01*
X160068263Y-117906314D01*
X161287263Y-117906314D01*
X161287263Y-117988160D01*
X161303231Y-118068434D01*
X161334552Y-118144050D01*
X161380023Y-118212103D01*
X161437897Y-118269977D01*
X161505950Y-118315448D01*
X161581566Y-118346769D01*
X161661840Y-118362737D01*
X161743686Y-118362737D01*
X161823960Y-118346769D01*
X161899576Y-118315448D01*
X161967629Y-118269977D01*
X162025503Y-118212103D01*
X162070974Y-118144050D01*
X162102295Y-118068434D01*
X162118263Y-117988160D01*
X162118263Y-117906314D01*
X163337263Y-117906314D01*
X163337263Y-117988160D01*
X163353231Y-118068434D01*
X163384552Y-118144050D01*
X163430023Y-118212103D01*
X163487897Y-118269977D01*
X163555950Y-118315448D01*
X163631566Y-118346769D01*
X163711840Y-118362737D01*
X163793686Y-118362737D01*
X163873960Y-118346769D01*
X163949576Y-118315448D01*
X164017629Y-118269977D01*
X164075503Y-118212103D01*
X164120974Y-118144050D01*
X164152295Y-118068434D01*
X164168263Y-117988160D01*
X164168263Y-117906314D01*
X165387263Y-117906314D01*
X165387263Y-117988160D01*
X165403231Y-118068434D01*
X165434552Y-118144050D01*
X165480023Y-118212103D01*
X165537897Y-118269977D01*
X165605950Y-118315448D01*
X165681566Y-118346769D01*
X165761840Y-118362737D01*
X165843686Y-118362737D01*
X165923960Y-118346769D01*
X165999576Y-118315448D01*
X166067629Y-118269977D01*
X166125503Y-118212103D01*
X166170974Y-118144050D01*
X166202295Y-118068434D01*
X166218263Y-117988160D01*
X166218263Y-117906314D01*
X166202295Y-117826040D01*
X166185505Y-117785505D01*
X166226040Y-117802295D01*
X166306314Y-117818263D01*
X166388160Y-117818263D01*
X166468434Y-117802295D01*
X166544050Y-117770974D01*
X166612103Y-117725503D01*
X166669977Y-117667629D01*
X166715448Y-117599576D01*
X166746769Y-117523960D01*
X166762737Y-117443686D01*
X166762737Y-117361840D01*
X166746769Y-117281566D01*
X166715448Y-117205950D01*
X166669977Y-117137897D01*
X166612103Y-117080023D01*
X166544050Y-117034552D01*
X166468434Y-117003231D01*
X166388160Y-116987263D01*
X166306314Y-116987263D01*
X166226040Y-117003231D01*
X166150424Y-117034552D01*
X166082371Y-117080023D01*
X166024497Y-117137897D01*
X165979026Y-117205950D01*
X165947705Y-117281566D01*
X165931737Y-117361840D01*
X165931737Y-117443686D01*
X165947705Y-117523960D01*
X165964495Y-117564495D01*
X165923960Y-117547705D01*
X165843686Y-117531737D01*
X165761840Y-117531737D01*
X165681566Y-117547705D01*
X165605950Y-117579026D01*
X165537897Y-117624497D01*
X165480023Y-117682371D01*
X165434552Y-117750424D01*
X165403231Y-117826040D01*
X165387263Y-117906314D01*
X164168263Y-117906314D01*
X164152295Y-117826040D01*
X164135505Y-117785505D01*
X164176040Y-117802295D01*
X164256314Y-117818263D01*
X164338160Y-117818263D01*
X164418434Y-117802295D01*
X164494050Y-117770974D01*
X164562103Y-117725503D01*
X164619977Y-117667629D01*
X164665448Y-117599576D01*
X164696769Y-117523960D01*
X164712737Y-117443686D01*
X164712737Y-117361840D01*
X164696769Y-117281566D01*
X164665448Y-117205950D01*
X164619977Y-117137897D01*
X164562103Y-117080023D01*
X164494050Y-117034552D01*
X164418434Y-117003231D01*
X164338160Y-116987263D01*
X164256314Y-116987263D01*
X164176040Y-117003231D01*
X164100424Y-117034552D01*
X164032371Y-117080023D01*
X163974497Y-117137897D01*
X163929026Y-117205950D01*
X163897705Y-117281566D01*
X163881737Y-117361840D01*
X163881737Y-117443686D01*
X163897705Y-117523960D01*
X163914495Y-117564495D01*
X163873960Y-117547705D01*
X163793686Y-117531737D01*
X163711840Y-117531737D01*
X163631566Y-117547705D01*
X163555950Y-117579026D01*
X163487897Y-117624497D01*
X163430023Y-117682371D01*
X163384552Y-117750424D01*
X163353231Y-117826040D01*
X163337263Y-117906314D01*
X162118263Y-117906314D01*
X162102295Y-117826040D01*
X162085505Y-117785505D01*
X162126040Y-117802295D01*
X162206314Y-117818263D01*
X162288160Y-117818263D01*
X162368434Y-117802295D01*
X162444050Y-117770974D01*
X162512103Y-117725503D01*
X162569977Y-117667629D01*
X162615448Y-117599576D01*
X162646769Y-117523960D01*
X162662737Y-117443686D01*
X162662737Y-117361840D01*
X162646769Y-117281566D01*
X162615448Y-117205950D01*
X162569977Y-117137897D01*
X162512103Y-117080023D01*
X162444050Y-117034552D01*
X162368434Y-117003231D01*
X162288160Y-116987263D01*
X162206314Y-116987263D01*
X162126040Y-117003231D01*
X162050424Y-117034552D01*
X161982371Y-117080023D01*
X161924497Y-117137897D01*
X161879026Y-117205950D01*
X161847705Y-117281566D01*
X161831737Y-117361840D01*
X161831737Y-117443686D01*
X161847705Y-117523960D01*
X161864495Y-117564495D01*
X161823960Y-117547705D01*
X161743686Y-117531737D01*
X161661840Y-117531737D01*
X161581566Y-117547705D01*
X161505950Y-117579026D01*
X161437897Y-117624497D01*
X161380023Y-117682371D01*
X161334552Y-117750424D01*
X161303231Y-117826040D01*
X161287263Y-117906314D01*
X160068263Y-117906314D01*
X160052295Y-117826040D01*
X160035505Y-117785505D01*
X160076040Y-117802295D01*
X160156314Y-117818263D01*
X160238160Y-117818263D01*
X160318434Y-117802295D01*
X160394050Y-117770974D01*
X160462103Y-117725503D01*
X160519977Y-117667629D01*
X160565448Y-117599576D01*
X160596769Y-117523960D01*
X160612737Y-117443686D01*
X160612737Y-117361840D01*
X160596769Y-117281566D01*
X160565448Y-117205950D01*
X160519977Y-117137897D01*
X160462103Y-117080023D01*
X160394050Y-117034552D01*
X160318434Y-117003231D01*
X160238160Y-116987263D01*
X160156314Y-116987263D01*
X160076040Y-117003231D01*
X160000424Y-117034552D01*
X159932371Y-117080023D01*
X159874497Y-117137897D01*
X159829026Y-117205950D01*
X159797705Y-117281566D01*
X159781737Y-117361840D01*
X159781737Y-117443686D01*
X159797705Y-117523960D01*
X159814495Y-117564495D01*
X159773960Y-117547705D01*
X159693686Y-117531737D01*
X159611840Y-117531737D01*
X159531566Y-117547705D01*
X159455950Y-117579026D01*
X159387897Y-117624497D01*
X159330023Y-117682371D01*
X159284552Y-117750424D01*
X159253231Y-117826040D01*
X159237263Y-117906314D01*
X157993263Y-117906314D01*
X157977295Y-117826040D01*
X157960505Y-117785505D01*
X158001040Y-117802295D01*
X158081314Y-117818263D01*
X158163160Y-117818263D01*
X158243434Y-117802295D01*
X158319050Y-117770974D01*
X158387103Y-117725503D01*
X158444977Y-117667629D01*
X158490448Y-117599576D01*
X158521769Y-117523960D01*
X158537737Y-117443686D01*
X158537737Y-117361840D01*
X158521769Y-117281566D01*
X158490448Y-117205950D01*
X158444977Y-117137897D01*
X158387103Y-117080023D01*
X158319050Y-117034552D01*
X158243434Y-117003231D01*
X158163160Y-116987263D01*
X158081314Y-116987263D01*
X158001040Y-117003231D01*
X157925424Y-117034552D01*
X157857371Y-117080023D01*
X157799497Y-117137897D01*
X157754026Y-117205950D01*
X157722705Y-117281566D01*
X157706737Y-117361840D01*
X157706737Y-117443686D01*
X157722705Y-117523960D01*
X157739495Y-117564495D01*
X157698960Y-117547705D01*
X157618686Y-117531737D01*
X157536840Y-117531737D01*
X157456566Y-117547705D01*
X157380950Y-117579026D01*
X157312897Y-117624497D01*
X157255023Y-117682371D01*
X157209552Y-117750424D01*
X157178231Y-117826040D01*
X157162263Y-117906314D01*
X155968263Y-117906314D01*
X155952295Y-117826040D01*
X155935505Y-117785505D01*
X155976040Y-117802295D01*
X156056314Y-117818263D01*
X156138160Y-117818263D01*
X156218434Y-117802295D01*
X156294050Y-117770974D01*
X156362103Y-117725503D01*
X156419977Y-117667629D01*
X156465448Y-117599576D01*
X156496769Y-117523960D01*
X156512737Y-117443686D01*
X156512737Y-117361840D01*
X156496769Y-117281566D01*
X156465448Y-117205950D01*
X156419977Y-117137897D01*
X156362103Y-117080023D01*
X156294050Y-117034552D01*
X156218434Y-117003231D01*
X156138160Y-116987263D01*
X156056314Y-116987263D01*
X155976040Y-117003231D01*
X155900424Y-117034552D01*
X155832371Y-117080023D01*
X155774497Y-117137897D01*
X155729026Y-117205950D01*
X155697705Y-117281566D01*
X155681737Y-117361840D01*
X155681737Y-117443686D01*
X155697705Y-117523960D01*
X155714495Y-117564495D01*
X155673960Y-117547705D01*
X155593686Y-117531737D01*
X155511840Y-117531737D01*
X155431566Y-117547705D01*
X155355950Y-117579026D01*
X155287897Y-117624497D01*
X155230023Y-117682371D01*
X155184552Y-117750424D01*
X155153231Y-117826040D01*
X155137263Y-117906314D01*
X153918263Y-117906314D01*
X153902295Y-117826040D01*
X153885505Y-117785505D01*
X153926040Y-117802295D01*
X154006314Y-117818263D01*
X154088160Y-117818263D01*
X154168434Y-117802295D01*
X154244050Y-117770974D01*
X154312103Y-117725503D01*
X154369977Y-117667629D01*
X154415448Y-117599576D01*
X154446769Y-117523960D01*
X154462737Y-117443686D01*
X154462737Y-117361840D01*
X154446769Y-117281566D01*
X154415448Y-117205950D01*
X154369977Y-117137897D01*
X154312103Y-117080023D01*
X154244050Y-117034552D01*
X154168434Y-117003231D01*
X154088160Y-116987263D01*
X154006314Y-116987263D01*
X153926040Y-117003231D01*
X153850424Y-117034552D01*
X153782371Y-117080023D01*
X153724497Y-117137897D01*
X153679026Y-117205950D01*
X153647705Y-117281566D01*
X153631737Y-117361840D01*
X153631737Y-117443686D01*
X153647705Y-117523960D01*
X153664495Y-117564495D01*
X153623960Y-117547705D01*
X153543686Y-117531737D01*
X153461840Y-117531737D01*
X153381566Y-117547705D01*
X153305950Y-117579026D01*
X153237897Y-117624497D01*
X153180023Y-117682371D01*
X153134552Y-117750424D01*
X153103231Y-117826040D01*
X153087263Y-117906314D01*
X151868263Y-117906314D01*
X151852295Y-117826040D01*
X151835505Y-117785505D01*
X151876040Y-117802295D01*
X151956314Y-117818263D01*
X152038160Y-117818263D01*
X152118434Y-117802295D01*
X152194050Y-117770974D01*
X152262103Y-117725503D01*
X152319977Y-117667629D01*
X152365448Y-117599576D01*
X152396769Y-117523960D01*
X152412737Y-117443686D01*
X152412737Y-117361840D01*
X152396769Y-117281566D01*
X152365448Y-117205950D01*
X152319977Y-117137897D01*
X152262103Y-117080023D01*
X152194050Y-117034552D01*
X152118434Y-117003231D01*
X152038160Y-116987263D01*
X151956314Y-116987263D01*
X151876040Y-117003231D01*
X151800424Y-117034552D01*
X151732371Y-117080023D01*
X151674497Y-117137897D01*
X151629026Y-117205950D01*
X151597705Y-117281566D01*
X151581737Y-117361840D01*
X151581737Y-117443686D01*
X151597705Y-117523960D01*
X151614495Y-117564495D01*
X151573960Y-117547705D01*
X151493686Y-117531737D01*
X151411840Y-117531737D01*
X151331566Y-117547705D01*
X151255950Y-117579026D01*
X151187897Y-117624497D01*
X151130023Y-117682371D01*
X151084552Y-117750424D01*
X151053231Y-117826040D01*
X151037263Y-117906314D01*
X150765524Y-117906314D01*
X150604000Y-117744790D01*
X150604000Y-117512458D01*
X150605227Y-117500000D01*
X150604000Y-117487542D01*
X150604000Y-117487531D01*
X150600324Y-117450207D01*
X150585800Y-117402328D01*
X150577521Y-117386840D01*
X150562215Y-117358203D01*
X150538422Y-117329212D01*
X150538419Y-117329209D01*
X150530473Y-117319527D01*
X150520791Y-117311581D01*
X145288419Y-112079209D01*
X145280473Y-112069527D01*
X145270791Y-112061581D01*
X145270788Y-112061578D01*
X145258323Y-112051349D01*
X145241797Y-112037786D01*
X145197672Y-112014200D01*
X145149793Y-111999676D01*
X145112469Y-111996000D01*
X145112458Y-111996000D01*
X145100000Y-111994773D01*
X145087542Y-111996000D01*
X107155210Y-111996000D01*
X107118287Y-111959077D01*
X162334500Y-111959077D01*
X162334500Y-112040923D01*
X162350468Y-112121197D01*
X162381789Y-112196813D01*
X162427260Y-112264866D01*
X162485134Y-112322740D01*
X162553187Y-112368211D01*
X162628803Y-112399532D01*
X162709077Y-112415500D01*
X162790923Y-112415500D01*
X162871197Y-112399532D01*
X162946813Y-112368211D01*
X163014866Y-112322740D01*
X163072740Y-112264866D01*
X163118211Y-112196813D01*
X163149532Y-112121197D01*
X163165500Y-112040923D01*
X163165500Y-111959077D01*
X163149532Y-111878803D01*
X163118211Y-111803187D01*
X163072740Y-111735134D01*
X163014866Y-111677260D01*
X162946813Y-111631789D01*
X162871197Y-111600468D01*
X162790923Y-111584500D01*
X162709077Y-111584500D01*
X162628803Y-111600468D01*
X162553187Y-111631789D01*
X162485134Y-111677260D01*
X162427260Y-111735134D01*
X162381789Y-111803187D01*
X162350468Y-111878803D01*
X162334500Y-111959077D01*
X107118287Y-111959077D01*
X106462950Y-111303740D01*
X106465500Y-111290923D01*
X106465500Y-111209077D01*
X106449532Y-111128803D01*
X106418211Y-111053187D01*
X106372740Y-110985134D01*
X106314866Y-110927260D01*
X106246813Y-110881789D01*
X106171197Y-110850468D01*
X106090923Y-110834500D01*
X106009077Y-110834500D01*
X105928803Y-110850468D01*
X105853187Y-110881789D01*
X105785134Y-110927260D01*
X105727260Y-110985134D01*
X105681789Y-111053187D01*
X105650468Y-111128803D01*
X105634500Y-111209077D01*
X105165500Y-111209077D01*
X105149532Y-111128803D01*
X105118211Y-111053187D01*
X105072740Y-110985134D01*
X105014866Y-110927260D01*
X104946813Y-110881789D01*
X104871197Y-110850468D01*
X104790923Y-110834500D01*
X104709077Y-110834500D01*
X104628803Y-110850468D01*
X104553187Y-110881789D01*
X104485134Y-110927260D01*
X104427260Y-110985134D01*
X104381789Y-111053187D01*
X104350468Y-111128803D01*
X104334500Y-111209077D01*
X74665500Y-111209077D01*
X74665500Y-104386517D01*
X75509500Y-104386517D01*
X75509500Y-105113483D01*
X75651324Y-105826479D01*
X75929521Y-106498107D01*
X76333401Y-107102557D01*
X76847443Y-107616599D01*
X77451893Y-108020479D01*
X78123521Y-108298676D01*
X78836517Y-108440500D01*
X79563483Y-108440500D01*
X80276479Y-108298676D01*
X80948107Y-108020479D01*
X81040001Y-107959077D01*
X113584500Y-107959077D01*
X113584500Y-108040923D01*
X113600468Y-108121197D01*
X113631789Y-108196813D01*
X113677260Y-108264866D01*
X113735134Y-108322740D01*
X113803187Y-108368211D01*
X113878803Y-108399532D01*
X113959077Y-108415500D01*
X114040923Y-108415500D01*
X114121197Y-108399532D01*
X114196813Y-108368211D01*
X114264866Y-108322740D01*
X114322740Y-108264866D01*
X114368211Y-108196813D01*
X114399532Y-108121197D01*
X114415500Y-108040923D01*
X114415500Y-107959077D01*
X114399532Y-107878803D01*
X114368211Y-107803187D01*
X114322740Y-107735134D01*
X114264866Y-107677260D01*
X114196813Y-107631789D01*
X114121197Y-107600468D01*
X114040923Y-107584500D01*
X113959077Y-107584500D01*
X113878803Y-107600468D01*
X113803187Y-107631789D01*
X113735134Y-107677260D01*
X113677260Y-107735134D01*
X113631789Y-107803187D01*
X113600468Y-107878803D01*
X113584500Y-107959077D01*
X81040001Y-107959077D01*
X81552557Y-107616599D01*
X82066599Y-107102557D01*
X82470479Y-106498107D01*
X82748676Y-105826479D01*
X82791920Y-105609077D01*
X99884500Y-105609077D01*
X99884500Y-105690923D01*
X99900468Y-105771197D01*
X99931789Y-105846813D01*
X99977260Y-105914866D01*
X100035134Y-105972740D01*
X100103187Y-106018211D01*
X100119576Y-106025000D01*
X100103187Y-106031788D01*
X100035134Y-106077259D01*
X99977260Y-106135133D01*
X99931789Y-106203186D01*
X99900468Y-106278802D01*
X99884500Y-106359076D01*
X99884500Y-106440922D01*
X99900468Y-106521196D01*
X99931789Y-106596812D01*
X99977260Y-106664865D01*
X100035134Y-106722739D01*
X100103187Y-106768210D01*
X100119579Y-106775000D01*
X100103188Y-106781789D01*
X100035135Y-106827260D01*
X99977261Y-106885134D01*
X99931790Y-106953187D01*
X99900469Y-107028803D01*
X99884501Y-107109077D01*
X99884501Y-107190923D01*
X99900469Y-107271197D01*
X99931790Y-107346813D01*
X99977261Y-107414866D01*
X100035135Y-107472740D01*
X100103188Y-107518211D01*
X100178804Y-107549532D01*
X100259078Y-107565500D01*
X100340924Y-107565500D01*
X100421198Y-107549532D01*
X100496814Y-107518211D01*
X100564867Y-107472740D01*
X100622741Y-107414866D01*
X100668212Y-107346813D01*
X100699533Y-107271197D01*
X100700001Y-107268847D01*
X100700468Y-107271197D01*
X100731789Y-107346813D01*
X100777260Y-107414866D01*
X100835134Y-107472740D01*
X100903187Y-107518211D01*
X100978803Y-107549532D01*
X101059077Y-107565500D01*
X101140923Y-107565500D01*
X101221197Y-107549532D01*
X101296813Y-107518211D01*
X101364866Y-107472740D01*
X101422740Y-107414866D01*
X101468211Y-107346813D01*
X101499532Y-107271197D01*
X101500000Y-107268844D01*
X101500468Y-107271197D01*
X101531789Y-107346813D01*
X101577260Y-107414866D01*
X101635134Y-107472740D01*
X101703187Y-107518211D01*
X101778803Y-107549532D01*
X101859077Y-107565500D01*
X101940923Y-107565500D01*
X102021197Y-107549532D01*
X102096813Y-107518211D01*
X102164866Y-107472740D01*
X102222740Y-107414866D01*
X102268211Y-107346813D01*
X102299532Y-107271197D01*
X102300000Y-107268844D01*
X102300468Y-107271197D01*
X102331789Y-107346813D01*
X102377260Y-107414866D01*
X102435134Y-107472740D01*
X102503187Y-107518211D01*
X102578803Y-107549532D01*
X102659077Y-107565500D01*
X102740923Y-107565500D01*
X102821197Y-107549532D01*
X102896813Y-107518211D01*
X102964866Y-107472740D01*
X103022740Y-107414866D01*
X103068211Y-107346813D01*
X103099532Y-107271197D01*
X103115500Y-107190923D01*
X103115500Y-107109077D01*
X103099532Y-107028803D01*
X103068211Y-106953187D01*
X103022740Y-106885134D01*
X102964866Y-106827260D01*
X102896813Y-106781789D01*
X102880423Y-106775000D01*
X102896813Y-106768211D01*
X102964866Y-106722740D01*
X103022740Y-106664866D01*
X103068211Y-106596813D01*
X103099532Y-106521197D01*
X103115500Y-106440923D01*
X103115500Y-106359077D01*
X103099532Y-106278803D01*
X103068211Y-106203187D01*
X103022740Y-106135134D01*
X102996683Y-106109077D01*
X106734500Y-106109077D01*
X106734500Y-106190923D01*
X106750468Y-106271197D01*
X106781789Y-106346813D01*
X106827260Y-106414866D01*
X106885134Y-106472740D01*
X106953187Y-106518211D01*
X107028803Y-106549532D01*
X107109077Y-106565500D01*
X107190923Y-106565500D01*
X107271197Y-106549532D01*
X107346813Y-106518211D01*
X107414866Y-106472740D01*
X107472740Y-106414866D01*
X107518211Y-106346813D01*
X107549532Y-106271197D01*
X107565500Y-106190923D01*
X107565500Y-106109077D01*
X107549532Y-106028803D01*
X107518211Y-105953187D01*
X107472740Y-105885134D01*
X107414866Y-105827260D01*
X107346813Y-105781789D01*
X107271197Y-105750468D01*
X107190923Y-105734500D01*
X107109077Y-105734500D01*
X107028803Y-105750468D01*
X106953187Y-105781789D01*
X106885134Y-105827260D01*
X106827260Y-105885134D01*
X106781789Y-105953187D01*
X106750468Y-106028803D01*
X106734500Y-106109077D01*
X102996683Y-106109077D01*
X102964866Y-106077260D01*
X102896813Y-106031789D01*
X102880423Y-106025000D01*
X102896813Y-106018211D01*
X102964866Y-105972740D01*
X103022740Y-105914866D01*
X103068211Y-105846813D01*
X103099532Y-105771197D01*
X103115500Y-105690923D01*
X103115500Y-105609077D01*
X103099532Y-105528803D01*
X103068211Y-105453187D01*
X103022740Y-105385134D01*
X102964866Y-105327260D01*
X102896813Y-105281789D01*
X102821197Y-105250468D01*
X102740923Y-105234500D01*
X102659077Y-105234500D01*
X102578803Y-105250468D01*
X102503187Y-105281789D01*
X102435134Y-105327260D01*
X102377260Y-105385134D01*
X102331789Y-105453187D01*
X102300468Y-105528803D01*
X102300000Y-105531156D01*
X102299532Y-105528803D01*
X102268211Y-105453187D01*
X102222740Y-105385134D01*
X102164866Y-105327260D01*
X102096813Y-105281789D01*
X102021197Y-105250468D01*
X101940923Y-105234500D01*
X101859077Y-105234500D01*
X101778803Y-105250468D01*
X101703187Y-105281789D01*
X101635134Y-105327260D01*
X101577260Y-105385134D01*
X101531789Y-105453187D01*
X101500468Y-105528803D01*
X101500000Y-105531156D01*
X101499532Y-105528803D01*
X101468211Y-105453187D01*
X101422740Y-105385134D01*
X101364866Y-105327260D01*
X101296813Y-105281789D01*
X101221197Y-105250468D01*
X101140923Y-105234500D01*
X101059077Y-105234500D01*
X100978803Y-105250468D01*
X100903187Y-105281789D01*
X100835134Y-105327260D01*
X100777260Y-105385134D01*
X100731789Y-105453187D01*
X100700468Y-105528803D01*
X100700000Y-105531156D01*
X100699532Y-105528803D01*
X100668211Y-105453187D01*
X100622740Y-105385134D01*
X100564866Y-105327260D01*
X100496813Y-105281789D01*
X100421197Y-105250468D01*
X100340923Y-105234500D01*
X100259077Y-105234500D01*
X100178803Y-105250468D01*
X100103187Y-105281789D01*
X100035134Y-105327260D01*
X99977260Y-105385134D01*
X99931789Y-105453187D01*
X99900468Y-105528803D01*
X99884500Y-105609077D01*
X82791920Y-105609077D01*
X82890500Y-105113483D01*
X82890500Y-104386517D01*
X82748676Y-103673521D01*
X82470479Y-103001893D01*
X82066599Y-102397443D01*
X82042053Y-102372897D01*
X93909500Y-102372897D01*
X93909500Y-102627103D01*
X93959093Y-102876425D01*
X94056374Y-103111281D01*
X94197603Y-103322646D01*
X94377354Y-103502397D01*
X94588719Y-103643626D01*
X94823575Y-103740907D01*
X95072897Y-103790500D01*
X95327103Y-103790500D01*
X95576425Y-103740907D01*
X95811281Y-103643626D01*
X96022646Y-103502397D01*
X96202397Y-103322646D01*
X96343626Y-103111281D01*
X96440907Y-102876425D01*
X96490500Y-102627103D01*
X96490500Y-102372897D01*
X96440907Y-102123575D01*
X96343626Y-101888719D01*
X96202397Y-101677354D01*
X96022646Y-101497603D01*
X95811281Y-101356374D01*
X95576425Y-101259093D01*
X95327103Y-101209500D01*
X95072897Y-101209500D01*
X94823575Y-101259093D01*
X94588719Y-101356374D01*
X94377354Y-101497603D01*
X94197603Y-101677354D01*
X94056374Y-101888719D01*
X93959093Y-102123575D01*
X93909500Y-102372897D01*
X82042053Y-102372897D01*
X81552557Y-101883401D01*
X80948107Y-101479521D01*
X80276479Y-101201324D01*
X79563483Y-101059500D01*
X78836517Y-101059500D01*
X78123521Y-101201324D01*
X77451893Y-101479521D01*
X76847443Y-101883401D01*
X76333401Y-102397443D01*
X75929521Y-103001893D01*
X75651324Y-103673521D01*
X75509500Y-104386517D01*
X74665500Y-104386517D01*
X74665500Y-101010535D01*
X74681454Y-100847824D01*
X74725648Y-100701445D01*
X74797433Y-100566437D01*
X74894077Y-100447941D01*
X75011893Y-100350475D01*
X75146392Y-100277752D01*
X75292466Y-100232535D01*
X75454537Y-100215500D01*
X93371772Y-100215500D01*
X93403674Y-100232552D01*
%TD*%
M02*
