M48
; DRILL file {KiCad 5.1.5+dfsg1-2build2} date Mi 04 Nov 2020 23:41:35 CET
; FORMAT={-:-/ absolute / inch / decimal}
; #@! TF.CreationDate,2020-11-04T23:41:35+01:00
; #@! TF.GenerationSoftware,Kicad,Pcbnew,5.1.5+dfsg1-2build2
FMAT,2
INCH
T1C0.0079
T2C0.0197
T3C0.1378
T4C0.0866
%
G90
G05
T1
X2.9646Y-3.9783
X2.9646Y-4.2165
X3.0866Y-4.3957
X3.1693Y-4.3051
X3.2776Y-3.9941
X3.3425Y-4.2717
X3.3858Y-4.1791
X3.4665Y-4.4134
X3.5079Y-3.9823
X3.6024Y-4.2126
X3.622Y-3.9764
X3.6417Y-3.9567
X3.7205Y-4.4488
X3.9075Y-4.4488
X3.9488Y-4.1594
X3.9488Y-4.189
X3.9488Y-4.2185
X3.9803Y-4.1594
X3.9803Y-4.189
X3.9803Y-4.2185
X4.0118Y-4.1594
X4.0118Y-4.189
X4.0118Y-4.2185
X4.0433Y-4.1594
X4.0433Y-4.189
X4.0433Y-4.2185
X4.0945Y-3.9665
X4.124Y-4.3799
X4.1339Y-3.9665
X4.1732Y-3.9665
X4.1752Y-4.3799
X4.2126Y-3.9665
X4.2185Y-4.1791
X4.3307Y-3.9567
X4.3307Y-4.1831
X4.4488Y-3.9567
X4.4488Y-4.1831
X4.4882Y-3.9764
X4.4882Y-4.252
X4.5669Y-3.9764
X4.6063Y-3.9764
X4.6358Y-4.2224
X4.685Y-3.9764
X4.685Y-4.2717
X4.7047Y-4.1535
X4.7244Y-3.9764
X4.7441Y-4.6299
X4.7441Y-4.6614
X4.7441Y-4.6929
X4.7441Y-4.7244
X4.7638Y-3.9764
X4.7736Y-4.7244
X4.7736Y-4.6299
X4.7736Y-4.6614
X4.7736Y-4.6929
X4.7835Y-4.1535
X4.8031Y-4.6614
X4.8031Y-3.9764
X4.8031Y-4.6299
X4.8031Y-4.6929
X4.8031Y-4.7244
X4.8425Y-3.9764
X4.8425Y-4.7244
X4.8622Y-4.1535
X4.8819Y-3.9764
X4.8819Y-4.7244
X4.8839Y-4.4764
X4.9213Y-3.9764
X4.9213Y-4.7244
X4.9409Y-4.1535
X4.9606Y-3.9764
X4.9606Y-4.7244
X5.0Y-3.9764
X5.0197Y-4.1535
X5.0394Y-3.9764
X5.0787Y-3.9764
X5.0984Y-4.1535
X5.0984Y-4.2717
X5.1181Y-3.9764
X5.1575Y-3.9764
X5.1772Y-4.1535
X5.1969Y-3.9764
X5.2303Y-4.4764
X5.2362Y-3.9764
X5.248Y-4.7165
X5.2559Y-4.1535
X5.2559Y-4.2717
X5.2756Y-3.9764
X5.315Y-3.9764
X5.3195Y-4.6811
X5.3346Y-4.1535
X5.3346Y-4.2717
X5.3498Y-4.6811
X5.3543Y-3.9764
X5.378Y-4.7165
X5.383Y-4.6525
X5.3937Y-3.9764
X5.4044Y-4.631
X5.4134Y-4.1535
X5.4291Y-4.4764
X5.4331Y-3.9764
X5.4528Y-4.7165
X5.4548Y-4.6436
X5.4724Y-3.9764
X5.4763Y-4.6222
X5.4882Y-4.7165
X5.4921Y-4.1535
X5.502Y-4.2717
X5.5118Y-3.9764
X5.5355Y-4.6436
X5.5512Y-3.9764
X5.557Y-4.6222
X5.5709Y-4.1535
X5.5748Y-4.7165
X5.5906Y-3.9764
X5.6172Y-4.6436
X5.6299Y-3.9764
X5.6387Y-4.6222
X5.6457Y-4.7165
X5.6496Y-4.1535
X5.6693Y-3.9764
X5.6732Y-4.4764
X5.6979Y-4.6446
X5.7087Y-3.9764
X5.7194Y-4.6231
X5.7283Y-4.1535
X5.7323Y-4.7165
X5.748Y-3.9764
X5.7777Y-4.6436
X5.7874Y-3.9764
X5.7991Y-4.6222
X5.8031Y-4.7165
X5.8071Y-4.1535
X5.8268Y-3.9764
X5.8584Y-4.6436
X5.8661Y-3.9764
X5.8798Y-4.6222
X5.8898Y-4.7165
X5.9055Y-3.9764
X5.9627Y-4.6436
X5.9646Y-4.685
X5.9841Y-4.6222
X5.9961Y-4.7165
X6.0434Y-4.6436
X6.0531Y-4.2717
X6.0649Y-4.6222
X6.1142Y-4.7323
X6.1241Y-4.6436
X6.1456Y-4.6222
X6.1929Y-4.7323
X6.2008Y-3.9567
X6.2038Y-4.6436
X6.2205Y-3.9764
X6.2205Y-4.2323
X6.2253Y-4.6222
X6.2717Y-4.7323
X6.2855Y-4.6436
X6.307Y-4.6222
X6.3504Y-4.7323
X6.3663Y-4.6436
X6.3681Y-4.3799
X6.3877Y-4.6222
X6.4075Y-4.4094
X6.447Y-4.6436
X6.4684Y-4.6222
X6.5079Y-4.7323
X6.5277Y-4.6436
X6.5491Y-4.6222
X6.5906Y-4.7283
X6.5945Y-4.3799
X6.6811Y-4.7165
X6.6929Y-4.4783
T2
X3.0148Y-4.124
X3.045Y-4.0509
X3.045Y-4.1971
X3.1181Y-4.0207
X3.1181Y-4.2274
X3.1912Y-4.0509
X3.1912Y-4.1971
X3.2215Y-4.124
T3
X3.1181Y-4.124
T4
X3.748Y-4.0354
X6.0945Y-4.0354
T0
M30
